{"glyphs":{"0":{"ha":685,"x_min":60,"x_max":628,"o":"m 339 12 q 113 149 184 12 q 60 421 60 253 q 130 669 60 563 q 355 793 213 793 q 564 683 489 793 q 628 452 628 588 q 556 122 628 232 q 339 12 484 12 m 355 699 q 205 606 260 699 q 158 429 158 528 q 203 187 158 268 q 339 106 249 106 q 494 224 447 106 q 526 433 526 307 q 483 632 526 566 q 355 699 440 699 z "},"1":{"ha":604,"x_min":82,"x_max":530,"o":"m 464 -1 l 329 -1 l 195 0 q 128 5 147 0 q 94 44 94 14 q 200 97 94 97 l 233 96 l 260 95 q 261 169 260 120 q 262 243 262 218 q 265 646 262 309 q 149 591 174 591 q 102 607 122 591 q 82 643 82 623 q 140 703 82 667 q 244 766 177 722 q 345 812 304 812 q 390 772 390 812 q 393 736 390 760 q 395 701 395 713 q 395 493 395 684 q 395 243 395 302 q 393 169 395 212 q 393 98 392 126 l 464 100 q 511 85 492 100 q 530 50 530 71 q 511 14 530 28 q 464 -1 492 -1 z "},"2":{"ha":680,"x_min":106,"x_max":610,"o":"m 560 -1 q 522 6 547 -1 q 485 14 498 14 q 402 11 457 14 q 319 8 348 8 q 258 3 299 8 q 195 -2 216 -2 q 179 0 190 -2 q 161 2 168 2 q 113 37 124 2 q 106 98 106 54 q 175 290 106 217 q 343 413 206 323 q 446 491 420 463 q 492 606 492 541 q 447 665 492 639 q 370 688 408 688 q 276 661 321 688 l 199 603 q 162 586 176 586 q 107 628 107 586 q 127 669 107 652 q 237 751 191 726 q 370 786 302 786 q 526 741 457 786 q 602 611 602 690 q 586 515 602 559 q 539 434 570 471 q 402 332 498 388 q 270 239 302 271 q 211 97 210 181 l 322 106 q 485 113 436 113 q 562 99 526 113 q 610 50 610 81 q 596 14 610 30 q 560 -1 581 -1 z "},"3":{"ha":708,"x_min":104,"x_max":620,"o":"m 357 -31 q 208 3 273 -31 q 107 113 133 42 q 104 132 104 122 q 121 167 104 153 q 159 181 138 181 q 197 161 182 181 l 222 124 q 276 85 243 98 q 357 72 310 72 q 462 109 416 72 q 510 203 510 147 q 448 332 510 284 q 305 383 395 374 q 244 431 244 389 q 292 479 244 463 l 424 511 q 481 548 462 525 q 501 603 500 570 q 463 680 502 650 q 351 709 423 709 q 278 692 313 709 l 216 654 q 186 642 197 642 q 149 659 164 642 q 133 696 133 675 q 217 778 133 739 q 338 812 290 812 q 526 762 456 812 q 600 606 600 707 q 495 439 600 479 q 474 431 486 435 q 584 353 547 405 q 620 222 620 300 q 543 43 620 117 q 357 -31 467 -31 z "},"4":{"ha":758,"x_min":130,"x_max":777,"o":"m 649 223 l 649 31 q 597 -18 649 -18 q 538 58 538 -18 q 539 84 538 67 q 540 108 540 102 l 539 226 l 290 231 q 182 236 212 231 q 130 273 130 244 q 161 332 130 296 l 210 385 l 489 759 q 585 807 527 807 q 649 756 649 807 l 649 324 q 672 324 659 324 q 777 273 777 324 q 734 226 777 235 q 649 223 714 221 m 539 663 q 303 331 388 441 l 539 326 l 539 663 z "},"5":{"ha":693,"x_min":100,"x_max":656,"o":"m 336 -43 q 109 71 182 -43 q 100 102 100 87 q 117 138 100 123 q 155 153 134 153 q 197 130 176 153 q 240 85 225 95 q 336 62 275 62 q 491 133 429 62 q 550 297 550 201 q 524 426 550 376 q 420 488 490 488 q 326 473 363 488 q 267 429 297 460 l 208 365 q 159 340 184 340 q 122 356 138 340 q 107 393 107 372 q 116 490 107 404 q 134 714 134 661 q 125 756 134 733 q 115 789 115 779 q 172 822 115 822 q 205 820 183 822 q 238 819 227 819 q 332 821 269 819 q 426 823 395 823 q 471 822 441 823 q 515 821 500 821 q 545 825 526 821 q 574 829 564 829 q 611 813 595 829 q 627 777 627 798 q 499 716 627 716 q 457 717 482 716 q 426 718 431 718 l 335 716 l 243 713 q 223 533 243 689 q 420 592 297 592 q 603 499 540 592 q 656 297 656 420 q 570 56 656 151 q 336 -43 481 -43 z "},"6":{"ha":689,"x_min":85,"x_max":625,"o":"m 349 -8 q 140 97 207 -8 q 85 327 85 183 q 302 798 85 598 l 353 850 q 410 886 391 886 q 448 870 431 886 q 464 833 464 854 q 409 757 465 813 l 298 648 q 223 511 255 602 q 306 544 271 533 q 363 555 340 555 q 558 486 490 555 q 625 292 625 417 q 552 78 625 161 q 349 -8 476 -8 m 349 443 q 265 426 302 443 q 194 384 251 420 q 191 327 191 355 q 223 166 191 229 q 351 87 264 87 q 478 146 433 87 q 519 292 519 201 q 477 405 519 368 q 349 443 434 443 z "},"7":{"ha":620,"x_min":74,"x_max":583,"o":"m 556 652 l 515 597 q 409 411 458 521 l 328 208 q 291 92 320 186 q 248 -20 268 16 q 212 -45 235 -45 q 181 -31 195 -45 q 168 3 168 -16 q 196 102 168 23 l 296 382 q 432 638 362 548 l 440 648 l 217 654 l 117 656 q 74 705 74 661 q 86 741 74 727 q 117 754 99 754 q 286 750 174 754 q 454 746 398 746 l 536 746 q 583 714 583 746 q 556 652 583 690 m 496 320 q 160 313 401 313 q 102 353 102 313 q 160 393 102 393 q 325 397 215 393 q 489 401 434 401 q 551 360 551 401 q 496 320 551 325 z "},"8":{"ha":652,"x_min":70,"x_max":610,"o":"m 336 -37 q 153 12 222 -37 q 72 176 74 68 q 193 410 70 348 q 98 574 98 468 q 172 742 98 675 q 342 807 242 806 q 567 585 567 809 q 541 487 567 522 q 460 427 520 458 q 572 341 540 387 q 610 191 610 286 q 529 20 610 82 q 336 -37 454 -37 m 340 711 q 235 673 271 711 q 203 574 202 636 q 326 468 203 499 q 418 505 390 487 q 463 585 463 535 q 430 688 463 658 q 340 711 402 711 m 331 374 q 217 305 245 334 q 176 180 173 261 q 237 80 178 113 q 336 57 280 57 q 467 101 430 57 q 497 208 497 136 q 443 321 497 278 q 331 374 406 350 z "},"9":{"ha":647,"x_min":98,"x_max":562,"o":"m 397 116 q 292 49 364 88 q 182 5 213 5 q 152 20 163 5 q 140 56 140 36 q 170 102 140 87 l 244 132 q 353 206 313 164 q 427 326 393 248 l 446 370 q 381 340 420 354 q 318 326 342 326 q 172 380 234 326 q 98 568 98 446 q 174 783 98 711 q 346 844 239 844 q 492 767 428 844 q 562 570 561 685 q 519 315 562 439 q 397 116 474 183 m 334 756 q 221 711 258 756 q 183 576 184 667 q 229 459 183 501 q 331 422 269 422 q 405 448 366 422 q 469 498 422 458 q 475 570 475 543 q 428 695 474 634 q 334 756 381 756 z "}," ":{"ha":441,"x_min":0,"x_max":0,"o":""},"!":{"ha":330,"x_min":81,"x_max":225,"o":"m 224 1028 l 224 273 q 164 213 224 213 q 104 273 104 213 q 102 356 104 301 q 100 439 100 412 q 102 733 100 537 q 104 1028 104 930 q 164 1088 104 1088 q 224 1028 224 1088 m 225 16 q 206 -27 225 -9 q 162 -45 186 -45 q 108 -9 135 -45 q 81 52 81 24 q 101 94 81 76 q 145 111 120 111 q 199 76 172 111 q 225 16 225 43 z "},"\"":{"ha":589,"x_min":79,"x_max":466,"o":"m 199 757 q 203 723 199 745 q 206 690 206 701 q 188 649 206 665 q 144 632 170 632 q 79 748 79 632 q 81 882 79 793 q 83 1017 83 972 q 100 1060 83 1043 q 143 1077 117 1077 q 186 1060 170 1077 q 203 1017 203 1043 q 201 887 203 973 q 199 757 199 800 m 466 1014 q 464 983 466 1003 q 462 955 462 964 l 456 690 q 395 629 454 629 q 352 646 370 629 q 335 689 334 663 l 341 958 q 350 1034 342 1012 q 406 1074 364 1074 q 449 1057 432 1074 q 466 1014 466 1040 z "},"#":{"ha":1171,"x_min":22,"x_max":1157,"o":"m 374 391 l 713 391 l 790 673 l 459 673 l 374 391 m 248 391 l 330 673 l 149 673 q 85 741 85 673 q 185 792 85 792 l 364 792 q 418 1006 382 871 q 497 1069 437 1069 q 534 1051 519 1069 q 549 1011 549 1033 q 531 922 549 984 q 496 792 501 814 l 825 792 q 888 1011 848 874 q 955 1069 906 1069 q 1012 1016 1012 1069 q 956 792 1012 970 l 1088 792 q 1157 741 1157 792 q 1080 670 1157 670 q 1049 671 1070 670 q 1017 673 1027 673 l 918 673 l 846 391 l 985 391 q 1055 384 1034 391 q 1090 330 1090 370 q 1031 267 1090 267 l 812 267 l 751 47 q 675 -19 733 -19 q 620 35 620 -19 q 642 151 620 75 q 675 267 673 258 l 336 267 q 265 34 316 188 q 199 -14 245 -14 q 144 39 144 -14 q 160 116 144 66 q 208 267 184 192 l 78 267 q 22 334 22 267 q 45 377 22 361 q 92 391 64 391 l 248 391 z "},"$":{"ha":963,"x_min":68,"x_max":831,"o":"m 399 602 l 399 845 q 264 688 264 794 q 399 602 264 622 m 519 458 l 519 106 q 640 178 591 130 q 693 295 693 232 q 519 458 693 413 m 519 1109 l 519 995 l 522 995 q 671 972 587 995 q 780 898 780 943 q 720 838 780 838 q 624 853 692 838 q 519 867 556 867 l 519 591 q 754 492 669 577 q 831 302 831 414 q 737 77 831 166 q 519 -27 654 -2 l 519 -208 q 502 -251 519 -234 q 458 -269 485 -269 q 399 -209 399 -269 l 399 -36 q 68 136 68 -31 q 124 197 68 197 q 185 172 156 197 q 251 123 229 134 q 399 92 305 96 l 399 476 l 393 476 q 212 528 288 480 q 117 690 117 586 q 203 865 117 783 q 399 975 283 941 l 399 1105 q 417 1149 399 1132 q 461 1167 435 1167 q 519 1109 519 1167 z "},"%":{"ha":1139,"x_min":100,"x_max":1091,"o":"m 300 706 q 151 772 205 706 q 100 929 100 833 q 169 1056 100 996 q 302 1114 235 1114 q 459 1048 401 1114 q 515 886 515 985 q 446 753 515 804 q 300 706 384 706 m 837 996 q 783 888 812 955 l 735 778 l 601 490 l 449 170 q 380 16 428 117 q 330 -20 361 -20 q 289 -4 307 -20 q 271 35 271 12 q 275 58 271 45 q 382 297 309 149 q 496 534 470 471 l 680 941 q 747 1064 716 1031 q 790 1087 768 1087 q 831 1070 813 1087 q 849 1029 849 1053 q 837 996 849 1015 m 854 -13 q 701 42 762 -13 q 637 192 637 100 q 694 358 637 292 q 853 429 754 429 q 1015 377 945 429 q 1091 229 1091 319 q 1025 56 1091 125 q 854 -13 958 -13 m 300 1000 q 242 979 269 1000 q 213 929 213 957 q 235 847 213 875 q 300 820 257 820 q 367 836 337 820 q 401 886 401 855 q 376 971 401 943 q 300 1000 351 1000 m 853 315 q 777 278 804 315 q 751 192 751 244 q 781 123 751 146 q 869 100 810 100 q 950 133 924 100 q 977 229 977 165 q 935 294 977 269 q 853 315 899 315 z "},"&":{"ha":909,"x_min":51,"x_max":860,"o":"m 464 735 q 551 878 551 807 q 540 924 551 909 q 509 939 530 939 q 472 896 496 939 q 447 839 447 853 q 464 735 447 793 m 412 550 q 254 430 296 472 q 172 257 172 348 q 231 136 172 183 q 361 94 286 94 q 598 210 498 94 q 412 550 547 286 m 326 839 q 382 981 326 907 q 509 1061 443 1061 q 630 1006 586 1061 q 671 878 671 957 q 508 617 671 740 q 669 329 560 503 q 689 406 682 366 q 705 492 700 475 q 759 548 722 548 q 804 517 787 548 q 817 461 817 492 q 747 206 817 323 q 860 -5 860 28 q 841 -46 860 -29 q 797 -64 821 -64 q 745 -29 766 -64 l 667 106 q 361 -27 530 -27 q 145 51 235 -27 q 51 257 51 132 q 151 496 51 389 q 361 661 208 559 q 326 839 326 752 z "},"'":{"ha":539,"x_min":193,"x_max":320,"o":"m 313 981 q 317 920 313 960 q 320 860 320 880 q 259 773 320 773 q 205 803 217 773 q 200 867 200 819 q 196 924 200 886 q 193 981 193 962 q 198 1072 193 1048 q 258 1126 212 1126 q 301 1109 283 1126 q 319 1067 319 1093 q 316 1024 319 1053 q 313 981 313 995 z "},"(":{"ha":509,"x_min":77,"x_max":472,"o":"m 472 1026 q 430 957 472 1002 q 368 895 399 926 q 250 650 293 809 q 213 378 213 512 q 369 -127 213 34 q 432 -176 400 -151 q 471 -237 471 -207 q 454 -276 471 -260 q 413 -293 436 -293 q 364 -277 393 -293 q 77 394 77 -117 q 151 766 77 578 q 368 1070 234 976 q 411 1089 395 1089 q 454 1070 435 1089 q 472 1026 472 1050 z "},")":{"ha":509,"x_min":77,"x_max":472,"o":"m 472 394 q 184 -277 472 -117 q 136 -293 157 -293 q 96 -276 113 -293 q 78 -237 78 -260 q 117 -176 78 -207 q 180 -127 149 -151 q 336 378 336 34 q 299 650 336 512 q 181 895 256 809 q 119 957 150 926 q 77 1026 77 1002 q 95 1070 77 1050 q 138 1089 113 1089 q 181 1070 153 1089 q 398 766 315 976 q 472 394 472 578 z "},"*":{"ha":736,"x_min":32,"x_max":653,"o":"m 32 892 q 50 937 32 917 q 92 956 67 956 q 275 890 108 956 q 270 1021 270 985 q 287 1064 270 1047 q 330 1081 304 1081 q 374 1064 357 1081 q 391 1021 391 1047 q 395 906 391 983 q 595 930 558 930 q 636 912 620 930 q 653 869 653 895 q 602 810 653 821 q 435 786 555 800 q 520 694 474 750 q 581 590 581 619 q 562 548 581 566 q 518 530 543 530 q 471 554 492 530 q 336 713 430 610 q 147 555 197 555 q 104 574 123 555 q 85 618 85 593 q 107 663 85 641 q 233 780 151 699 q 71 839 178 798 q 32 892 32 856 z "},"+":{"ha":667,"x_min":33,"x_max":619,"o":"m 619 436 q 603 392 619 411 q 561 374 586 374 q 536 376 553 374 q 511 379 520 379 l 444 378 q 376 378 402 376 l 376 218 q 315 157 376 157 q 270 173 286 157 q 255 218 255 188 l 254 296 l 254 375 q 138 370 172 370 q 33 433 33 370 q 70 488 33 477 q 138 491 83 491 q 254 496 172 491 l 253 575 q 259 661 253 637 q 280 697 266 685 q 317 709 294 709 q 360 693 342 709 q 378 650 378 676 q 376 614 378 639 q 374 576 374 589 l 374 498 l 425 496 q 467 498 439 496 q 508 500 494 500 q 619 436 619 500 z "},",":{"ha":385,"x_min":101,"x_max":305,"o":"m 160 33 q 119 51 136 33 q 101 93 101 69 q 143 210 101 113 q 199 330 180 294 q 246 362 217 362 q 288 343 271 362 q 305 301 305 325 q 209 69 305 285 q 160 33 193 33 z "},"-":{"ha":578,"x_min":75,"x_max":514,"o":"m 460 322 q 132 313 368 313 q 75 366 75 313 q 132 418 75 418 q 293 423 186 418 q 454 428 400 428 q 514 375 514 428 q 460 322 514 328 z "},".":{"ha":346,"x_min":97,"x_max":265,"o":"m 181 -63 q 121 -39 146 -63 q 97 21 97 -14 q 121 80 97 56 q 181 105 146 105 q 240 80 216 105 q 265 21 265 56 q 240 -39 265 -14 q 181 -63 216 -63 z "},"/":{"ha":711,"x_min":57,"x_max":659,"o":"m 120 -61 q 76 -44 95 -61 q 57 -2 57 -27 q 62 21 57 9 q 261 441 115 167 q 461 862 408 715 q 595 1103 550 1105 q 640 1085 621 1102 q 659 1043 659 1067 q 651 1006 659 1027 l 575 821 q 446 532 530 696 l 298 251 l 175 -21 q 120 -61 157 -61 z "},":":{"ha":415,"x_min":124,"x_max":281,"o":"m 281 153 q 261 103 281 123 q 211 83 241 83 q 161 103 180 83 q 142 153 142 123 q 137 191 142 166 q 133 228 133 216 q 154 275 133 256 q 205 294 176 294 q 281 153 281 294 m 269 648 q 250 598 269 618 q 200 578 231 578 q 150 598 170 578 q 130 648 130 618 q 127 673 130 656 q 124 699 124 690 q 144 747 124 728 q 195 766 165 766 q 269 648 269 766 z "},";":{"ha":415,"x_min":55,"x_max":279,"o":"m 279 644 q 259 595 279 614 q 210 575 239 575 q 160 595 180 575 q 140 644 140 614 q 137 670 140 653 q 134 694 134 686 q 154 743 134 724 q 204 762 175 762 q 279 644 279 762 m 116 -132 q 55 -68 55 -132 q 113 62 55 -24 q 213 152 174 152 q 256 134 237 152 q 275 91 275 115 q 228 11 275 66 q 176 -74 179 -47 q 116 -132 169 -132 z "},"<":{"ha":530,"x_min":13,"x_max":425,"o":"m 202 416 q 296 330 240 389 q 386 241 361 262 q 410 195 410 220 q 392 151 410 170 q 349 132 374 132 q 311 146 330 132 q 195 258 284 165 q 64 354 127 330 q 13 410 13 373 q 60 467 13 444 q 198 576 123 497 q 323 703 303 686 q 363 720 343 720 q 407 701 388 720 q 425 657 425 682 q 405 614 425 634 q 202 416 340 545 z "},"=":{"ha":709,"x_min":67,"x_max":597,"o":"m 220 677 l 536 677 q 597 616 597 677 q 536 556 597 556 l 219 557 q 173 555 203 557 q 127 553 142 553 q 84 571 100 553 q 67 614 67 589 q 124 674 67 663 q 220 677 139 677 m 258 313 q 393 311 303 313 q 527 309 482 309 q 587 249 587 309 q 527 189 587 189 q 393 191 482 189 q 258 193 303 193 q 197 190 238 193 q 137 187 157 187 q 75 248 75 187 q 133 308 75 303 q 258 313 208 313 z "},">":{"ha":530,"x_min":39,"x_max":499,"o":"m 499 450 q 474 401 499 425 q 136 138 313 252 q 100 126 117 126 q 57 145 75 126 q 39 189 39 165 q 66 237 39 216 l 329 437 q 180 560 269 477 q 71 702 71 663 q 90 745 71 726 q 134 763 109 763 q 179 740 159 763 q 459 502 334 567 q 499 450 499 481 z "},"?":{"ha":728,"x_min":35,"x_max":652,"o":"m 252 209 q 203 230 224 209 q 182 279 182 252 q 269 394 182 326 l 431 516 q 518 654 518 591 q 444 799 518 732 q 293 863 373 863 q 184 820 250 863 q 103 776 119 776 q 55 798 75 776 q 35 848 35 821 q 139 955 35 902 q 293 1002 232 1002 q 541 896 429 1002 q 652 654 652 789 q 588 478 652 555 q 447 359 550 432 q 302 237 343 283 q 252 209 279 209 m 214 -49 q 160 -29 184 -49 q 136 20 136 -9 q 159 96 136 62 q 223 134 184 134 q 288 54 288 134 q 271 -14 288 16 q 214 -49 249 -49 z "},"@":{"ha":1269,"x_min":68,"x_max":1223,"o":"m 709 187 q 522 85 621 85 q 332 215 395 85 q 300 359 300 281 q 348 551 300 454 q 473 701 397 650 q 617 749 547 749 q 802 637 732 749 l 822 731 l 931 731 l 844 322 q 825 227 825 237 q 868 187 825 187 q 953 224 900 187 q 1063 355 1023 274 q 1103 524 1103 437 q 1048 720 1103 633 q 896 857 994 806 q 667 909 792 909 q 408 844 524 909 q 223 651 288 776 q 158 383 158 526 q 411 -34 158 73 q 684 -85 534 -85 q 1114 99 985 -85 l 1223 99 q 1102 -44 1186 22 q 937 -137 1026 -104 q 686 -176 833 -176 q 241 -36 401 -176 q 68 374 68 114 q 129 658 68 522 q 673 999 283 999 q 1135 752 996 999 q 1194 523 1194 647 q 1069 208 1194 346 q 827 85 958 85 q 720 134 746 85 q 709 187 712 150 m 413 353 q 444 235 413 285 q 544 176 480 176 q 688 257 618 176 q 766 484 766 349 q 732 604 766 555 q 625 658 694 658 q 485 574 546 658 q 413 353 413 477 z "},"A":{"ha":1016,"x_min":89,"x_max":917,"o":"m 848 -20 q 739 140 785 -20 q 695 353 722 201 q 514 319 626 344 l 334 282 q 218 22 300 193 q 159 -16 196 -16 q 110 4 132 -16 q 89 53 89 24 q 191 300 89 85 q 180 341 180 318 q 246 412 180 396 q 441 745 323 557 q 642 1002 602 1002 q 715 928 695 1002 l 758 700 l 859 229 l 897 121 q 917 48 917 66 q 896 -1 917 19 q 848 -20 875 -20 m 608 755 l 414 442 q 663 493 496 463 l 608 755 z "},"B":{"ha":876,"x_min":130,"x_max":819,"o":"m 601 27 q 211 -33 448 -33 q 156 -5 182 -33 q 130 52 130 22 l 130 249 q 142 526 130 346 q 157 806 155 720 q 164 992 156 869 q 186 1037 169 1026 q 396 1065 279 1065 q 625 984 515 1065 q 752 753 752 890 q 616 478 752 578 q 769 382 718 435 q 819 267 819 329 q 730 108 819 184 q 601 27 669 54 m 396 927 q 292 922 322 927 l 291 804 l 277 541 q 380 534 374 533 q 548 597 483 542 q 618 753 618 658 q 547 872 618 817 q 396 927 475 927 m 472 384 l 400 395 q 373 394 391 395 q 346 393 355 393 q 268 399 309 393 q 264 247 264 314 l 264 106 q 553 157 441 113 q 644 214 601 175 q 686 267 686 249 q 599 338 686 298 q 472 384 534 369 z "},"C":{"ha":837,"x_min":61,"x_max":816,"o":"m 749 761 q 684 812 705 761 q 648 865 665 855 q 578 872 634 872 q 359 722 479 872 q 197 338 197 519 q 253 188 197 251 q 392 123 311 123 q 532 159 462 123 q 653 239 572 179 q 711 267 692 267 q 760 245 741 267 q 780 196 780 223 q 754 142 780 165 q 392 -16 575 -16 q 155 92 252 -16 q 61 338 61 196 q 254 810 61 568 q 578 1011 414 1011 q 637 1008 611 1011 q 684 998 664 1005 q 746 1033 708 1033 q 805 971 793 1033 q 816 836 816 916 q 801 787 816 808 q 749 761 783 761 z "},"D":{"ha":1002,"x_min":124,"x_max":933,"o":"m 730 5 q 428 -67 625 -67 q 315 -52 378 -67 q 199 -4 238 -33 l 193 -4 q 144 16 163 -4 q 124 66 124 37 q 131 279 124 137 q 137 492 137 421 q 134 729 137 572 q 131 966 131 887 q 159 1025 131 994 q 216 1055 188 1055 q 325 1010 233 1055 q 446 954 429 959 q 774 751 638 888 q 933 398 933 591 q 879 176 933 282 q 730 5 824 69 m 587 722 q 268 878 518 768 l 271 683 l 273 488 l 262 118 q 277 109 267 116 q 427 69 336 69 q 652 117 582 69 q 757 237 718 161 q 796 395 796 313 q 587 722 796 586 z "},"E":{"ha":867,"x_min":95,"x_max":823,"o":"m 756 913 q 735 916 747 913 q 514 949 621 949 q 393 939 458 949 q 251 907 327 928 q 257 837 257 863 q 245 578 257 743 l 543 606 q 703 620 673 620 q 753 601 733 620 q 774 550 774 582 q 711 481 774 488 l 550 467 l 237 438 q 232 347 234 390 q 231 267 231 304 q 252 90 231 117 q 359 71 269 71 q 485 74 401 71 q 612 76 570 76 q 652 80 626 76 q 692 85 679 85 q 764 14 764 85 q 706 -54 764 -43 q 430 -67 642 -67 q 160 -12 220 -67 q 95 267 95 49 q 97 361 95 310 q 102 473 99 413 q 95 506 95 488 q 108 547 95 529 q 121 837 121 743 q 115 910 121 862 q 108 984 108 959 q 176 1065 108 1065 q 224 1045 204 1065 q 378 1078 306 1067 q 514 1088 450 1088 q 777 1049 679 1088 q 823 984 823 1031 q 805 936 823 957 q 756 913 785 913 z "},"F":{"ha":843,"x_min":117,"x_max":817,"o":"m 750 891 q 724 897 738 891 q 502 928 640 928 q 397 921 457 928 q 262 901 337 915 l 261 608 q 458 643 392 643 q 674 631 562 643 q 738 562 738 624 q 718 511 738 531 q 669 491 699 491 q 564 497 634 491 q 458 503 493 503 q 258 464 412 503 l 252 -3 q 233 -52 252 -32 q 185 -72 214 -72 q 137 -52 156 -72 q 117 -3 117 -32 q 122 398 117 131 q 127 800 127 666 q 126 889 127 829 q 125 979 125 949 q 144 1029 125 1009 q 193 1050 163 1050 q 233 1038 215 1050 q 384 1060 317 1053 q 502 1067 451 1067 q 680 1044 580 1067 q 817 963 817 1013 q 799 915 817 936 q 750 891 779 891 z "},"G":{"ha":944,"x_min":54,"x_max":919,"o":"m 882 410 q 705 78 840 202 q 387 -47 570 -47 q 137 46 220 -47 q 54 326 54 140 q 137 688 54 502 q 350 989 220 874 q 534 1065 437 1065 q 696 1025 595 1065 q 820 917 820 976 q 800 867 820 889 q 751 846 779 846 q 709 863 736 846 q 534 926 605 926 q 427 873 483 926 q 347 777 399 846 q 191 326 191 569 q 230 148 191 199 q 387 92 273 92 q 598 169 509 92 q 730 401 692 250 q 408 329 542 392 q 377 321 392 321 q 328 345 347 321 q 309 393 309 366 q 345 453 309 431 q 850 543 492 543 q 899 523 880 543 q 919 473 919 503 q 882 410 919 429 z "},"H":{"ha":1067,"x_min":103,"x_max":994,"o":"m 987 956 q 977 872 977 927 q 979 812 977 852 q 980 751 980 772 q 968 549 980 684 q 956 347 956 415 q 964 193 956 296 q 971 37 971 90 q 952 -9 971 9 q 906 -28 934 -28 q 860 -9 879 -28 q 841 37 841 9 q 833 193 841 90 q 826 347 826 296 q 829 448 826 397 q 543 413 713 446 l 258 357 q 245 184 258 296 q 233 10 233 72 q 215 -37 233 -18 q 168 -56 196 -56 q 122 -37 140 -56 q 103 10 103 -18 q 115 225 103 82 q 127 439 127 368 q 124 552 127 477 q 121 665 121 627 q 128 826 121 719 q 135 987 135 934 q 154 1035 135 1016 q 200 1054 172 1054 q 247 1035 228 1054 q 265 987 265 1016 q 258 825 265 933 q 251 663 251 717 l 255 491 l 546 546 q 840 580 720 578 q 847 872 847 677 q 864 977 847 924 q 927 1049 886 1049 q 973 1030 953 1049 q 994 983 994 1012 q 987 956 994 973 z "},"I":{"ha":759,"x_min":51,"x_max":719,"o":"m 649 845 q 540 854 606 845 l 431 868 q 415 491 415 671 q 418 374 415 444 q 420 256 420 304 q 416 140 420 193 l 629 143 q 677 123 658 143 q 696 74 696 103 q 677 24 696 44 q 629 4 658 4 q 515 2 591 4 q 401 1 439 1 q 268 -12 357 1 q 133 -24 178 -24 q 85 -4 104 -24 q 66 45 66 16 q 85 94 66 74 q 133 115 104 115 q 279 129 177 115 q 286 254 286 184 q 281 369 286 301 q 277 482 277 436 q 296 873 277 639 l 208 871 l 119 869 q 71 888 90 869 q 51 939 51 908 q 115 1008 51 1002 q 320 1013 170 1013 q 659 984 455 1013 q 719 911 719 975 q 696 861 719 880 q 649 845 675 845 z "},"J":{"ha":924,"x_min":64,"x_max":879,"o":"m 812 878 q 770 883 800 878 q 724 888 741 888 q 646 886 691 888 l 650 805 q 583 71 650 300 q 426 -81 538 -81 q 192 4 308 -81 q 64 222 64 99 q 132 305 64 305 q 201 223 201 305 q 281 111 201 167 q 426 58 357 58 q 503 399 481 58 q 513 805 513 561 q 510 878 513 824 l 469 878 q 389 879 442 878 q 309 881 336 881 q 258 900 279 881 q 238 951 238 919 q 332 1021 238 1021 q 401 1019 355 1021 q 469 1017 446 1017 q 596 1022 511 1017 q 724 1027 682 1027 q 879 949 879 1027 q 861 901 879 922 q 812 878 841 878 z "},"K":{"ha":848,"x_min":145,"x_max":843,"o":"m 782 -28 q 488 153 679 -28 l 286 357 l 286 348 l 285 -7 q 226 -75 285 -75 q 164 -41 187 -75 q 145 20 145 -13 q 155 494 145 178 q 164 968 164 810 q 183 1018 164 998 q 231 1038 203 1038 q 280 1018 260 1038 q 299 968 299 998 q 291 764 299 903 q 283 558 283 629 q 489 774 374 644 l 684 1000 q 735 1027 707 1027 q 783 1006 762 1027 q 804 957 804 986 q 629 718 804 912 q 380 459 509 586 q 635 214 461 374 l 706 154 q 789 109 745 124 q 843 42 843 92 q 829 -2 843 19 q 782 -28 811 -28 z "},"L":{"ha":765,"x_min":68,"x_max":739,"o":"m 695 28 q 454 -37 618 -8 q 208 -63 303 -63 q 109 -42 139 -63 q 68 62 68 -14 l 82 287 q 100 976 100 597 q 119 1025 100 1005 q 167 1046 138 1046 q 215 1025 196 1046 q 235 976 235 1005 q 216 279 235 593 l 208 176 q 203 76 202 119 q 651 159 380 74 q 673 163 663 163 q 722 140 702 163 q 739 92 739 119 q 695 28 739 48 z "},"M":{"ha":1226,"x_min":76,"x_max":1174,"o":"m 1102 -56 q 1042 -18 1065 -56 q 1005 90 1021 14 l 981 207 q 892 686 953 315 l 757 277 l 717 148 q 666 22 692 71 q 589 -29 637 -29 q 526 14 549 -29 q 499 87 511 43 l 479 162 q 359 675 411 401 l 334 553 l 247 195 q 213 9 241 132 q 146 -44 193 -44 q 93 -20 113 -44 q 76 30 76 0 q 123 308 76 143 l 197 581 l 237 795 q 300 991 267 945 q 367 1030 327 1030 q 433 980 411 1030 q 490 734 459 920 q 602 251 526 511 q 775 795 702 512 l 795 894 q 827 990 808 954 q 900 1040 854 1040 q 989 928 958 1040 q 1015 768 1000 889 q 1115 244 1055 461 l 1148 127 q 1174 12 1174 34 q 1152 -37 1174 -17 q 1102 -56 1130 -56 z "},"N":{"ha":1107,"x_min":83,"x_max":1049,"o":"m 1045 151 q 1034 42 1045 118 q 962 -26 1023 -26 q 873 22 924 -26 q 239 776 597 283 l 236 622 l 234 467 q 236 298 234 411 q 239 129 239 186 q 168 -54 239 -54 q 109 -30 131 -54 q 90 20 90 -9 q 94 106 90 49 q 98 193 98 164 q 101 318 98 235 q 104 444 104 402 q 102 579 104 489 q 100 715 100 670 q 92 842 100 758 q 83 969 83 926 q 110 1026 83 1000 q 171 1052 137 1052 q 260 973 207 1052 q 564 553 429 720 q 916 173 724 354 q 916 259 918 202 l 914 345 q 891 819 914 642 q 873 890 888 836 q 859 962 859 936 q 931 1040 859 1040 q 1049 600 1049 1040 q 1047 375 1049 525 q 1045 151 1045 226 z "},"O":{"ha":1109,"x_min":79,"x_max":1050,"o":"m 544 -41 q 220 73 353 -41 q 79 388 79 195 q 218 814 79 623 q 605 1027 373 1027 q 937 927 828 1027 q 1050 597 1050 823 q 922 174 1050 363 q 544 -41 776 -41 m 605 888 q 323 723 439 888 q 217 388 217 571 q 314 175 217 257 q 544 98 407 98 q 816 264 709 98 q 911 597 911 412 q 839 825 911 760 q 605 888 770 888 z "},"P":{"ha":723,"x_min":68,"x_max":682,"o":"m 280 398 q 197 407 261 398 q 192 48 192 304 q 174 2 192 21 q 130 -16 157 -16 q 85 2 103 -16 q 68 48 68 21 l 68 248 q 80 528 68 347 q 95 809 94 724 l 95 903 q 103 1000 95 970 q 170 1052 119 1060 q 231 1062 191 1059 q 330 1065 271 1065 q 562 981 454 1065 q 682 755 682 887 q 554 488 682 587 q 280 398 440 398 m 314 937 q 261 935 284 937 q 221 931 237 934 l 220 806 l 205 536 l 280 528 q 472 585 394 528 q 557 755 557 648 q 476 886 557 831 q 314 937 401 937 z "},"Q":{"ha":1217,"x_min":52,"x_max":1187,"o":"m 1116 -297 q 956 -181 1086 -297 l 793 -33 q 566 -79 679 -79 q 207 84 362 -79 q 52 452 52 247 q 233 863 52 694 q 650 1027 409 1027 q 1034 838 903 1027 q 1145 416 1145 675 q 926 39 1145 192 l 1074 -98 l 1161 -172 q 1187 -225 1187 -197 q 1166 -275 1187 -253 q 1116 -297 1145 -297 m 650 887 q 330 763 464 887 q 191 452 191 635 q 306 184 191 304 q 566 62 421 62 q 663 73 613 62 q 532 253 532 187 q 554 302 532 283 q 603 322 576 322 q 661 290 635 322 q 812 133 728 202 q 1006 416 1006 245 q 924 743 1006 618 q 650 887 830 887 z "},"R":{"ha":873,"x_min":79,"x_max":833,"o":"m 764 -7 q 715 14 738 -7 q 216 313 491 236 l 222 180 l 225 46 q 206 -4 225 16 q 157 -24 186 -24 q 109 -4 128 -24 q 90 46 90 16 q 84 206 90 100 q 79 366 79 312 q 93 551 79 428 q 106 736 106 675 q 100 839 106 771 q 94 941 94 907 q 115 1009 94 980 q 186 1042 141 1045 l 350 1029 q 507 983 443 1017 q 781 627 781 838 q 688 445 781 524 q 500 348 612 381 q 815 109 711 235 q 833 63 833 87 q 812 14 833 35 q 764 -7 791 -7 m 332 889 l 231 897 l 238 815 q 243 733 243 765 q 234 598 243 679 l 220 463 q 249 463 229 463 q 279 462 269 462 q 538 508 452 462 q 609 563 576 529 q 645 627 645 601 q 538 803 645 722 q 332 889 439 878 z "},"S":{"ha":963,"x_min":90,"x_max":896,"o":"m 91 169 q 110 215 90 197 q 159 233 130 233 q 218 195 193 233 q 279 125 252 144 q 447 87 337 87 q 642 133 552 87 q 758 295 758 191 q 661 430 758 380 q 458 476 578 473 q 275 523 351 480 q 179 680 179 578 q 316 901 179 801 q 587 995 447 995 q 735 972 652 995 q 845 898 845 943 q 784 838 845 838 q 689 853 757 838 q 584 867 621 867 q 404 814 478 865 q 328 688 328 762 q 429 608 328 631 q 573 592 466 600 q 816 494 728 581 q 896 302 896 416 q 747 45 896 141 q 446 -39 617 -39 q 219 9 322 -39 q 91 169 93 67 z "},"T":{"ha":944,"x_min":79,"x_max":992,"o":"m 924 857 q 769 865 873 857 q 614 871 667 872 l 566 871 q 585 568 568 778 q 600 263 600 372 q 604 191 600 239 q 609 119 609 143 q 594 39 609 73 q 535 -5 575 -5 q 486 14 508 -5 q 465 62 465 33 q 468 93 465 73 q 471 123 471 113 q 467 223 471 157 q 463 323 463 290 q 447 596 463 420 q 429 869 431 786 l 367 868 q 134 890 218 868 q 79 957 79 904 q 96 1006 79 985 q 149 1027 117 1029 q 257 1015 172 1026 q 367 1007 325 1007 q 490 1009 408 1007 q 614 1010 573 1010 q 769 1003 666 1010 q 924 996 871 996 q 972 976 953 996 q 992 926 992 956 q 972 877 992 897 q 924 857 953 857 z "},"U":{"ha":1023,"x_min":105,"x_max":942,"o":"m 536 -27 q 221 94 325 -27 q 115 383 137 192 q 105 727 105 469 q 109 880 105 822 q 121 966 113 942 q 182 1016 138 1016 q 245 901 245 1016 l 245 503 q 532 92 245 92 q 803 784 803 92 q 803 850 803 810 q 802 905 802 891 q 817 979 802 947 q 873 1019 836 1019 q 941 926 941 1019 q 942 842 941 899 q 942 758 942 786 q 536 -27 942 -27 z "},"V":{"ha":903,"x_min":98,"x_max":899,"o":"m 886 930 q 817 798 844 867 l 766 649 l 583 156 q 509 -14 551 69 q 448 -54 487 -54 q 374 -1 395 -54 q 192 592 292 205 l 138 779 q 98 963 98 920 q 120 1013 98 994 q 168 1031 140 1031 q 234 976 219 1031 l 259 858 l 324 627 q 451 193 389 375 l 455 203 l 637 696 l 694 862 q 777 1014 733 962 q 829 1041 799 1041 q 878 1020 857 1041 q 899 970 899 1000 q 886 930 899 950 z "},"W":{"ha":1444,"x_min":94,"x_max":1421,"o":"m 965 -65 q 910 -47 934 -65 q 883 3 883 -27 q 844 136 852 85 q 790 429 836 188 q 744 722 755 611 q 614 342 684 498 q 511 61 534 163 q 519 31 519 45 q 492 -20 519 0 q 436 -38 467 -38 q 345 44 345 -38 l 323 130 l 250 463 q 99 945 205 631 q 94 972 94 960 q 165 1035 94 1035 q 233 987 210 1035 q 283 846 245 962 q 363 551 323 724 l 429 251 q 573 661 501 419 q 640 865 617 808 q 759 1015 701 1015 q 826 966 806 1015 q 876 688 850 908 q 922 421 889 577 l 980 155 q 1207 745 1071 373 q 1241 873 1215 766 q 1289 997 1261 953 q 1353 1034 1314 1034 q 1421 966 1421 1034 q 1400 899 1421 955 l 1373 825 l 1335 705 l 1134 215 q 1038 -20 1106 134 q 965 -65 1014 -65 z "},"X":{"ha":1005,"x_min":46,"x_max":954,"o":"m 935 915 q 795 734 844 805 l 711 609 q 618 490 661 538 l 767 272 q 925 60 856 142 q 943 14 943 38 q 923 -36 943 -15 q 873 -57 902 -57 q 825 -36 848 -57 q 721 93 775 12 l 630 233 l 524 385 l 290 115 l 165 -24 q 116 -47 143 -47 q 67 -26 88 -47 q 46 24 46 -5 q 64 70 46 48 l 186 206 l 440 501 q 281 701 366 601 l 203 808 q 115 905 155 871 q 86 960 86 929 q 106 1010 86 988 q 155 1031 125 1031 q 302 909 212 1031 q 387 791 330 867 q 534 606 464 699 l 688 822 q 884 1031 839 1031 q 932 1010 911 1031 q 954 961 954 989 q 935 915 954 937 z "},"Y":{"ha":882,"x_min":20,"x_max":831,"o":"m 795 867 q 751 788 779 842 l 635 500 q 507 216 567 338 l 422 65 l 387 -8 q 326 -47 364 -47 q 278 -28 300 -47 q 256 21 256 -8 q 320 165 256 44 l 404 318 q 246 565 282 475 q 144 749 216 642 q 30 926 47 895 q 20 962 20 944 q 41 1011 20 991 q 90 1031 62 1031 q 145 1000 123 1031 l 199 916 q 294 770 271 809 q 374 616 345 687 q 469 462 396 559 l 625 840 q 698 985 651 887 q 761 1031 717 1031 q 809 1012 788 1031 q 831 963 831 993 q 795 867 831 932 z "},"Z":{"ha":963,"x_min":46,"x_max":937,"o":"m 859 848 l 767 786 q 488 480 644 690 l 250 134 q 216 86 233 108 l 480 96 q 745 104 653 104 q 877 96 834 104 q 934 41 932 85 q 912 -12 935 7 q 861 -29 892 -29 q 802 -27 842 -29 q 743 -24 763 -24 q 434 -30 640 -24 q 124 -35 227 -35 q 46 34 46 -35 q 88 146 46 79 l 161 248 l 406 588 q 687 899 557 788 l 450 885 l 176 885 q 154 884 168 885 q 132 883 139 883 q 60 953 60 883 q 97 1014 60 999 q 171 1023 119 1023 q 310 1014 218 1023 q 450 1004 403 1004 q 606 1010 502 1004 q 763 1017 710 1017 q 937 951 937 1017 q 859 848 937 907 z "},"[":{"ha":523,"x_min":119,"x_max":476,"o":"m 298 -279 q 253 -281 283 -279 q 207 -283 222 -283 q 119 -203 119 -283 q 129 274 119 -79 q 139 751 139 627 l 128 956 l 127 966 q 143 1011 126 991 q 188 1031 161 1031 q 249 1029 208 1031 q 311 1027 290 1027 q 349 1029 323 1027 q 387 1031 374 1031 q 450 965 450 1031 q 393 899 450 905 q 255 897 336 894 q 259 760 259 836 l 250 304 l 239 -150 l 298 -148 q 358 -150 318 -148 q 417 -151 397 -151 q 460 -171 444 -151 q 476 -217 476 -190 q 460 -263 476 -244 q 417 -283 444 -283 q 358 -281 397 -283 q 298 -279 318 -279 z "},"\\":{"ha":764,"x_min":120,"x_max":688,"o":"m 624 -96 q 570 -61 590 -96 q 490 109 544 -18 l 293 614 q 131 932 250 716 q 120 968 120 951 q 140 1014 120 994 q 186 1034 160 1034 q 237 1002 216 1034 q 405 671 315 886 l 544 322 q 680 1 616 138 q 688 -31 688 -16 q 669 -76 688 -57 q 624 -96 650 -96 z "},"]":{"ha":523,"x_min":119,"x_max":476,"o":"m 297 -279 q 343 -281 313 -279 q 389 -283 374 -283 q 476 -203 476 -283 q 466 274 476 -79 q 456 751 456 627 l 467 956 l 468 966 q 452 1011 469 991 q 408 1031 435 1031 q 346 1029 387 1031 q 285 1027 305 1027 q 247 1029 272 1027 q 208 1031 221 1031 q 146 965 146 1031 q 203 899 146 905 q 341 897 260 894 q 336 760 336 836 l 345 304 l 356 -150 l 297 -148 q 238 -150 277 -148 q 178 -151 198 -151 q 136 -171 152 -151 q 119 -217 119 -190 q 136 -263 119 -244 q 178 -283 152 -283 q 238 -281 198 -283 q 297 -279 277 -279 z "},"^":{"ha":807,"x_min":134,"x_max":692,"o":"m 403 1116 q 492 1070 440 1116 q 567 995 509 1056 l 674 880 q 692 838 692 859 q 673 794 692 813 q 630 776 654 776 q 587 795 608 776 q 417 972 533 857 q 196 761 245 761 q 153 780 172 761 q 134 823 134 799 q 155 867 134 847 q 361 1095 193 903 q 403 1116 380 1116 z "},"_":{"ha":871,"x_min":-24,"x_max":897,"o":"m 660 -234 q 515 -231 612 -234 q 371 -227 419 -227 l 69 -227 q 22 -231 54 -227 q -24 -234 -9 -234 l -24 -109 q 180 -107 44 -109 q 383 -106 315 -106 q 527 -110 431 -106 q 670 -114 622 -114 l 897 -109 l 897 -234 l 660 -234 z "},"`":{"ha":772,"x_min":101,"x_max":391,"o":"m 391 859 q 372 817 391 835 q 328 799 353 799 q 279 827 299 799 l 212 928 q 127 1015 176 978 q 101 1063 101 1036 q 119 1107 101 1088 q 161 1126 137 1126 q 298 1014 203 1126 q 391 859 391 903 z "},"a":{"ha":711,"x_min":35,"x_max":687,"o":"m 624 -45 q 577 -15 611 -45 q 532 35 547 13 q 417 -19 467 -1 q 334 -37 368 -37 q 103 53 176 -37 q 35 311 35 137 q 148 591 35 475 q 417 708 260 708 q 549 677 476 708 q 642 586 642 640 q 628 553 642 568 q 617 469 621 528 q 613 317 614 410 q 625 184 612 233 q 667 65 631 155 q 683 29 672 53 l 687 18 q 668 -27 687 -9 q 624 -45 649 -45 m 483 427 q 487 490 483 456 q 498 563 490 524 q 455 582 473 576 q 426 588 437 588 q 244 502 321 588 q 168 304 168 416 q 208 138 168 193 q 326 82 247 82 q 436 106 391 82 q 505 157 460 119 q 483 427 483 337 z "},"b":{"ha":824,"x_min":104,"x_max":759,"o":"m 411 -28 q 222 12 307 -28 q 170 -20 201 -20 q 126 -2 144 -20 q 108 43 108 16 q 110 95 108 60 q 111 147 111 130 q 107 362 111 219 q 104 578 104 506 q 104 765 104 627 q 105 954 105 903 q 122 1027 105 994 q 184 1068 144 1068 q 235 1009 235 1068 q 231 981 235 1000 q 228 954 228 963 l 226 805 l 224 632 q 337 692 283 672 q 437 712 390 712 q 673 600 583 712 q 759 342 759 495 q 659 79 759 187 q 411 -28 559 -28 m 437 584 q 323 553 381 584 q 225 486 294 537 l 224 368 l 224 262 l 225 151 q 317 113 258 136 q 411 100 359 100 q 572 170 509 100 q 635 342 635 239 q 585 511 635 443 q 437 584 530 584 z "},"c":{"ha":713,"x_min":71,"x_max":657,"o":"m 401 -43 q 169 41 262 -43 q 71 274 71 130 q 163 558 71 412 q 392 721 264 721 q 541 690 458 721 q 644 592 644 650 q 627 546 644 566 q 585 526 610 526 q 551 538 566 526 q 523 562 536 550 q 392 593 483 593 q 255 470 323 593 q 193 274 193 357 q 254 133 193 184 q 401 85 311 85 q 488 106 441 85 l 566 149 q 595 159 587 159 q 639 139 621 159 q 657 94 657 119 q 553 -2 657 44 q 401 -43 461 -43 z "},"d":{"ha":816,"x_min":70,"x_max":746,"o":"m 719 599 q 711 399 711 499 q 732 58 711 174 q 733 43 733 49 q 714 -2 733 16 q 670 -20 695 -20 q 608 41 628 -20 q 507 -13 559 5 q 397 -31 454 -31 q 165 62 257 -31 q 70 308 70 158 q 166 598 70 489 q 415 707 262 707 q 536 683 494 707 l 600 636 q 623 1021 610 922 q 684 1081 631 1081 q 746 1015 746 1081 q 719 599 746 921 m 418 581 q 247 514 304 581 q 190 311 190 446 q 252 160 190 223 q 397 97 314 97 q 494 118 454 97 q 569 174 517 130 q 589 195 579 183 l 587 313 l 587 391 l 589 471 q 520 554 563 526 q 418 581 477 581 z "},"e":{"ha":761,"x_min":59,"x_max":734,"o":"m 411 -31 q 163 45 258 -31 q 59 283 59 130 q 144 578 59 459 q 393 709 237 709 q 576 671 505 709 q 664 527 664 624 q 587 404 664 459 q 444 328 553 379 l 184 205 q 279 120 222 149 q 411 92 336 92 q 521 109 458 92 q 624 168 601 132 q 673 204 647 204 q 716 186 697 204 q 734 144 734 168 q 613 15 734 69 q 411 -31 509 -31 m 393 587 q 255 523 310 587 q 173 330 200 458 l 381 429 q 556 532 504 488 q 393 587 498 587 z "},"f":{"ha":706,"x_min":51,"x_max":638,"o":"m 550 954 q 366 726 386 954 l 364 684 q 513 692 479 692 q 621 624 621 692 q 568 565 621 574 q 514 562 545 561 q 358 553 484 563 l 353 398 q 355 272 353 356 q 358 146 358 188 q 343 -54 358 18 q 280 -109 332 -109 q 233 -91 252 -109 q 213 -45 213 -73 q 214 -32 213 -40 q 229 160 229 56 l 227 345 l 227 542 q 119 535 142 535 q 51 601 51 535 q 170 671 51 668 l 235 673 q 245 777 237 711 q 321 998 262 927 q 541 1084 391 1084 q 638 1019 638 1084 q 550 954 638 954 z "},"g":{"ha":737,"x_min":39,"x_max":685,"o":"m 652 292 l 637 64 q 609 -157 633 -71 q 511 -319 578 -267 q 276 -382 430 -382 q 125 -370 186 -382 q 39 -300 39 -353 q 98 -239 39 -239 q 180 -251 123 -239 q 306 -262 237 -263 q 486 -136 436 -260 q 520 119 518 -53 q 433 17 484 51 q 317 -17 382 -17 q 118 67 195 -17 q 41 284 41 151 q 146 579 41 467 q 441 694 254 694 q 547 678 505 694 q 612 629 590 662 q 685 549 685 627 q 671 420 685 500 q 652 292 655 326 m 435 586 q 235 497 306 586 q 172 294 172 417 q 210 146 172 195 q 321 96 247 96 q 454 174 390 96 q 521 315 513 245 q 551 545 535 388 q 495 576 524 566 q 435 586 466 586 z "},"h":{"ha":802,"x_min":98,"x_max":731,"o":"m 662 -42 q 599 9 614 -42 q 570 168 583 65 q 558 329 558 266 q 560 382 558 347 q 562 436 562 418 q 498 564 562 564 q 344 486 412 564 q 249 333 309 446 q 227 27 249 75 q 168 -15 208 -15 q 119 4 140 -15 q 98 50 98 23 q 104 80 98 60 q 112 179 110 97 l 114 279 l 116 778 q 121 891 121 862 q 114 957 121 926 q 108 1021 108 987 q 127 1068 108 1049 q 176 1086 147 1086 q 241 1027 231 1086 q 252 908 252 961 q 247 760 252 837 q 243 611 243 686 l 244 551 q 363 663 300 626 q 498 700 427 700 q 652 627 610 700 q 686 453 682 575 l 692 323 l 705 182 q 728 43 715 103 q 731 23 731 31 q 711 -23 731 -5 q 662 -42 690 -42 z "},"i":{"ha":389,"x_min":121,"x_max":303,"o":"m 224 859 q 168 882 191 859 q 144 937 144 905 q 168 993 144 970 q 224 1016 191 1016 q 280 993 256 1016 q 303 937 303 970 q 280 882 303 905 q 224 859 256 859 m 254 308 q 257 186 254 267 q 259 64 259 105 q 241 16 259 35 q 193 -3 222 -3 q 145 16 163 -3 q 126 64 126 35 q 124 186 126 105 q 121 308 121 267 q 128 467 121 372 q 135 626 135 562 q 154 675 135 656 q 201 694 172 694 q 249 675 231 694 q 268 626 268 656 q 261 467 268 562 q 254 308 254 372 z "},"j":{"ha":560,"x_min":-12,"x_max":445,"o":"m 317 858 q 261 881 284 858 q 237 936 237 904 q 261 991 237 968 q 317 1015 284 1015 q 373 991 349 1015 q 397 936 397 968 q 373 881 397 904 q 317 858 349 858 m 311 -157 q 288 249 312 -78 l 265 623 q 284 683 265 656 q 334 709 304 709 q 380 692 357 709 q 404 658 403 675 l 427 267 l 445 -151 q 389 -321 445 -245 q 240 -405 328 -405 q -4 -180 94 -405 q -12 -148 -12 -162 q 9 -101 -12 -121 q 58 -81 31 -81 q 141 -170 98 -81 q 179 -236 152 -193 q 240 -270 205 -270 q 291 -225 270 -270 q 311 -157 307 -191 z "},"k":{"ha":750,"x_min":111,"x_max":730,"o":"m 659 -28 q 602 12 622 -28 q 495 174 566 80 l 375 337 q 253 250 336 306 q 245 45 245 144 q 227 -5 245 14 q 179 -24 208 -24 q 111 68 111 -24 q 118 237 111 125 q 126 406 126 349 q 129 641 126 509 q 132 876 132 774 q 129 947 132 906 q 126 1019 126 989 q 145 1069 126 1050 q 193 1088 163 1088 q 240 1069 222 1088 q 259 1019 259 1050 q 262 946 259 988 q 266 872 266 903 l 261 654 q 259 418 258 536 q 437 572 351 488 l 586 726 q 634 749 608 749 q 682 728 661 749 q 703 680 703 707 q 684 634 703 656 q 478 425 600 536 l 626 223 q 730 39 730 81 q 708 -8 730 12 q 659 -28 687 -28 z "},"l":{"ha":380,"x_min":118,"x_max":273,"o":"m 267 533 l 256 196 q 251 39 256 142 q 184 -29 244 -29 q 118 40 118 -29 q 125 287 118 122 q 133 533 133 451 q 136 778 133 640 q 140 1023 140 916 q 206 1091 140 1091 q 273 1023 273 1091 q 270 778 273 916 q 267 533 267 640 z "},"m":{"ha":1079,"x_min":82,"x_max":1025,"o":"m 956 -56 q 890 3 900 -56 q 866 213 878 77 l 843 423 q 820 515 836 470 q 770 576 797 576 q 676 533 745 576 q 591 470 611 494 q 594 342 590 406 l 614 161 q 627 -16 627 54 q 609 -65 627 -45 q 561 -84 590 -84 q 513 -65 532 -84 q 494 -16 494 -45 q 478 227 494 66 q 461 469 461 387 q 441 581 461 541 q 345 511 393 559 l 264 421 q 230 378 254 405 q 222 258 230 338 q 215 141 215 179 q 221 84 215 121 q 228 31 228 47 q 207 -16 228 3 q 159 -35 186 -35 q 82 140 82 -35 q 90 261 82 180 q 97 382 97 342 q 91 490 97 418 q 84 599 84 562 q 153 753 84 753 q 202 730 180 753 q 224 680 224 707 q 220 640 224 667 q 217 598 217 612 l 218 527 q 322 658 254 600 q 439 717 391 717 q 585 611 545 717 q 674 685 623 661 q 792 710 726 710 q 947 588 905 710 q 975 397 955 564 q 1023 9 994 281 q 1005 -37 1025 -18 q 956 -56 985 -56 z "},"n":{"ha":727,"x_min":84,"x_max":682,"o":"m 614 -48 q 549 16 556 -48 l 530 164 q 520 313 520 243 q 523 377 520 332 q 525 441 525 422 q 471 588 525 588 q 326 498 395 588 q 228 290 263 416 q 222 224 227 264 q 218 158 218 190 q 222 97 218 138 q 226 36 226 56 q 207 -14 226 5 q 159 -33 189 -33 q 111 -14 130 -33 q 93 36 93 5 q 89 97 93 56 q 84 158 84 138 q 94 352 84 228 q 104 545 104 475 q 101 610 104 567 q 99 674 99 652 q 118 722 99 703 q 166 741 138 741 q 235 652 229 741 l 237 573 q 471 725 351 725 q 622 629 579 725 q 654 441 651 566 l 654 372 l 653 309 q 668 164 653 253 q 682 19 682 75 q 663 -30 682 -11 q 614 -48 644 -48 z "},"o":{"ha":730,"x_min":52,"x_max":659,"o":"m 349 -40 q 153 44 235 -40 q 56 296 61 138 q 134 566 52 449 q 398 703 229 703 q 604 579 534 703 q 657 338 659 479 q 578 81 655 187 q 349 -40 492 -40 m 389 566 q 234 471 290 566 q 190 296 190 394 q 243 142 190 197 q 349 97 288 97 q 470 149 419 97 q 531 302 528 205 q 389 566 541 565 z "},"p":{"ha":743,"x_min":81,"x_max":684,"o":"m 382 -24 q 233 -2 315 -24 l 232 -326 q 213 -375 232 -356 q 165 -394 195 -394 q 118 -375 136 -394 q 99 -326 99 -356 l 101 -55 l 101 216 q 91 486 99 364 l 81 624 q 98 705 81 672 q 157 745 119 745 q 202 727 184 745 q 220 681 220 708 q 218 659 220 675 q 213 620 214 637 q 326 680 271 660 q 429 700 380 700 q 633 576 568 700 q 684 318 684 479 q 605 77 684 172 q 382 -24 522 -24 m 429 564 q 317 536 367 564 q 226 465 281 517 q 235 141 235 311 q 382 113 309 113 q 512 176 467 113 q 551 318 551 231 q 520 503 551 441 q 429 564 490 564 z "},"q":{"ha":722,"x_min":41,"x_max":640,"o":"m 616 214 l 585 -47 q 568 -309 568 -192 q 550 -358 568 -339 q 502 -377 532 -377 q 435 -309 439 -377 q 439 -233 433 -279 l 448 -158 l 460 -8 q 378 -24 402 -24 q 139 53 231 -24 q 41 280 41 135 q 153 599 41 479 q 465 721 267 722 q 521 692 502 721 q 572 718 550 718 q 620 696 600 718 q 640 646 640 674 q 616 214 640 446 m 416 604 q 228 477 292 581 q 176 277 176 392 q 225 147 176 197 q 374 94 279 92 q 468 164 438 96 q 503 422 500 240 l 512 604 q 465 602 498 599 q 416 604 427 606 z "},"r":{"ha":667,"x_min":94,"x_max":623,"o":"m 622 501 q 554 416 617 416 q 496 484 496 416 q 494 531 496 496 l 492 588 q 320 528 385 575 q 220 395 260 484 l 221 23 q 154 -45 221 -45 q 94 23 94 -45 l 94 499 q 96 566 94 522 q 98 633 98 611 q 157 702 98 702 q 224 589 224 702 q 513 715 355 715 q 595 673 568 715 q 623 549 623 632 q 622 501 623 513 z "},"s":{"ha":676,"x_min":28,"x_max":618,"o":"m 552 522 q 500 547 515 522 q 482 621 490 565 q 326 573 431 608 q 216 466 216 530 q 256 455 236 458 q 488 378 412 427 q 598 172 598 307 q 503 5 598 62 q 302 -41 423 -41 q 132 -11 213 -41 q 28 95 28 27 q 49 142 28 122 q 98 163 71 163 q 152 130 119 163 q 225 104 168 115 q 302 96 271 96 q 402 110 359 96 q 465 172 465 130 q 336 297 465 264 l 266 313 q 138 359 176 332 q 83 473 83 397 q 216 675 83 615 q 347 719 257 694 q 475 762 436 745 q 535 774 503 774 q 583 755 564 774 q 602 706 602 736 q 610 648 602 686 q 618 591 618 610 q 600 541 618 560 q 552 522 581 522 z "},"t":{"ha":654,"x_min":44,"x_max":614,"o":"m 548 578 q 514 579 534 578 q 481 581 495 581 q 389 570 465 581 l 401 170 l 402 140 l 403 105 q 332 -43 406 -43 q 284 -26 304 -43 q 264 18 264 -8 q 267 96 264 44 q 269 173 269 147 l 255 569 q 104 581 205 571 q 44 648 44 589 q 62 697 44 677 q 109 717 81 717 l 252 705 q 249 798 252 740 q 245 882 245 856 q 265 929 245 910 q 313 947 285 947 q 385 848 374 947 q 387 787 387 823 l 385 748 l 385 706 q 481 717 469 717 q 573 710 551 717 q 614 646 614 696 q 596 597 614 616 q 548 578 577 578 z "},"u":{"ha":722,"x_min":74,"x_max":661,"o":"m 648 396 q 648 250 648 347 q 649 103 649 152 q 651 58 649 88 q 654 12 654 27 q 634 -36 654 -17 q 586 -54 614 -54 q 519 10 534 -54 q 324 -34 435 -34 q 177 5 235 -34 q 100 132 113 49 q 74 452 74 312 q 94 664 74 545 q 159 723 104 723 q 208 704 188 723 q 227 656 227 686 q 217 557 227 625 q 208 452 208 488 q 215 258 208 339 q 237 129 222 178 q 281 110 260 117 q 324 104 303 104 q 516 133 415 104 l 515 271 l 514 402 q 527 656 514 549 q 593 719 534 719 q 642 700 622 719 q 660 652 661 681 l 648 396 z "},"v":{"ha":675,"x_min":42,"x_max":658,"o":"m 407 35 q 345 -27 405 -27 q 273 31 296 -27 l 170 307 l 49 618 q 42 649 42 635 q 63 696 42 677 q 112 716 84 716 q 170 675 153 716 l 342 201 q 471 515 393 309 q 528 669 489 570 q 588 712 549 712 q 637 692 616 712 q 658 646 658 673 q 546 355 658 620 l 407 35 z "},"w":{"ha":950,"x_min":52,"x_max":913,"o":"m 906 607 q 768 107 853 386 q 705 -20 749 45 q 640 -55 681 -56 q 525 129 566 -54 q 497 288 511 187 l 475 439 l 419 309 l 316 29 q 290 -10 307 3 q 225 -51 270 -50 q 125 151 174 -53 q 77 436 101 256 l 60 538 q 52 640 52 599 q 72 687 52 669 q 120 706 92 706 q 184 650 172 706 q 198 551 193 610 l 208 451 l 248 146 q 404 628 323 355 q 482 703 427 703 q 555 619 536 703 q 599 375 572 540 q 647 109 626 204 l 696 293 l 784 663 q 842 704 794 704 q 892 685 871 704 q 913 638 913 665 q 906 607 913 635 z "},"x":{"ha":820,"x_min":41,"x_max":781,"o":"m 718 582 l 618 489 l 498 369 l 719 80 q 736 37 736 58 q 715 -9 736 11 q 669 -30 695 -30 q 623 -5 644 -30 q 403 275 560 68 l 271 138 q 154 26 231 102 q 107 2 132 2 q 61 22 81 2 q 41 69 41 43 q 58 112 41 90 q 117 172 77 137 q 179 229 164 214 l 323 380 l 235 509 q 141 621 181 585 q 115 671 115 644 q 135 719 115 698 q 179 740 154 740 q 300 635 219 740 l 417 473 l 550 595 q 662 718 633 673 q 713 749 684 749 q 760 730 740 749 q 781 684 781 710 q 718 582 781 647 z "},"y":{"ha":723,"x_min":-3,"x_max":694,"o":"m 686 605 l 451 98 q 318 -212 364 -87 l 273 -344 q 212 -393 256 -393 q 163 -374 184 -393 q 142 -328 142 -355 q 289 65 142 -260 l 46 532 l 16 582 q -3 634 -3 613 q 19 683 -3 662 q 66 704 40 704 q 115 680 98 704 q 362 224 230 520 l 463 458 q 567 667 517 580 q 624 705 589 705 q 673 686 652 705 q 694 639 694 666 q 686 605 694 624 z "},"z":{"ha":625,"x_min":24,"x_max":598,"o":"m 24 87 l 24 176 l 437 650 q 313 646 367 646 l 49 646 l 49 736 l 578 736 l 578 663 l 160 176 q 298 182 234 182 l 598 182 l 598 87 l 24 87 z "},"{":{"ha":418,"x_min":35,"x_max":388,"o":"m 35 461 q 151 553 130 463 q 161 696 161 595 q 165 831 161 742 q 278 991 178 964 q 354 998 300 998 l 388 998 l 388 902 l 369 902 q 281 873 302 902 q 264 777 264 849 q 258 574 264 615 q 220 475 247 511 q 137 411 194 439 q 245 298 217 377 q 264 136 264 244 q 267 -5 264 16 q 298 -67 272 -52 q 369 -80 318 -80 l 388 -80 l 388 -176 l 354 -176 q 267 -165 294 -176 q 170 -41 184 -136 q 162 117 162 4 q 151 269 162 222 q 35 361 130 359 l 35 461 z "},"|":{"ha":325,"x_min":115,"x_max":210,"o":"m 115 -176 l 115 998 l 210 998 l 210 -176 l 115 -176 z "},"}":{"ha":418,"x_min":28,"x_max":382,"o":"m 382 461 l 382 361 q 266 270 287 359 q 255 132 255 222 q 252 -8 255 22 q 138 -169 239 -140 q 63 -176 115 -176 l 28 -176 l 28 -80 l 47 -80 q 136 -50 115 -80 q 153 46 153 -27 q 158 239 153 200 q 280 411 176 367 q 172 524 198 450 q 153 686 153 576 q 149 829 153 802 q 119 890 144 875 q 47 902 99 902 l 28 902 l 28 998 l 63 998 q 149 987 122 998 q 248 863 233 959 q 254 707 255 817 q 266 553 254 606 q 382 461 287 463 z "},"~":{"ha":730,"x_min":53,"x_max":677,"o":"m 53 427 l 53 553 q 222 626 118 626 q 414 572 289 626 q 520 544 482 544 q 677 627 601 544 l 677 498 q 509 429 604 429 q 333 478 444 429 q 212 511 260 511 q 53 427 139 511 z "},"":{"ha":1085,"x_min":59,"x_max":1031,"o":"m 1031 87 l 783 87 l 783 485 l 836 485 l 836 134 l 1031 134 l 1031 87 m 732 87 l 435 87 l 435 485 l 723 485 l 723 438 l 488 438 l 488 317 l 708 317 l 708 270 l 488 270 l 488 134 l 732 134 l 732 87 m 388 288 q 350 151 388 203 q 267 94 319 107 q 202 87 239 87 l 59 87 l 59 485 l 196 485 q 267 479 242 485 q 372 383 342 462 q 388 288 388 342 m 334 290 q 263 430 334 403 q 195 438 242 438 l 111 438 l 111 134 l 197 134 q 294 162 266 134 q 334 290 334 202 z "}," ":{"ha":1016,"x_min":89,"x_max":917,"o":"m 848 -20 q 739 140 785 -20 q 695 353 722 201 q 514 319 626 344 l 334 282 q 218 22 300 193 q 159 -16 196 -16 q 110 4 132 -16 q 89 53 89 24 q 191 300 89 85 q 180 341 180 318 q 246 412 180 396 q 441 745 323 557 q 642 1002 602 1002 q 715 928 695 1002 l 758 700 l 859 229 l 897 121 q 917 48 917 66 q 896 -1 917 19 q 848 -20 875 -20 m 608 755 l 414 442 q 663 493 496 463 l 608 755 m 654 1069 q 740 1085 713 1071 q 785 1175 785 1109 q 749 1236 785 1214 q 676 1256 718 1256 q 532 1147 529 1256 q 573 1092 532 1116 q 654 1069 614 1067 m 430 1147 q 500 1303 430 1246 q 676 1357 567 1357 q 821 1310 761 1357 q 887 1175 887 1257 q 826 1023 887 1074 q 644 969 766 971 q 491 1021 552 968 q 430 1147 430 1073 z "},"¡":{"ha":443,"x_min":137,"x_max":310,"o":"m 308 741 q 283 682 308 707 q 224 656 258 656 q 165 682 190 656 q 141 741 141 707 q 165 800 141 775 q 225 824 190 824 q 284 800 260 824 q 308 741 308 775 m 310 126 q 287 54 310 85 q 225 22 262 22 q 161 54 187 22 q 137 126 137 85 q 171 324 137 173 q 205 594 205 475 l 243 594 q 277 319 243 482 q 310 126 310 155 z "},"¢":{"ha":695,"x_min":65,"x_max":631,"o":"m 454 633 l 319 165 q 356 160 338 160 q 471 209 425 160 q 522 325 512 254 l 631 313 q 540 139 612 205 q 357 71 465 71 q 295 79 328 71 l 222 -162 l 155 -142 l 224 100 q 65 408 65 176 q 208 712 65 633 q 353 751 279 751 q 414 746 375 751 l 483 982 l 550 963 l 481 726 q 619 545 594 677 l 513 529 q 454 633 497 597 m 389 661 q 359 663 370 663 q 200 549 242 663 q 178 414 178 491 q 253 195 178 252 l 389 661 z "},"£":{"ha":695,"x_min":16,"x_max":661,"o":"m 241 581 l 434 581 l 434 491 l 260 491 q 272 437 272 464 q 163 204 272 319 q 252 218 212 218 q 366 202 302 218 q 508 177 470 177 q 625 212 553 177 l 661 111 q 512 72 570 72 q 460 77 486 72 q 300 122 406 95 q 243 127 273 127 q 58 71 147 127 l 16 176 q 157 415 157 254 q 146 491 157 452 l 27 491 l 27 581 l 121 581 q 90 743 90 687 q 184 941 90 869 q 367 998 259 998 q 549 937 478 998 q 637 766 621 876 l 528 749 q 477 862 519 819 q 364 907 432 907 q 253 865 299 907 q 207 758 207 823 q 241 581 207 690 z "},"¤":{"ha":772,"x_min":50,"x_max":717,"o":"m 717 328 l 638 247 l 544 342 q 383 292 473 292 q 222 342 294 292 l 128 247 l 50 328 l 144 420 q 96 580 96 494 q 144 739 96 665 l 50 831 l 128 912 l 222 818 q 383 867 294 867 q 544 818 473 867 l 638 912 l 717 831 l 623 739 q 671 580 671 665 q 623 420 671 494 l 717 328 m 558 580 q 507 704 558 653 q 382 755 456 755 q 258 704 309 755 q 207 580 207 653 q 258 455 207 507 q 382 404 309 404 q 507 455 456 404 q 558 580 558 507 z "},"¥":{"ha":695,"x_min":-2,"x_max":692,"o":"m 291 87 l 291 286 l 38 286 l 38 371 l 291 371 l 291 458 l 38 458 l 38 548 l 246 548 l -2 982 l 120 982 l 297 667 q 344 573 326 615 q 393 673 359 608 l 561 982 l 692 982 l 444 548 l 652 548 l 652 458 l 401 458 l 401 371 l 652 371 l 652 286 l 401 286 l 401 87 l 291 87 z "},"¦":{"ha":325,"x_min":115,"x_max":210,"o":"m 210 998 l 210 515 l 115 515 l 115 998 l 210 998 m 210 307 l 210 -176 l 115 -176 l 115 307 l 210 307 z "},"§":{"ha":695,"x_min":50,"x_max":637,"o":"m 87 45 l 198 60 q 353 -83 229 -83 q 444 -57 406 -83 q 486 23 486 -27 q 464 81 486 54 q 256 231 426 126 q 153 299 182 276 q 72 391 98 342 q 50 481 50 434 q 88 590 50 543 q 186 653 126 635 q 108 804 108 728 q 177 947 108 892 q 331 998 241 998 q 586 786 559 998 l 472 774 q 340 907 449 907 q 257 882 294 907 q 216 810 216 854 q 237 751 216 779 q 424 617 271 711 q 553 531 522 558 q 637 371 637 461 q 593 253 637 302 q 499 196 568 225 q 596 24 596 122 q 478 -151 596 -98 q 354 -176 420 -176 q 174 -121 242 -176 q 87 45 101 -64 m 444 237 q 534 351 534 283 q 365 527 534 423 q 241 611 281 579 q 149 493 149 559 q 204 393 149 441 q 303 327 231 370 q 444 237 385 279 z "},"¨":{"ha":416,"x_min":37,"x_max":380,"o":"m 37 863 l 37 987 l 152 987 l 152 863 l 37 863 m 265 863 l 265 987 l 380 987 l 380 863 l 265 863 z "},"©":{"ha":1683,"x_min":100,"x_max":1624,"o":"m 664 534 l 932 534 q 984 527 972 534 l 1002 519 q 1039 491 1025 509 q 1069 449 1055 481 q 1074 396 1074 440 l 1074 121 q 1044 89 1074 89 l 771 89 q 711 102 730 89 q 675 124 702 102 q 642 164 666 128 l 636 179 q 633 216 633 185 l 633 503 q 664 534 633 534 m 660 510 l 659 503 l 659 218 q 725 125 659 157 l 742 119 l 742 189 q 754 195 745 195 l 773 195 q 789 180 789 195 q 791 172 791 180 l 792 172 q 803 194 795 194 l 810 195 l 830 195 q 838 193 838 195 q 849 195 842 195 l 873 195 q 876 209 876 195 l 882 235 q 875 288 882 247 l 874 288 q 844 235 874 259 l 827 231 q 808 239 808 231 q 802 264 802 256 q 819 299 802 275 l 818 299 q 791 290 796 290 l 790 292 l 789 292 q 746 252 752 252 l 726 243 q 668 214 686 219 l 667 215 l 667 216 l 730 248 q 795 304 789 302 l 841 323 l 854 327 l 854 329 l 838 326 q 799 338 799 332 q 703 329 744 335 q 688 333 688 330 l 688 334 q 690 336 688 336 l 697 334 l 703 334 l 725 338 l 727 335 q 803 346 743 339 l 849 336 q 866 351 866 346 q 857 360 864 351 q 848 368 848 360 q 817 433 833 402 q 808 442 816 442 l 808 441 l 806 441 q 736 454 779 451 l 736 455 l 736 458 l 738 460 l 744 458 l 746 458 l 749 460 q 802 447 791 452 l 818 447 l 838 416 q 845 403 838 412 q 863 362 857 383 l 864 362 q 874 380 864 380 q 895 391 881 391 l 895 392 q 871 407 871 393 q 884 429 872 416 l 866 427 l 859 427 q 856 432 856 427 l 854 431 l 854 431 q 848 454 851 431 l 849 454 q 841 494 841 470 l 838 506 l 838 510 l 660 510 m 843 510 l 844 509 l 844 503 q 847 479 844 490 l 846 478 l 846 477 q 856 433 856 446 l 860 431 q 897 440 892 431 q 909 446 903 446 l 915 442 l 916 442 l 922 446 q 943 433 922 442 l 948 417 l 948 407 l 947 406 l 947 405 l 948 404 l 949 401 l 950 401 l 949 395 l 956 371 l 958 371 q 981 376 968 371 l 983 374 q 966 366 969 366 l 963 366 l 958 368 l 954 368 q 945 394 945 380 l 945 394 q 928 375 945 384 l 923 374 l 911 382 l 910 382 l 912 373 l 912 368 q 901 345 912 350 l 901 344 q 903 340 903 344 l 912 342 l 922 342 l 960 346 q 1009 331 1009 346 q 1019 323 1009 326 q 1026 314 1021 314 q 1031 311 1026 311 q 1042 297 1042 302 l 1041 296 q 998 336 1031 301 l 956 333 l 952 333 l 947 338 q 913 330 929 330 q 889 340 905 330 l 886 335 l 886 334 q 906 304 886 312 q 928 272 928 289 q 945 254 938 268 q 960 235 951 254 q 979 212 971 218 q 989 197 979 209 l 987 195 l 985 195 q 966 220 979 199 q 947 250 958 231 q 932 267 942 250 q 920 279 929 267 q 884 312 884 294 l 877 319 l 874 316 l 880 304 l 882 303 l 882 302 l 880 301 l 880 300 q 890 261 885 300 l 890 239 q 880 195 890 229 q 905 191 896 194 q 918 195 905 195 l 975 195 q 989 183 989 195 l 989 172 q 983 161 989 164 l 966 161 l 966 113 l 1048 113 l 1048 417 q 1030 460 1045 442 q 965 505 1002 495 l 945 510 l 843 510 m 905 434 l 910 434 l 916 438 l 913 438 q 905 434 905 437 m 915 431 l 915 425 l 916 425 l 916 423 q 912 419 912 423 l 910 419 q 908 422 910 422 l 908 420 l 906 420 l 904 422 l 906 429 l 899 429 l 899 427 q 895 417 899 421 l 895 416 l 895 417 l 897 417 l 897 416 l 897 414 l 895 412 l 895 412 l 899 414 l 899 409 l 905 410 q 912 405 907 405 l 912 404 l 911 403 l 911 401 l 912 401 l 915 404 l 917 404 l 917 403 l 916 399 l 920 403 l 920 399 l 921 399 l 922 399 q 932 395 922 397 q 940 407 932 407 l 940 408 l 934 412 l 932 408 l 930 408 l 930 412 l 930 412 l 926 409 l 925 409 q 935 423 925 416 l 935 429 q 930 432 935 432 l 926 435 l 924 435 q 915 431 916 435 m 939 420 l 939 412 l 940 412 l 940 420 l 939 420 m 840 405 l 840 401 q 858 366 850 366 l 841 405 l 840 405 m 904 405 l 903 401 l 903 401 l 904 401 l 905 404 l 905 405 l 904 405 m 1038 405 l 1040 403 l 1040 401 q 1011 381 1018 381 l 1009 381 l 1009 382 l 1038 405 m 938 401 l 937 401 l 937 399 l 938 399 l 940 401 l 939 401 l 938 401 m 886 380 l 886 377 q 889 374 889 377 l 891 372 l 897 373 l 897 372 l 899 368 q 904 372 903 370 q 893 384 901 384 q 886 380 886 383 m 1006 385 l 1008 384 l 1008 382 l 1004 378 l 1002 378 l 1000 379 l 999 379 q 987 375 999 376 l 985 375 l 985 376 q 1006 385 987 380 m 878 362 l 878 361 l 880 361 l 880 362 l 878 362 m 882 362 l 880 353 l 882 355 l 882 355 l 882 353 l 882 351 l 882 349 l 882 349 q 886 353 883 353 l 886 351 l 891 355 l 891 358 q 884 362 889 362 l 882 362 m 895 342 l 895 340 l 897 340 l 897 342 l 895 342 m 956 342 l 956 340 l 978 340 l 978 342 l 956 342 m 806 340 q 838 332 808 334 l 840 332 l 840 333 q 806 340 815 340 m 854 336 l 854 335 l 856 335 l 856 336 l 854 336 m 871 333 l 871 327 q 875 333 872 327 l 871 333 m 882 329 l 880 323 l 884 322 l 884 329 l 882 329 m 846 317 l 846 316 l 851 316 l 852 317 l 852 318 l 846 317 m 873 313 l 873 311 l 875 309 l 875 311 l 873 313 m 821 281 l 825 281 l 825 281 l 816 267 l 816 266 l 817 266 q 823 275 817 270 l 825 275 q 828 269 825 271 l 825 261 l 825 260 l 825 260 q 829 266 827 266 q 832 260 832 266 l 836 262 l 838 260 l 840 261 l 841 261 l 846 259 l 845 254 l 849 257 l 850 256 l 851 256 q 864 298 864 273 l 864 300 l 865 301 q 851 310 865 306 q 828 292 842 310 q 825 285 825 292 l 821 281 m 893 307 l 893 307 q 920 287 912 287 q 893 307 911 298 m 879 294 l 879 292 l 884 264 l 886 264 l 886 269 l 880 294 l 879 294 m 866 294 q 861 269 866 284 l 861 268 l 862 268 q 867 290 866 279 l 867 294 l 866 294 m 886 262 l 886 259 l 886 259 l 886 262 l 886 262 m 749 186 l 749 117 l 768 113 l 768 167 l 770 167 l 783 113 l 801 113 l 814 167 l 816 167 l 816 113 l 834 113 l 834 186 l 805 186 q 793 144 802 186 l 792 144 q 781 186 789 144 l 749 186 m 843 186 l 843 113 l 865 113 l 865 140 l 867 142 q 889 113 876 142 l 915 113 l 915 115 q 895 144 903 139 l 895 146 q 910 167 907 146 q 880 186 910 186 l 843 186 m 911 186 l 911 168 l 932 168 l 935 166 l 935 113 l 958 113 l 958 166 l 960 168 l 981 168 l 981 186 l 911 186 m 867 172 l 879 172 q 888 164 888 170 q 869 155 888 155 l 867 155 l 865 157 l 865 170 l 867 172 m 907 142 q 923 113 912 140 l 926 113 l 926 161 l 919 161 q 915 151 917 161 l 907 142 m 874 124 l 874 113 l 880 113 l 875 124 l 874 124 m 1366 1355 l 1368 1352 l 1368 1301 q 1361 1289 1368 1297 l 1360 1286 q 1371 1275 1362 1275 q 1381 1286 1379 1275 q 1373 1298 1381 1291 l 1374 1304 l 1374 1342 l 1373 1354 l 1374 1355 l 1375 1355 q 1429 1278 1427 1284 l 1429 1275 q 1420 1262 1429 1268 l 1420 1240 l 1417 1237 l 1323 1237 l 1320 1240 l 1320 1265 q 1312 1276 1312 1265 q 1366 1355 1312 1281 m 898 1350 l 906 1350 l 909 1348 l 909 1342 l 906 1340 l 898 1340 l 896 1342 l 896 1348 l 898 1350 m 1018 1341 l 1021 1337 l 1021 1336 l 990 1316 l 989 1317 l 989 1321 l 1018 1341 m 1284 1340 l 1297 1340 l 1299 1337 l 1299 1336 l 1297 1334 l 1284 1334 l 1281 1336 l 1281 1337 l 1284 1340 m 164 1334 l 172 1334 l 174 1332 l 174 1324 l 172 1322 l 164 1322 l 161 1324 l 161 1332 l 164 1334 m 630 1334 l 638 1334 l 641 1332 l 641 1324 l 638 1322 l 630 1322 l 628 1324 l 628 1332 l 630 1334 m 799 1334 l 807 1334 l 809 1332 l 809 1324 l 807 1322 l 799 1322 l 796 1324 l 796 1332 l 799 1334 m 890 1334 l 898 1334 l 901 1332 l 901 1324 l 898 1322 l 890 1322 l 888 1324 l 888 1332 l 890 1334 m 907 1334 l 916 1334 l 918 1332 l 918 1324 l 916 1322 l 907 1322 l 905 1324 l 905 1332 l 907 1334 m 1068 1334 l 1076 1334 l 1078 1332 l 1078 1324 l 1076 1322 l 1068 1322 l 1065 1324 l 1065 1332 l 1068 1334 m 1126 1334 l 1135 1334 q 1138 1324 1137 1334 l 1137 1322 l 1126 1322 l 1124 1324 l 1124 1332 l 1126 1334 m 1238 1334 l 1246 1334 l 1249 1332 l 1249 1324 l 1246 1322 l 1238 1322 l 1236 1324 l 1236 1332 l 1238 1334 m 1023 1333 l 1025 1324 l 1006 1312 l 1006 1311 l 1040 1311 q 1053 1295 1053 1311 l 1053 1288 l 1064 1288 l 1067 1290 l 1067 1317 l 1076 1317 l 1080 1313 l 1080 1288 q 1068 1275 1080 1275 l 977 1275 q 966 1293 966 1275 l 966 1327 l 968 1329 l 977 1329 l 979 1327 l 979 1293 l 980 1288 l 1040 1288 l 1040 1291 q 1037 1298 1040 1297 l 991 1298 l 989 1301 l 989 1310 q 1023 1333 996 1317 m 102 1329 l 111 1329 l 113 1327 l 113 1293 l 114 1288 l 130 1288 l 130 1290 l 130 1290 l 130 1301 l 130 1314 l 132 1317 l 140 1317 q 142 1313 142 1317 l 143 1288 l 161 1288 l 163 1290 l 163 1317 l 172 1317 l 176 1313 l 176 1288 q 164 1275 176 1275 l 150 1275 q 142 1281 142 1275 l 141 1281 q 133 1275 141 1275 l 111 1275 q 100 1293 100 1275 l 100 1327 l 102 1329 m 258 1329 l 267 1329 l 269 1327 l 269 1321 l 267 1319 l 258 1319 l 256 1321 l 256 1327 l 258 1329 m 444 1329 l 452 1329 l 455 1327 l 455 1293 l 456 1288 l 465 1288 l 465 1314 l 467 1317 l 516 1317 q 529 1301 529 1317 l 529 1278 l 526 1275 l 452 1275 q 442 1293 442 1275 l 442 1327 l 444 1329 m 572 1329 l 574 1327 l 575 1276 l 574 1275 l 564 1275 q 562 1278 562 1275 l 561 1329 l 562 1329 l 572 1329 m 591 1329 l 599 1329 q 602 1320 602 1329 l 602 1319 l 591 1319 l 589 1321 l 589 1327 l 591 1329 m 673 1329 l 675 1327 l 676 1276 l 675 1275 l 666 1275 q 664 1278 664 1275 l 663 1329 l 664 1329 l 673 1329 m 1294 1329 l 1297 1327 l 1297 1276 l 1297 1275 l 1287 1275 q 1285 1278 1285 1275 l 1284 1329 l 1285 1329 l 1294 1329 m 182 1317 l 204 1317 q 217 1308 217 1317 l 217 1281 q 208 1275 214 1275 l 182 1275 l 180 1278 l 180 1286 l 182 1288 l 204 1288 l 204 1301 l 202 1304 l 182 1304 l 180 1306 l 180 1314 l 182 1317 m 285 1317 l 314 1317 l 316 1314 l 316 1265 q 304 1255 316 1255 l 296 1255 l 294 1258 l 294 1266 l 296 1268 l 304 1268 l 304 1275 l 285 1275 q 273 1286 273 1275 l 273 1308 q 285 1317 273 1317 m 375 1317 l 383 1317 l 385 1314 l 385 1293 l 387 1288 l 414 1288 l 414 1289 q 396 1305 405 1289 l 396 1306 q 408 1317 396 1317 l 434 1317 l 436 1314 l 436 1306 l 434 1304 l 411 1304 l 411 1301 q 436 1286 436 1289 l 436 1278 l 434 1275 l 383 1275 q 373 1295 373 1275 l 373 1314 l 375 1317 m 625 1317 l 653 1317 l 656 1314 l 656 1311 l 656 1288 q 646 1275 656 1275 l 602 1275 l 602 1266 q 590 1255 602 1255 l 584 1255 l 582 1258 l 582 1266 q 590 1270 582 1267 l 590 1310 l 592 1312 l 600 1312 l 602 1310 l 602 1288 l 607 1286 l 613 1288 l 613 1305 q 625 1317 613 1317 m 743 1317 q 756 1306 756 1317 l 756 1284 q 745 1275 756 1275 l 726 1275 l 726 1268 q 710 1255 726 1255 l 707 1255 l 705 1258 l 705 1266 q 713 1270 705 1267 l 713 1290 l 712 1316 l 713 1317 l 743 1317 m 798 1317 l 807 1317 l 810 1313 l 810 1288 q 799 1275 810 1275 l 783 1275 l 783 1266 q 770 1255 783 1255 l 764 1255 l 762 1258 l 762 1266 q 770 1270 762 1267 l 770 1310 l 772 1312 l 781 1312 l 783 1310 l 783 1288 l 795 1288 l 798 1290 l 798 1317 m 842 1317 l 850 1317 l 852 1314 l 852 1276 l 855 1273 l 869 1273 l 871 1275 l 871 1314 l 874 1317 l 882 1317 l 884 1314 l 884 1288 l 896 1288 l 896 1314 l 898 1317 l 906 1317 l 909 1314 l 909 1293 l 909 1288 l 921 1288 l 921 1314 l 924 1317 l 932 1317 l 934 1314 l 934 1284 q 924 1275 934 1275 l 913 1275 l 907 1280 l 906 1280 q 899 1275 906 1275 l 884 1275 l 884 1270 q 866 1260 884 1260 l 842 1260 l 839 1262 l 839 1314 l 842 1317 m 1112 1317 l 1120 1317 l 1122 1314 l 1122 1276 l 1126 1273 l 1139 1273 l 1141 1275 l 1141 1314 l 1144 1317 l 1152 1317 l 1154 1314 l 1154 1288 l 1175 1288 l 1177 1290 l 1177 1314 l 1180 1317 l 1187 1317 q 1190 1310 1190 1316 l 1190 1288 q 1179 1275 1190 1275 l 1154 1275 l 1154 1270 q 1136 1260 1154 1260 l 1112 1260 l 1109 1262 l 1109 1314 l 1112 1317 m 1230 1317 l 1253 1317 q 1272 1288 1268 1317 q 1277 1286 1277 1288 l 1277 1278 l 1274 1275 l 1217 1275 l 1217 1266 q 1204 1255 1217 1255 l 1198 1255 l 1196 1258 l 1196 1266 q 1204 1270 1196 1267 l 1204 1310 l 1206 1312 l 1215 1312 l 1217 1310 l 1217 1288 l 1259 1288 q 1253 1304 1255 1304 l 1230 1304 l 1227 1306 l 1227 1314 l 1230 1317 m 258 1312 l 267 1312 l 269 1310 l 269 1267 q 256 1255 269 1255 l 250 1255 l 248 1258 l 248 1266 q 256 1270 248 1267 l 256 1310 l 258 1312 m 334 1312 l 342 1312 l 344 1310 l 344 1267 q 331 1255 344 1255 l 326 1255 l 323 1258 l 323 1266 q 331 1270 323 1267 l 331 1310 l 334 1312 m 544 1312 l 552 1312 l 554 1310 l 554 1267 q 541 1255 554 1255 l 536 1255 l 533 1258 l 533 1266 q 541 1270 533 1267 l 541 1310 l 544 1312 m 950 1312 l 958 1312 l 960 1310 l 960 1267 q 947 1255 960 1255 l 942 1255 l 940 1258 l 940 1266 q 947 1270 940 1267 l 947 1310 l 950 1312 m 286 1304 l 286 1288 l 304 1288 l 304 1304 l 286 1304 m 478 1304 l 478 1290 l 480 1288 l 488 1288 l 490 1290 l 490 1304 l 478 1304 m 503 1304 l 503 1288 l 516 1288 l 516 1297 q 513 1304 516 1303 l 503 1304 m 626 1301 l 626 1290 l 628 1288 l 643 1288 l 643 1304 l 628 1304 l 626 1301 m 726 1304 l 726 1288 l 743 1288 l 743 1301 l 741 1304 l 726 1304 m 123 1270 l 132 1270 l 134 1267 l 134 1260 l 132 1258 l 123 1258 l 121 1260 l 121 1267 l 123 1270 m 141 1270 l 149 1270 l 151 1267 l 151 1260 l 149 1258 l 141 1258 l 138 1260 l 138 1267 l 141 1270 m 1162 1270 l 1171 1270 l 1173 1267 l 1173 1260 l 1171 1258 l 1162 1258 l 1160 1260 l 1160 1267 l 1162 1270 m 1180 1270 l 1188 1270 l 1190 1267 l 1190 1260 l 1188 1258 l 1180 1258 l 1177 1260 l 1177 1267 l 1180 1270 m 749 1236 l 758 1236 q 838 1202 804 1236 l 839 1202 l 839 1213 l 838 1224 l 842 1227 l 937 1227 l 940 1224 l 940 951 l 937 948 l 842 948 l 838 952 l 839 960 l 839 976 l 838 976 q 766 941 805 941 l 743 941 q 644 994 694 941 q 613 1088 613 1036 q 712 1230 613 1189 q 749 1236 735 1236 m 1099 1236 l 1107 1236 q 1185 1200 1152 1236 l 1185 1224 l 1188 1227 l 1284 1227 l 1287 1223 l 1287 999 q 1265 876 1287 893 q 1180 816 1242 835 l 1166 811 l 1080 811 l 1044 824 q 971 894 993 848 l 966 913 l 966 913 l 970 918 l 1075 918 l 1088 898 q 1121 888 1104 888 l 1126 888 q 1185 948 1185 895 l 1185 977 q 1099 943 1150 943 l 1097 943 q 975 1022 1013 943 q 963 1069 963 1053 l 963 1101 q 985 1170 964 1131 q 1099 1236 1033 1236 m 1596 1236 l 1608 1236 q 1624 1232 1624 1236 l 1624 1142 l 1623 1141 l 1623 1140 q 1591 1150 1605 1150 l 1590 1150 q 1529 1109 1545 1150 q 1525 1088 1526 1105 q 1571 1027 1525 1044 l 1581 1026 l 1594 1026 q 1623 1035 1605 1026 l 1624 1034 l 1624 943 q 1609 939 1624 939 l 1598 939 q 1451 1043 1493 939 q 1445 1084 1445 1064 l 1445 1092 q 1529 1221 1445 1173 q 1596 1236 1565 1236 m 120 1235 l 217 1235 l 219 1232 l 219 1196 q 306 1232 260 1232 l 312 1232 q 403 1181 370 1232 l 404 1181 q 434 1214 404 1191 q 494 1232 462 1232 l 498 1232 q 577 1192 548 1232 q 591 1132 591 1171 l 591 951 l 589 948 l 493 948 l 490 951 l 490 1076 q 475 1145 490 1140 q 459 1153 475 1148 l 442 1153 q 414 1133 429 1153 q 405 1079 405 1118 l 405 951 l 403 948 l 307 948 l 304 951 l 304 1107 q 278 1152 304 1141 l 273 1153 l 254 1153 q 227 1135 243 1153 q 219 1089 219 1119 l 219 951 l 217 948 l 120 948 l 118 951 l 118 1232 l 120 1235 m 1322 1227 l 1417 1227 l 1420 1224 l 1420 951 l 1417 948 l 1322 948 l 1320 951 l 1320 1224 l 1322 1227 m 690 1089 l 690 1084 q 712 1040 690 1061 q 741 1026 727 1028 l 763 1026 q 806 1053 783 1026 q 815 1086 815 1072 l 815 1090 q 772 1148 815 1130 l 758 1150 l 749 1150 q 696 1115 716 1150 q 690 1089 690 1101 m 1038 1093 l 1039 1089 l 1038 1084 q 1074 1030 1038 1053 l 1097 1025 l 1098 1026 l 1113 1026 q 1164 1088 1164 1042 q 1124 1146 1164 1127 q 1105 1150 1115 1150 l 1097 1150 q 1040 1107 1059 1150 l 1038 1093 m 123 928 l 947 928 l 949 925 l 949 774 l 947 772 l 123 772 l 121 774 l 121 925 l 123 928 m 871 861 l 871 854 q 909 798 871 798 q 943 825 935 798 q 947 848 947 833 l 947 865 q 918 915 947 905 l 905 915 q 873 877 880 915 l 871 861 m 690 859 l 690 852 q 728 797 690 797 q 762 824 753 797 q 766 847 766 832 l 766 864 q 736 913 766 904 l 724 913 q 692 876 699 913 l 690 859 m 791 886 l 791 869 l 792 869 q 816 882 810 877 l 817 882 l 819 839 l 819 800 l 835 800 l 835 913 l 824 913 q 791 886 801 886 m 329 859 l 329 851 q 365 797 329 810 l 383 795 q 431 833 418 795 l 431 836 l 429 836 l 412 840 q 385 811 406 811 l 378 811 q 350 836 359 811 l 347 852 l 347 856 q 383 898 347 898 q 411 875 403 898 l 411 873 q 428 879 428 878 q 385 913 418 913 l 380 913 q 330 870 341 913 l 329 859 m 448 913 l 448 798 l 467 798 l 467 836 l 481 851 l 482 851 l 522 798 l 545 798 l 495 865 l 543 913 l 519 913 l 467 862 l 467 862 l 467 863 l 465 913 l 448 913 m 599 877 l 618 876 l 618 882 q 635 898 618 895 l 641 898 q 656 882 656 893 q 610 827 656 865 q 598 803 598 811 l 598 798 l 674 798 l 674 814 l 623 814 l 623 817 q 672 867 672 860 l 674 880 q 640 913 674 909 l 635 913 q 599 877 599 909 m 255 911 l 212 796 l 215 796 l 232 797 q 245 831 242 831 l 285 831 q 300 797 288 831 l 321 797 l 273 911 l 255 911 m 127 910 l 128 801 l 128 796 l 145 796 l 145 839 l 148 841 l 176 841 q 216 878 216 841 q 172 910 216 910 l 127 910 m 906 900 l 911 900 q 929 869 929 896 l 929 848 q 911 813 929 813 l 907 813 q 889 854 889 813 l 889 861 q 906 900 889 900 m 725 899 l 730 899 q 748 867 748 895 l 748 847 q 730 812 748 812 l 726 812 q 707 852 707 812 l 707 859 q 725 899 707 899 m 148 894 l 170 894 q 197 876 197 894 q 171 857 197 857 l 148 857 l 145 859 l 145 892 l 148 894 m 263 888 l 265 888 l 281 847 l 279 846 l 252 846 l 250 848 q 263 888 263 883 m 123 757 l 1514 757 l 1517 754 l 1517 665 l 1514 663 l 123 663 l 121 665 l 121 754 l 123 757 m 1480 747 l 1480 739 l 1488 739 l 1488 747 l 1480 747 m 240 739 q 216 722 240 736 l 216 713 l 254 713 q 258 706 258 712 l 258 704 l 255 701 l 209 701 l 207 704 l 207 724 l 199 724 l 199 704 l 196 701 l 188 701 l 186 704 l 186 724 l 178 724 l 178 704 l 176 701 l 168 701 l 165 704 l 165 724 l 158 724 l 158 692 l 155 688 l 143 688 l 140 692 l 140 696 l 138 724 l 132 724 l 132 682 l 157 682 q 166 693 165 682 q 182 698 180 693 q 191 693 187 693 q 203 698 198 693 q 212 693 208 693 l 264 693 l 264 713 q 258 720 264 720 l 230 720 l 227 722 q 245 734 237 727 l 240 739 m 311 736 l 311 730 l 319 730 l 319 736 l 311 736 m 633 736 l 633 730 l 641 730 l 641 736 l 633 736 m 832 736 l 832 730 l 839 730 l 839 736 l 832 736 m 844 736 l 844 730 l 852 730 l 852 736 l 844 736 m 891 736 l 891 730 l 898 730 l 898 736 l 891 736 m 903 736 l 903 730 l 911 730 l 911 736 l 903 736 m 1429 736 l 1430 730 l 1437 730 l 1437 736 l 1429 736 m 1474 736 l 1474 730 l 1481 730 l 1481 736 l 1474 736 m 1486 736 l 1486 730 l 1494 730 l 1494 736 l 1486 736 m 352 735 l 352 704 l 351 703 l 347 701 l 347 700 q 339 705 339 702 l 339 724 l 332 724 l 332 705 l 329 701 l 321 701 l 319 704 l 319 724 l 311 724 l 311 713 l 312 706 q 306 701 312 701 l 306 700 l 301 704 l 301 724 l 273 724 l 269 721 l 269 701 q 283 693 269 693 l 292 693 q 294 690 294 693 q 285 685 294 685 l 286 678 l 294 678 q 301 690 301 678 l 301 692 l 304 694 l 306 693 l 307 693 q 314 698 314 693 l 315 698 q 328 693 320 693 q 335 698 335 693 l 336 698 q 347 693 341 693 l 347 694 l 347 693 l 349 693 q 360 703 360 693 l 360 718 l 359 735 l 352 735 m 444 735 l 444 701 q 455 693 444 693 l 455 694 l 456 693 l 509 693 l 509 718 q 502 724 509 724 l 460 724 l 460 704 l 459 703 l 456 701 l 456 700 q 450 705 451 703 l 450 735 l 444 735 m 539 735 l 539 729 l 546 729 l 546 735 l 539 735 m 774 735 l 774 701 q 786 693 774 693 l 786 694 l 787 693 l 789 693 q 796 698 792 693 q 806 693 802 693 l 836 693 q 852 700 852 693 l 852 724 l 844 724 l 844 704 l 842 701 l 829 701 l 827 704 l 827 714 q 822 724 827 723 l 796 724 q 792 711 792 724 l 793 706 q 787 701 793 701 l 787 700 q 781 705 782 703 l 781 735 l 774 735 m 1409 735 l 1409 729 l 1417 729 l 1417 735 l 1409 735 m 1444 735 l 1444 701 q 1457 693 1444 693 l 1463 698 q 1473 693 1469 693 l 1475 693 q 1485 698 1480 693 q 1494 693 1489 693 q 1509 701 1509 693 l 1509 724 l 1501 724 l 1501 704 l 1498 701 l 1491 701 l 1488 704 l 1488 724 l 1480 724 l 1480 704 l 1478 701 l 1471 701 l 1467 705 l 1467 724 l 1460 724 l 1460 705 l 1457 701 l 1455 701 l 1451 705 l 1451 735 l 1444 735 m 385 721 l 385 701 q 399 693 385 693 l 408 693 l 410 691 l 410 688 l 408 685 l 401 685 l 401 678 l 413 678 l 418 683 l 418 724 l 389 724 l 385 721 m 552 721 l 552 701 q 566 693 552 693 l 574 693 l 576 691 l 576 688 l 574 685 l 568 685 l 568 678 l 579 678 l 584 683 l 584 724 l 555 724 l 552 721 m 592 724 l 592 718 l 613 718 q 616 711 616 716 l 616 704 l 614 701 l 589 701 l 589 693 l 629 693 q 636 698 636 693 l 637 698 q 652 693 642 693 q 669 698 669 693 l 669 724 l 661 724 l 661 705 l 658 701 l 643 701 l 641 704 l 641 724 l 633 724 l 633 713 l 633 706 l 630 701 l 626 701 l 623 704 l 623 718 q 616 724 623 724 l 592 724 m 674 721 l 674 701 q 688 693 674 693 l 696 693 l 699 691 l 699 688 l 696 685 l 690 685 l 690 678 l 702 678 l 707 683 l 707 724 l 677 724 l 674 721 m 736 724 l 736 688 q 730 685 736 685 l 730 678 l 740 678 q 746 693 743 678 l 753 693 q 769 698 769 693 l 769 718 q 762 724 769 724 l 736 724 m 878 724 l 878 701 q 892 693 878 693 l 909 693 q 926 700 926 693 l 926 724 l 918 724 l 918 724 l 919 704 l 916 701 l 888 701 l 884 705 l 884 724 l 878 724 m 930 721 l 930 701 q 944 693 930 693 l 954 693 q 956 690 956 693 q 947 685 956 685 l 947 678 l 956 678 q 963 690 963 678 q 975 693 963 693 q 983 704 981 693 l 981 724 l 975 724 l 975 704 l 972 701 l 965 701 l 963 704 l 963 724 l 934 724 l 930 721 m 1008 724 l 1008 701 q 1023 693 1008 693 l 1056 693 l 1056 701 l 1034 716 l 1036 718 l 1056 718 l 1056 724 l 1029 724 q 1026 718 1026 724 q 1042 704 1026 709 l 1042 701 l 1018 701 l 1015 705 l 1015 724 l 1008 724 m 1061 724 l 1061 718 l 1080 718 l 1082 715 l 1082 704 l 1080 701 l 1061 701 l 1061 693 l 1075 693 q 1090 701 1090 693 l 1088 707 l 1088 721 q 1082 724 1087 724 l 1061 724 m 1114 724 l 1114 701 q 1129 693 1114 693 l 1162 693 l 1162 701 l 1141 716 l 1141 718 l 1162 718 l 1162 724 l 1136 724 q 1133 718 1133 724 q 1149 704 1133 709 l 1149 701 l 1124 701 l 1121 705 l 1121 724 l 1114 724 m 1168 721 l 1168 701 q 1182 693 1168 693 l 1190 693 l 1192 691 l 1192 688 l 1190 685 l 1184 685 l 1184 678 l 1196 678 l 1200 683 l 1200 724 l 1172 724 l 1168 721 m 1225 724 l 1225 701 q 1240 693 1225 693 l 1274 693 l 1274 701 l 1251 716 l 1253 718 l 1274 718 l 1274 724 l 1246 724 q 1243 718 1243 724 q 1259 704 1243 709 l 1259 701 l 1235 701 l 1232 705 l 1232 724 l 1225 724 m 1278 724 l 1278 718 l 1297 718 l 1299 715 l 1299 704 l 1297 701 l 1278 701 l 1278 693 l 1292 693 q 1307 701 1307 693 l 1305 707 l 1305 721 q 1299 724 1304 724 l 1278 724 m 1331 716 l 1331 705 q 1345 693 1331 693 l 1351 693 q 1364 698 1364 693 l 1364 718 q 1358 724 1364 724 l 1335 724 q 1331 716 1331 722 m 1371 724 l 1371 718 l 1389 718 l 1391 715 l 1391 704 l 1389 701 l 1371 701 l 1371 693 l 1384 693 q 1399 701 1399 693 l 1398 707 l 1398 721 q 1391 724 1397 724 l 1371 724 m 1430 724 l 1430 704 q 1422 701 1430 701 l 1422 700 q 1417 704 1417 702 l 1417 721 l 1409 721 l 1409 688 q 1402 685 1409 685 l 1402 678 l 1413 678 q 1419 693 1417 678 l 1421 693 l 1421 694 l 1422 693 l 1423 693 q 1437 698 1437 693 l 1437 724 l 1430 724 m 539 721 l 539 688 q 533 685 539 685 l 533 678 l 543 678 q 547 686 547 680 l 547 721 l 539 721 m 279 718 l 291 718 l 293 715 l 293 704 l 291 701 l 279 701 l 276 705 l 276 714 l 279 718 m 395 718 l 408 718 l 410 715 l 410 704 l 408 701 l 395 701 l 393 704 l 393 715 l 395 718 m 470 718 l 478 718 q 481 711 481 716 l 481 705 l 478 701 l 471 701 l 467 705 l 467 715 l 470 718 m 490 718 l 498 718 q 502 711 502 716 l 502 704 l 500 701 l 490 701 l 488 704 l 488 715 l 490 718 m 561 718 l 574 718 l 576 715 l 576 704 l 574 701 l 561 701 l 559 704 l 559 715 l 561 718 m 684 718 l 696 718 l 699 715 l 699 704 l 696 701 l 684 701 l 681 704 l 681 715 l 684 718 m 758 718 q 762 711 762 716 l 762 705 l 758 701 l 747 701 q 743 716 743 701 l 745 718 l 758 718 m 802 718 l 816 718 l 819 715 l 819 704 l 816 701 l 802 701 l 800 704 l 800 715 l 802 718 m 941 718 l 952 718 l 955 715 l 955 704 l 952 701 l 941 701 l 937 705 l 937 714 l 941 718 m 1177 718 l 1190 718 l 1192 715 l 1192 704 l 1190 701 l 1177 701 l 1175 704 l 1175 715 l 1177 718 m 1341 718 l 1354 718 l 1358 714 l 1358 704 l 1355 701 l 1341 701 l 1339 704 l 1339 715 l 1341 718 m 327 688 l 327 682 l 334 682 l 334 688 l 327 688 m 338 688 l 338 682 l 347 682 l 347 688 l 338 688 m 649 688 l 649 682 l 656 682 l 656 688 l 649 688 m 661 688 l 661 682 l 669 682 l 669 688 l 661 688 m 970 688 l 970 682 l 977 682 l 977 688 l 970 688 m 123 648 l 1514 648 l 1517 646 l 1517 557 l 1514 555 l 123 555 l 121 557 l 121 646 l 123 648 m 1032 635 l 1029 632 l 1031 632 l 1034 633 l 1040 631 l 1041 632 l 1041 633 l 1032 635 m 570 624 l 570 623 l 572 623 q 591 630 581 630 l 591 633 q 570 624 570 628 m 294 627 q 302 591 297 591 l 313 591 l 339 591 l 339 596 l 330 596 q 321 604 323 600 l 321 607 l 324 610 l 328 610 l 336 608 l 338 612 l 328 616 l 327 616 q 315 606 315 614 l 315 603 l 319 597 l 319 596 l 313 596 l 312 597 l 311 596 l 307 596 q 300 627 302 596 l 294 627 m 367 627 l 370 606 l 368 606 l 347 625 l 345 622 l 365 600 l 365 599 q 351 593 360 593 l 351 587 q 372 594 355 587 q 381 591 372 591 l 412 591 q 426 603 420 591 q 412 614 426 612 q 391 603 408 614 l 391 604 q 388 627 391 627 l 385 627 l 387 597 l 385 596 l 382 596 q 374 611 374 596 l 373 627 l 367 627 m 429 627 l 433 596 l 432 595 l 433 591 l 436 589 l 436 591 l 437 596 l 435 627 l 429 627 m 495 627 l 498 596 l 498 595 l 498 591 l 502 589 l 502 591 l 503 596 l 501 627 l 495 627 m 615 627 q 623 591 618 591 l 631 591 l 631 591 l 633 591 l 650 591 l 650 599 q 643 609 650 605 l 641 607 l 641 606 l 645 597 l 633 595 q 622 619 622 595 l 621 627 l 615 627 m 717 627 q 725 591 720 591 q 740 583 740 591 q 753 576 747 576 q 763 585 763 578 l 761 589 l 766 591 l 768 591 l 769 591 l 778 595 l 779 595 l 787 591 l 798 596 q 809 591 800 591 l 820 591 l 820 596 q 812 610 820 606 l 809 604 q 814 597 814 604 l 812 596 l 806 596 q 801 606 802 596 q 792 597 795 606 l 787 596 q 783 606 783 596 q 774 599 774 604 l 768 595 q 756 599 756 596 q 760 608 760 600 q 755 614 758 613 l 753 614 q 735 596 745 614 l 730 596 q 723 627 724 596 l 717 627 m 1033 627 l 1037 596 l 1036 595 l 1037 591 l 1040 589 l 1040 591 l 1041 596 l 1039 627 l 1033 627 m 1095 627 q 1103 591 1098 591 l 1112 591 l 1112 591 l 1113 591 l 1114 591 l 1122 593 q 1141 588 1133 588 l 1143 591 l 1164 591 l 1164 599 q 1158 609 1164 605 l 1156 607 l 1156 606 l 1160 597 l 1159 596 l 1144 596 q 1139 607 1141 596 l 1131 612 q 1116 596 1124 612 l 1113 595 q 1103 619 1103 595 l 1101 627 l 1095 627 m 1325 627 l 1329 596 l 1328 595 l 1329 591 l 1332 589 l 1332 591 l 1333 596 l 1331 627 l 1325 627 m 567 615 l 567 611 q 579 606 567 610 l 583 597 l 582 596 l 560 596 q 553 608 557 597 l 549 611 l 546 607 q 552 596 549 607 l 552 593 q 536 581 552 587 l 536 580 l 539 576 q 557 591 547 578 l 589 591 l 589 597 q 576 615 589 604 q 592 619 584 619 l 592 625 l 591 625 q 567 615 579 625 m 605 624 l 602 619 l 606 616 l 608 622 l 605 624 m 995 624 l 991 619 l 995 617 l 998 621 l 995 624 m 1003 624 l 1001 621 l 1004 617 l 1008 621 l 1003 624 m 1018 624 l 1015 619 l 1019 616 l 1023 621 l 1018 624 m 1152 624 l 1149 621 q 1153 616 1152 616 l 1157 621 l 1152 624 m 1158 619 l 1161 617 l 1164 621 q 1162 624 1162 621 l 1158 619 m 264 619 l 262 616 l 265 612 l 268 616 l 264 619 m 270 616 l 273 612 l 277 616 l 273 619 l 270 616 m 1198 619 l 1196 616 l 1200 612 l 1202 616 l 1198 619 m 1204 616 l 1207 612 l 1211 616 l 1207 619 l 1204 616 m 469 614 l 472 610 l 475 614 l 472 617 l 469 614 m 1407 617 q 1399 607 1407 614 l 1399 603 l 1401 597 l 1400 596 l 1392 596 q 1388 607 1390 596 l 1379 612 q 1364 596 1373 612 l 1358 596 q 1352 608 1356 597 l 1348 611 l 1345 607 q 1351 596 1348 607 l 1351 593 q 1335 581 1351 587 l 1335 580 l 1338 576 q 1356 591 1346 578 l 1371 593 q 1389 588 1381 588 q 1411 593 1389 590 l 1427 591 q 1432 597 1430 591 q 1407 617 1423 617 m 1062 594 l 1062 591 q 1070 572 1062 587 l 1076 573 q 1068 591 1068 587 l 1068 591 q 1091 600 1068 594 l 1092 604 l 1092 607 q 1080 616 1086 616 q 1069 600 1074 616 q 1062 594 1065 600 m 1452 594 l 1452 591 l 1455 588 l 1458 588 l 1473 593 l 1487 591 l 1501 591 l 1501 599 q 1494 609 1501 605 l 1491 607 l 1491 606 l 1496 597 l 1495 596 l 1485 596 q 1471 615 1471 596 q 1463 609 1464 615 q 1452 594 1452 602 m 208 600 l 208 597 q 217 591 211 591 l 225 594 l 227 593 l 227 591 q 202 583 222 583 l 201 583 l 201 576 l 203 576 q 232 593 227 576 q 219 614 232 604 l 218 614 q 208 600 208 614 m 674 600 l 674 597 q 684 591 677 591 l 692 594 l 692 593 l 692 591 q 669 583 688 583 l 667 583 l 667 576 l 669 576 q 699 593 694 576 q 686 614 699 604 l 684 614 q 674 600 674 614 m 829 600 l 829 597 q 838 591 832 591 l 846 594 l 847 593 l 847 591 q 823 583 842 583 l 822 583 l 822 576 l 824 576 q 853 593 848 576 q 840 614 853 604 l 839 614 q 829 600 829 614 m 906 600 l 906 597 q 916 591 909 591 l 924 594 l 924 593 l 924 591 q 901 583 920 583 l 899 583 l 899 576 l 901 576 q 930 593 926 576 q 918 614 930 604 l 917 614 q 906 600 906 614 m 1234 600 l 1234 597 q 1250 591 1234 593 l 1250 589 q 1227 583 1249 584 l 1227 576 l 1230 576 q 1259 591 1249 576 l 1279 591 l 1279 599 q 1272 609 1279 605 l 1270 607 l 1270 606 l 1274 597 l 1274 596 l 1259 596 q 1246 614 1250 613 l 1244 614 q 1234 600 1234 614 m 1299 597 l 1299 596 q 1307 588 1299 588 l 1310 588 q 1320 595 1316 588 l 1320 601 q 1315 614 1319 614 l 1312 614 q 1299 597 1303 614 m 513 612 l 513 607 l 518 607 q 529 597 529 607 l 528 596 l 510 596 l 510 591 l 534 591 l 534 597 q 517 612 534 610 l 513 612 m 605 611 l 602 607 q 607 596 605 607 l 607 593 q 591 581 607 587 l 591 580 l 595 576 q 613 596 613 585 q 605 611 610 608 m 866 611 l 863 607 q 868 596 866 607 l 868 593 q 852 581 868 587 l 852 580 l 855 576 q 874 591 864 578 l 896 591 l 896 599 q 889 609 896 605 l 886 607 l 886 606 l 891 597 l 890 596 l 876 596 q 869 608 874 597 l 866 611 m 989 596 l 970 596 l 970 591 l 977 591 l 977 589 q 962 583 971 583 l 957 583 q 952 591 952 585 l 955 600 l 954 600 q 947 587 947 594 q 959 576 950 576 l 963 576 q 985 591 975 576 q 1000 595 994 591 l 1001 595 q 1013 591 1006 591 l 1027 591 l 1027 599 q 1021 609 1027 605 l 1018 607 l 1018 606 l 1023 597 l 1021 596 l 1013 596 l 1011 597 l 1010 596 l 1009 596 q 1004 600 1004 598 l 1004 606 l 1006 611 q 996 599 998 611 l 989 596 m 250 596 q 267 588 253 588 l 290 591 l 290 596 q 281 609 288 609 l 281 608 l 281 606 l 285 597 q 263 594 285 595 q 255 600 257 594 l 258 609 l 255 609 q 250 596 252 609 m 480 606 q 486 593 486 597 q 475 584 483 584 l 473 584 q 464 587 465 584 l 464 589 l 465 597 l 462 600 l 460 600 l 458 589 l 458 586 q 471 578 464 578 l 473 578 q 490 591 490 581 l 490 594 q 484 609 490 603 l 480 606 m 1080 610 l 1082 610 l 1086 606 l 1086 603 l 1077 602 l 1076 603 l 1076 604 q 1080 610 1078 610 m 1184 596 q 1200 588 1187 588 l 1223 591 l 1223 596 q 1215 609 1223 609 l 1215 608 l 1215 606 l 1219 597 q 1197 594 1219 595 q 1189 600 1191 594 l 1192 609 l 1189 609 q 1184 596 1185 609 m 217 608 l 218 608 q 224 600 224 604 l 215 597 l 212 600 q 217 608 215 608 m 414 608 l 416 608 l 420 603 q 414 596 418 598 l 398 596 l 396 599 q 414 608 406 608 m 684 608 l 684 608 q 690 600 690 604 l 681 597 l 679 600 q 684 608 682 608 m 750 608 l 751 608 l 753 606 l 753 604 q 745 597 749 597 l 743 599 q 750 608 747 607 m 838 608 l 839 608 q 845 600 845 604 l 836 597 l 833 600 q 838 608 836 608 m 916 608 l 917 608 q 922 600 922 604 l 913 597 l 911 600 q 916 608 913 608 m 1243 608 l 1244 608 q 1251 597 1251 603 l 1250 596 l 1249 596 q 1238 602 1238 597 q 1243 608 1241 608 m 1312 608 l 1312 608 l 1315 606 l 1315 597 l 1312 594 l 1305 594 l 1303 596 q 1312 608 1305 605 m 1406 608 l 1411 608 q 1413 604 1413 608 q 1409 600 1411 600 l 1409 600 l 1402 604 l 1406 608 m 1417 607 l 1420 607 q 1427 599 1422 607 l 1427 597 l 1425 595 q 1415 599 1415 596 l 1417 607 m 1129 606 l 1133 606 q 1137 595 1135 606 l 1136 594 q 1124 600 1124 597 q 1129 606 1126 605 m 1377 606 l 1381 606 q 1385 595 1383 606 l 1384 594 q 1373 600 1373 597 q 1377 606 1375 605 m 1466 604 l 1468 597 l 1459 594 l 1458 595 l 1457 595 q 1466 604 1457 599 m 134 587 l 134 586 l 137 583 l 141 586 q 137 591 139 591 l 134 587 m 153 587 l 153 586 l 156 583 l 159 586 l 156 591 l 153 587 m 171 587 l 171 586 l 174 583 l 178 586 l 174 591 l 171 587 m 743 591 l 745 591 q 758 585 758 589 l 758 584 l 755 581 l 753 581 q 743 591 743 581 m 640 581 l 640 580 l 643 576 l 645 580 l 642 584 l 640 581 m 881 580 l 884 576 l 888 581 l 884 584 l 881 580 m 889 580 l 893 576 l 896 580 l 892 584 l 889 580 m 1269 581 l 1269 580 l 1272 576 l 1274 580 l 1271 584 l 1269 581 m 1491 581 l 1491 580 l 1494 576 l 1496 580 l 1493 584 l 1491 581 m 888 71 l 889 71 q 901 62 895 62 q 910 71 905 62 l 912 71 q 916 66 916 69 l 916 62 q 903 41 916 46 l 903 41 l 904 29 q 897 6 902 6 l 896 6 q 889 36 892 6 l 880 55 q 888 71 886 69 m 936 67 l 943 67 q 945 64 945 67 q 941 59 945 59 l 935 58 l 935 52 l 941 52 l 942 50 l 942 45 l 941 44 l 935 44 l 935 12 l 933 11 l 926 11 l 925 12 l 925 44 l 921 44 l 920 45 l 920 50 l 921 52 l 925 52 l 925 53 q 936 67 925 67 m 822 66 l 828 66 l 829 65 l 829 58 l 828 57 l 822 57 l 821 58 l 821 65 l 822 66 m 1057 66 l 1063 66 l 1064 65 l 1064 58 l 1063 57 l 1057 57 l 1055 58 l 1055 65 l 1057 66 m 857 53 l 860 53 q 873 37 873 53 l 873 12 l 871 11 l 865 11 l 863 12 l 863 33 q 857 45 863 45 q 848 31 848 45 l 848 12 l 846 11 l 840 11 l 839 12 l 839 50 l 840 52 l 846 52 q 847 48 847 52 q 857 53 852 53 m 962 53 l 966 53 q 980 41 980 53 l 980 23 q 982 12 980 17 l 981 11 l 975 11 l 972 14 q 958 10 966 10 q 944 22 944 10 l 944 23 q 965 37 944 35 l 971 37 l 971 39 q 964 45 971 45 l 962 45 q 953 37 956 45 l 945 39 q 962 53 947 53 m 1004 53 l 1006 53 q 1013 50 1013 52 l 1013 49 q 1009 42 1011 42 l 1005 43 q 999 33 999 43 l 999 12 l 998 11 l 991 11 l 989 12 l 989 50 l 991 52 l 997 52 q 998 50 998 52 q 1004 53 1002 53 m 1028 53 l 1031 53 q 1046 40 1046 53 l 1038 39 q 1031 45 1037 45 l 1030 45 q 1023 42 1025 45 l 1023 40 q 1043 33 1025 38 q 1048 24 1048 28 l 1048 24 q 1031 10 1048 12 l 1031 10 q 1014 24 1014 12 l 1014 24 q 1022 26 1014 26 q 1031 18 1023 18 q 1039 24 1039 18 q 1021 31 1039 26 q 1015 39 1015 35 l 1015 41 q 1028 53 1015 51 m 1115 53 q 1129 39 1129 50 l 1124 37 l 1122 37 q 1118 43 1121 37 l 1113 45 q 1103 35 1103 45 l 1103 28 q 1112 18 1103 20 q 1122 28 1120 18 l 1123 28 q 1130 26 1130 27 q 1112 10 1130 12 l 1111 10 q 1094 31 1097 10 l 1094 32 q 1111 53 1096 53 l 1115 53 m 1149 53 l 1152 53 q 1171 33 1168 53 l 1171 32 q 1160 12 1171 17 q 1152 10 1157 10 q 1133 29 1133 12 l 1133 35 q 1149 53 1136 53 m 1196 53 l 1198 53 q 1208 47 1204 53 q 1219 53 1213 53 l 1221 53 q 1233 36 1233 53 l 1233 12 l 1232 11 l 1225 11 l 1224 12 l 1224 35 q 1218 45 1224 45 q 1211 36 1211 45 l 1211 12 l 1208 11 l 1202 11 l 1201 12 l 1201 39 q 1195 45 1201 45 q 1187 33 1187 45 l 1187 12 l 1186 11 l 1180 11 l 1178 12 l 1178 50 l 1180 52 l 1185 52 q 1187 49 1187 52 q 1196 53 1192 53 m 583 52 q 592 26 586 52 q 600 51 593 26 l 600 52 l 607 52 q 614 27 608 51 l 615 27 q 624 52 620 45 l 639 52 q 647 26 642 52 q 655 51 648 26 l 656 52 l 663 52 q 670 27 664 51 l 671 27 q 679 52 675 45 l 694 52 q 702 26 696 52 q 709 51 703 26 l 710 52 l 718 52 q 725 27 719 51 l 726 27 q 734 52 730 45 l 740 52 l 741 50 q 728 11 729 12 l 722 11 q 713 36 720 12 l 713 36 q 705 11 708 11 l 699 11 q 687 50 697 12 l 686 50 q 673 11 675 11 l 667 11 q 659 36 665 12 l 659 36 q 650 11 653 11 l 644 11 q 632 50 642 12 l 631 50 q 617 11 619 11 l 611 11 q 604 36 609 12 l 603 36 q 595 11 597 11 l 589 11 q 576 51 587 13 l 576 52 l 583 52 m 768 52 q 776 26 770 52 q 784 51 777 26 l 785 52 l 791 52 q 799 27 793 51 l 800 27 q 808 52 804 45 l 814 52 l 816 50 q 802 11 804 12 l 795 11 q 788 36 793 12 l 787 36 q 780 11 782 11 l 773 11 q 760 51 772 13 l 761 52 l 768 52 m 822 52 l 828 52 l 829 50 l 829 12 l 828 11 l 822 11 l 821 12 l 821 50 l 822 52 m 1057 52 l 1063 52 l 1064 50 l 1064 12 l 1063 11 l 1057 11 l 1055 12 l 1055 50 l 1057 52 m 1141 34 l 1141 29 q 1152 18 1143 18 q 1162 31 1160 18 q 1152 45 1160 45 q 1141 34 1141 45 m 954 24 l 954 20 q 958 18 955 18 l 962 18 q 971 28 970 18 l 971 30 q 954 24 954 27 m 745 21 l 753 21 l 754 20 l 754 12 l 753 11 l 745 11 l 744 12 l 744 20 l 745 21 m 1077 21 l 1084 21 l 1085 20 l 1085 12 l 1084 11 l 1077 11 l 1076 12 l 1076 20 l 1077 21 z "},"ª":{"ha":463,"x_min":28,"x_max":438,"o":"m 334 608 q 178 543 260 543 q 73 577 114 543 q 28 676 28 613 q 67 767 28 732 q 117 794 87 785 q 178 807 138 801 l 267 821 q 326 833 292 824 q 321 882 326 869 q 288 916 313 903 q 230 926 266 926 q 129 850 140 926 l 45 871 q 111 969 54 936 q 231 998 160 998 q 414 850 414 998 l 413 666 q 438 554 412 586 l 348 554 q 334 608 336 578 m 326 762 q 208 739 292 753 q 119 676 119 726 q 199 616 119 616 q 320 699 294 616 q 326 762 325 711 z "},"«":{"ha":652,"x_min":61,"x_max":595,"o":"m 595 9 l 541 9 l 292 284 l 536 552 l 587 552 l 436 284 l 595 9 m 361 9 l 309 9 l 61 284 l 309 552 l 361 552 l 208 284 l 361 9 z "},"¬":{"ha":730,"x_min":70,"x_max":661,"o":"m 661 347 l 557 347 l 557 614 l 70 614 l 70 716 l 661 716 l 661 347 z "},"­":{"ha":416,"x_min":39,"x_max":377,"o":"m 39 356 l 39 467 l 377 467 l 377 356 l 39 356 z "},"®":{"ha":921,"x_min":2,"x_max":923,"o":"m 463 998 q 694 936 585 998 q 861 768 802 873 q 923 536 923 657 q 861 305 923 414 q 692 137 798 197 q 463 77 583 77 q 231 139 339 77 q 63 308 122 201 q 2 536 2 418 q 65 770 2 661 q 236 938 128 880 q 463 998 347 998 m 463 921 q 270 869 360 921 q 130 729 180 818 q 78 536 78 637 q 130 344 78 434 q 271 203 182 254 q 463 153 363 153 q 656 205 566 153 q 796 346 747 257 q 846 536 846 437 q 794 731 846 640 q 651 871 741 823 q 463 921 559 921 m 260 282 l 260 778 l 431 778 q 534 770 502 778 q 619 716 591 758 q 643 644 643 682 q 601 545 643 585 q 501 504 561 509 q 543 477 528 492 q 616 379 574 448 l 677 282 l 579 282 l 535 360 q 452 475 484 452 q 387 493 429 493 l 340 493 l 340 282 l 260 282 m 340 561 l 437 561 q 558 637 558 561 q 512 702 558 684 q 431 711 490 711 l 340 711 l 340 561 z "},"¯":{"ha":690,"x_min":-19,"x_max":709,"o":"m -19 1043 l -19 1122 l 709 1122 l 709 1043 l -19 1043 z "},"°":{"ha":500,"x_min":78,"x_max":417,"o":"m 78 829 q 127 948 78 899 q 247 998 177 998 q 368 948 318 998 q 417 829 417 899 q 368 708 417 758 q 247 659 318 659 q 127 708 176 659 q 78 829 78 758 m 144 829 q 175 755 144 785 q 248 725 205 725 q 320 755 290 725 q 351 829 351 786 q 320 902 351 871 q 248 932 290 932 q 175 902 205 932 q 144 829 144 871 z "},"±":{"ha":730,"x_min":62,"x_max":675,"o":"m 675 448 l 406 448 l 406 215 l 334 215 l 334 448 l 62 448 l 62 518 l 334 518 l 334 793 l 406 793 l 406 518 l 675 518 l 675 448 m 675 124 l 675 54 l 62 54 l 62 124 l 675 124 z "},"²":{"ha":416,"x_min":15,"x_max":395,"o":"m 15 535 q 170 721 24 614 q 275 803 258 785 q 297 854 297 828 q 213 921 297 921 q 153 906 172 921 q 120 852 133 891 l 28 861 q 215 994 62 994 q 334 968 287 994 q 393 869 393 935 q 357 772 393 818 q 232 668 332 740 q 160 609 183 633 l 395 609 l 395 535 l 15 535 z "},"³":{"ha":416,"x_min":20,"x_max":394,"o":"m 20 654 l 109 664 q 141 614 121 627 q 203 595 168 595 q 269 616 242 595 q 299 676 299 639 q 202 743 299 743 q 185 743 197 743 q 168 742 174 742 l 182 809 q 277 871 277 808 q 204 926 277 926 q 118 863 142 926 l 31 878 q 96 968 56 943 q 205 994 134 994 q 373 879 373 994 q 289 781 373 806 q 394 665 394 755 q 334 557 394 595 q 209 524 282 524 q 20 654 47 524 z "},"´":{"ha":416,"x_min":136,"x_max":361,"o":"m 136 817 l 216 987 l 361 987 l 227 817 l 136 817 z "},"µ":{"ha":720,"x_min":98,"x_max":621,"o":"m 621 736 l 621 87 l 523 87 l 523 164 q 460 97 491 115 q 361 72 418 72 q 271 92 310 72 q 206 153 242 107 l 206 -161 l 98 -161 l 98 736 l 206 736 l 206 461 q 211 319 206 349 q 274 197 223 233 q 356 172 309 172 q 497 268 461 172 q 513 459 513 310 l 513 736 l 621 736 z "},"¶":{"ha":671,"x_min":1,"x_max":675,"o":"m 247 -161 l 247 477 q 70 548 136 483 q 1 725 1 615 q 83 920 1 852 q 290 982 159 982 l 675 982 l 675 877 l 588 877 l 588 -161 l 484 -161 l 484 877 l 348 877 l 348 -161 l 247 -161 z "},"·":{"ha":416,"x_min":303,"x_max":429,"o":"m 303 476 l 303 602 l 429 602 l 429 476 l 303 476 z "},"¸":{"ha":416,"x_min":65,"x_max":330,"o":"m 132 -7 l 163 102 l 245 102 l 225 36 q 330 -54 330 24 q 268 -145 330 -114 q 153 -170 220 -170 q 65 -162 103 -170 l 72 -91 q 130 -93 111 -93 q 228 -47 228 -93 q 195 -14 228 -24 q 132 -7 176 -7 z "},"¹":{"ha":416,"x_min":65,"x_max":290,"o":"m 202 535 l 202 873 q 65 804 140 823 l 65 879 q 224 994 160 909 l 290 994 l 290 535 l 202 535 z "},"º":{"ha":456,"x_min":27,"x_max":428,"o":"m 228 998 q 378 930 324 998 q 428 768 428 867 q 378 608 428 670 q 229 539 323 539 q 78 606 132 539 q 27 766 27 667 q 77 928 27 866 q 228 998 130 998 m 228 916 q 118 768 118 916 q 228 620 118 620 q 338 771 338 620 q 228 916 338 916 z "},"»":{"ha":652,"x_min":61,"x_max":595,"o":"m 595 284 l 347 9 l 296 9 l 446 284 l 294 552 l 347 552 l 595 284 m 365 284 l 116 9 l 61 9 l 218 284 l 69 552 l 120 552 l 365 284 z "},"¼":{"ha":1042,"x_min":65,"x_max":1024,"o":"m 154 53 l 827 998 l 922 998 l 250 53 l 154 53 m 202 535 l 202 873 q 65 804 140 823 l 65 879 q 224 994 160 909 l 290 994 l 290 535 l 202 535 m 873 68 l 873 163 l 639 163 l 639 237 l 886 527 l 961 527 l 961 229 l 1024 229 l 1024 163 l 961 163 l 961 68 l 873 68 m 873 229 l 873 389 l 732 229 l 873 229 z "},"½":{"ha":1042,"x_min":65,"x_max":1021,"o":"m 139 53 l 811 998 l 907 998 l 235 53 l 139 53 m 202 535 l 202 873 q 65 804 140 823 l 65 879 q 224 994 160 909 l 290 994 l 290 535 l 202 535 m 640 68 q 795 254 649 149 q 900 336 882 317 q 922 388 922 362 q 838 454 922 454 q 778 439 798 454 q 745 385 758 425 l 653 395 q 840 527 688 527 q 959 501 912 527 q 1018 403 1018 469 q 982 306 1018 351 q 857 201 955 272 q 785 142 806 163 l 1021 142 l 1021 68 l 640 68 z "},"¾":{"ha":1042,"x_min":20,"x_max":1024,"o":"m 154 53 l 826 998 l 922 998 l 250 53 l 154 53 m 20 654 l 109 664 q 141 614 121 627 q 203 595 168 595 q 269 616 242 595 q 299 676 299 639 q 204 743 299 746 q 168 742 192 743 l 182 809 q 277 871 277 808 q 204 926 277 926 q 118 863 142 926 l 31 878 q 96 968 56 943 q 205 994 134 994 q 373 879 373 994 q 289 781 373 806 q 394 665 394 755 q 334 557 394 595 q 209 524 282 524 q 20 654 47 524 m 872 68 l 872 163 l 639 163 l 639 237 l 886 527 l 961 527 l 961 229 l 1024 229 l 1024 163 l 961 163 l 961 68 l 872 68 m 872 229 l 872 389 l 732 229 l 872 229 z "},"¿":{"ha":764,"x_min":96,"x_max":673,"o":"m 448 750 l 448 625 l 322 625 l 322 750 l 448 750 m 440 530 q 441 499 441 509 q 422 385 441 432 q 379 313 408 349 q 298 236 363 294 q 227 157 243 187 q 210 92 210 127 q 261 -23 210 23 q 382 -69 313 -69 q 561 111 532 -69 l 673 98 q 583 -92 658 -25 q 384 -159 508 -159 q 185 -98 266 -159 q 96 84 96 -30 q 136 212 96 154 q 231 312 163 253 q 288 367 274 351 q 326 435 316 399 q 334 530 333 464 l 440 530 z "},"À":{"ha":833,"x_min":-1,"x_max":289,"o":"m 289 1045 q 270 1003 289 1021 q 226 985 250 985 q 177 1013 197 985 l 109 1114 q 25 1201 73 1164 q -1 1249 -1 1221 q 17 1293 -1 1274 q 59 1312 35 1312 q 196 1200 101 1312 q 289 1045 289 1088 z "},"×":{"ha":730,"x_min":85,"x_max":646,"o":"m 646 254 l 597 205 l 366 436 l 134 205 l 85 254 l 315 486 l 85 719 l 134 766 l 366 535 l 597 766 l 646 719 l 413 486 l 646 254 z "},"à":{"ha":695,"x_min":41,"x_max":332,"o":"m 332 859 q 312 817 332 835 q 269 799 293 799 q 220 827 239 799 l 152 928 q 68 1015 116 978 q 41 1063 41 1036 q 59 1107 41 1088 q 102 1126 77 1126 q 239 1014 144 1126 q 332 859 332 903 z "},"â":{"ha":695,"x_min":41,"x_max":428,"o":"m 237 920 l 168 817 l 41 817 l 174 987 l 291 987 l 428 817 l 304 817 l 237 920 z "},"ç":{"ha":625,"x_min":49,"x_max":614,"o":"m 251 5 l 273 80 q 130 160 188 98 q 49 410 49 247 q 190 711 49 633 q 345 751 261 751 q 604 545 564 751 l 496 529 q 349 661 466 661 q 162 412 162 661 q 342 163 162 163 q 506 325 483 163 l 614 311 q 528 141 597 204 q 352 73 458 75 l 345 48 q 449 -41 449 36 q 387 -133 449 -102 q 273 -157 339 -157 q 184 -150 222 -157 l 191 -79 q 248 -81 230 -81 q 347 -35 347 -81 q 314 -1 347 -12 q 251 5 295 5 z "},"è":{"ha":695,"x_min":42,"x_max":332,"o":"m 332 859 q 313 817 332 835 q 269 799 294 799 q 220 827 240 799 l 153 928 q 68 1015 117 978 q 42 1063 42 1036 q 60 1107 42 1088 q 102 1126 78 1126 q 239 1014 144 1126 q 332 859 332 903 z "},"é":{"ha":695,"x_min":42,"x_max":267,"o":"m 42 817 l 123 987 l 267 987 l 133 817 l 42 817 z "},"ê":{"ha":695,"x_min":42,"x_max":429,"o":"m 237 920 l 168 817 l 42 817 l 174 987 l 292 987 l 429 817 l 304 817 l 237 920 z "},"ë":{"ha":695,"x_min":42,"x_max":385,"o":"m 42 863 l 42 987 l 157 987 l 157 863 l 42 863 m 270 863 l 270 987 l 385 987 l 385 863 l 270 863 z "},"î":{"ha":347,"x_min":-18,"x_max":369,"o":"m 121 87 l 121 736 l 231 736 l 231 87 l 121 87 m 178 920 l 109 817 l -18 817 l 115 987 l 232 987 l 369 817 l 245 817 l 178 920 z "},"ï":{"ha":347,"x_min":4,"x_max":347,"o":"m 121 87 l 121 736 l 231 736 l 231 87 l 121 87 m 4 863 l 4 987 l 119 987 l 119 863 l 4 863 m 232 863 l 232 987 l 347 987 l 347 863 l 232 863 z "},"ô":{"ha":695,"x_min":41,"x_max":428,"o":"m 237 920 l 168 817 l 41 817 l 174 987 l 291 987 l 428 817 l 304 817 l 237 920 z "},"÷":{"ha":730,"x_min":62,"x_max":675,"o":"m 435 716 q 415 665 435 686 q 365 643 395 643 q 314 665 336 643 q 293 716 293 686 q 314 765 293 745 q 365 785 335 785 q 415 766 395 785 q 435 716 435 746 m 675 448 l 62 448 l 62 518 l 675 518 l 675 448 m 435 250 q 415 199 435 220 q 365 178 395 178 q 314 199 336 178 q 293 250 293 220 q 314 300 293 279 q 365 321 335 321 q 415 301 395 321 q 435 250 435 280 z "},"ù":{"ha":695,"x_min":73,"x_max":363,"o":"m 363 859 q 343 817 363 835 q 300 799 324 799 q 251 827 271 799 l 183 928 q 99 1015 147 978 q 73 1063 73 1036 q 91 1107 73 1088 q 133 1126 109 1126 q 270 1014 175 1126 q 363 859 363 903 z "},"û":{"ha":695,"x_min":80,"x_max":467,"o":"m 275 920 l 206 817 l 80 817 l 212 987 l 330 987 l 467 817 l 342 817 l 275 920 z "},"ü":{"ha":695,"x_min":80,"x_max":422,"o":"m 80 863 l 80 987 l 195 987 l 195 863 l 80 863 m 308 863 l 308 987 l 422 987 l 422 863 l 308 863 z "},"ÿ":{"ha":625,"x_min":18,"x_max":361,"o":"m 18 863 l 18 987 l 133 987 l 133 863 l 18 863 m 246 863 l 246 987 l 361 987 l 361 863 l 246 863 z "},"ı":{"ha":347,"x_min":121,"x_max":231,"o":"m 121 87 l 121 736 l 231 736 l 231 87 l 121 87 z "},"Œ":{"ha":1250,"x_min":79,"x_max":1211,"o":"m 1211 193 l 1211 87 l 684 87 l 684 217 q 440 72 602 72 q 161 214 256 72 q 79 536 79 338 q 158 855 79 735 q 440 998 252 998 q 684 861 601 998 l 684 982 l 1192 982 l 1192 877 l 795 877 l 795 603 l 1160 603 l 1160 498 l 795 498 l 795 193 l 1211 193 m 439 902 q 310 855 368 902 q 231 741 257 812 q 201 527 201 661 q 250 291 201 387 q 439 168 312 168 q 632 297 572 168 q 677 542 677 394 q 629 779 677 683 q 439 902 568 902 z "},"œ":{"ha":1180,"x_min":50,"x_max":1135,"o":"m 597 194 q 355 73 504 73 q 127 167 210 73 q 50 404 50 256 q 195 710 50 630 q 357 750 267 750 q 597 627 525 750 q 834 750 682 750 q 1066 640 988 750 q 1133 382 1135 543 l 655 382 q 705 229 656 290 q 848 163 758 163 q 1015 298 976 163 l 1125 283 q 846 73 1070 73 q 597 194 677 73 m 163 413 q 206 240 163 299 q 352 163 262 163 q 499 244 448 163 q 543 414 543 313 q 500 582 543 515 q 352 660 448 660 q 186 542 234 660 q 163 413 163 483 m 659 473 l 1017 473 q 968 606 1011 555 q 841 660 922 660 q 712 605 762 660 q 659 473 665 554 z "},"Š":{"ha":833,"x_min":56,"x_max":443,"o":"m 252 1110 l 182 1006 l 56 1006 l 189 1177 l 306 1177 l 443 1006 l 319 1006 l 252 1110 z "},"š":{"ha":625,"x_min":35,"x_max":422,"o":"m 230 884 l 297 987 l 422 987 l 284 817 l 167 817 l 35 987 l 161 987 l 230 884 z "},"Ÿ":{"ha":833,"x_min":3,"x_max":814,"o":"m 779 867 q 735 788 762 842 l 618 500 q 491 216 551 338 l 406 65 l 370 -8 q 310 -47 348 -47 q 262 -28 283 -47 q 240 21 240 -8 q 304 165 240 44 l 387 318 q 230 565 266 475 q 128 749 199 642 q 14 926 31 895 q 3 962 3 944 q 25 1011 3 991 q 73 1031 46 1031 q 129 1000 106 1031 l 183 916 q 278 770 255 809 q 357 616 329 687 q 453 462 380 559 l 608 840 q 682 985 635 887 q 745 1031 701 1031 q 793 1012 772 1031 q 814 963 814 993 q 779 867 814 932 m 218 1057 l 218 1181 l 332 1181 l 332 1057 l 218 1057 m 446 1057 l 446 1181 l 560 1181 l 560 1057 l 446 1057 z "},"ƒ":{"ha":695,"x_min":28,"x_max":662,"o":"m 28 -159 l 50 -65 q 142 -79 111 -79 q 201 -52 183 -79 q 220 14 212 -33 l 328 650 l 205 650 l 220 736 l 343 736 l 357 817 q 385 918 371 889 q 531 998 426 998 q 662 975 580 998 l 641 882 q 547 896 578 896 q 487 867 505 896 q 467 798 477 850 l 455 736 l 580 736 l 564 650 l 440 650 l 323 -16 q 278 -133 309 -97 q 165 -176 241 -176 q 28 -159 107 -176 z "},"ˆ":{"ha":416,"x_min":15,"x_max":401,"o":"m 210 920 l 141 817 l 15 817 l 147 987 l 264 987 l 401 817 l 277 817 l 210 920 z "},"ˇ":{"ha":416,"x_min":24,"x_max":411,"o":"m 219 884 l 286 987 l 411 987 l 273 817 l 156 817 l 24 987 l 150 987 l 219 884 z "},"،":{"ha":443,"x_min":116,"x_max":334,"o":"m 334 172 q 308 108 334 136 q 237 79 279 79 q 150 127 184 79 q 116 249 116 176 q 263 505 116 400 l 286 467 q 187 319 187 377 q 225 273 187 283 l 296 254 q 334 172 334 233 z "},"؛":{"ha":443,"x_min":109,"x_max":327,"o":"m 327 402 q 300 338 327 366 q 230 309 272 309 q 143 358 177 309 q 109 479 109 407 q 256 735 109 631 l 278 698 q 180 549 180 608 q 218 504 180 514 l 289 484 q 327 402 327 463 m 309 156 q 286 101 309 124 q 231 77 262 77 q 174 101 198 77 q 150 156 150 124 q 174 212 150 189 q 231 235 198 235 q 286 212 264 235 q 309 156 309 189 z "},"؟":{"ha":495,"x_min":45,"x_max":453,"o":"m 453 709 q 429 635 453 667 q 357 599 401 599 q 301 621 323 599 q 279 673 279 644 q 316 743 279 720 q 353 781 353 766 q 275 832 353 832 q 202 807 231 832 q 174 747 174 783 q 203 662 174 713 q 256 559 245 585 q 284 406 284 488 q 277 306 284 361 l 236 307 q 240 361 240 357 q 190 444 240 399 q 96 530 105 519 q 45 665 45 589 q 107 817 45 756 q 258 877 168 877 q 396 830 338 877 q 453 709 453 783 m 330 163 q 305 104 330 129 q 245 79 280 79 q 187 104 212 79 q 163 163 163 130 q 188 222 163 197 q 248 248 212 248 q 306 222 281 248 q 330 163 330 197 z "},"ء":{"ha":545,"x_min":121,"x_max":429,"o":"m 377 412 q 415 347 429 378 q 322 317 402 315 q 241 290 241 319 q 313 254 240 261 q 401 196 385 248 q 391 111 416 144 q 301 62 366 77 q 193 66 237 47 q 160 125 148 85 q 247 161 173 165 q 311 183 321 157 q 231 211 300 210 q 142 271 162 212 q 191 376 121 330 q 377 412 261 422 z "},"آ":{"ha":415,"x_min":78,"x_max":355,"o":"m 355 1010 q 256 961 311 961 q 175 977 215 961 q 120 994 135 994 q 85 984 107 994 l 78 993 q 144 1037 109 1037 q 200 1021 155 1037 q 274 1004 245 1004 q 345 1020 310 1004 l 355 1010 m 165 892 q 176 895 165 892 q 206 890 187 899 q 239 857 225 882 q 251 721 253 831 q 250 345 248 502 q 272 160 251 199 q 280 93 292 121 q 224 68 269 64 q 174 241 171 87 q 179 552 178 396 q 158 741 180 709 q 129 803 136 774 q 133 859 123 833 q 165 892 144 886 z "},"أ":{"ha":315,"x_min":100,"x_max":272,"o":"m 145 898 q 156 901 145 898 q 186 897 167 905 q 219 863 205 888 q 231 727 233 838 q 229 351 227 508 q 251 166 231 205 q 260 99 272 127 q 204 74 248 71 q 154 248 151 93 q 158 558 157 402 q 137 747 159 715 q 109 809 115 780 q 113 865 102 839 q 145 898 123 892 m 224 1119 q 242 1086 249 1102 q 197 1072 236 1071 q 158 1058 158 1073 q 193 1040 157 1044 q 235 1011 228 1037 q 231 968 243 985 q 187 944 218 951 q 134 946 156 937 q 119 976 113 956 q 161 994 125 996 q 192 1005 197 991 q 153 1019 186 1018 q 110 1049 119 1019 q 134 1101 100 1078 q 224 1119 168 1124 z "},"ؤ":{"ha":576,"x_min":-262,"x_max":600,"o":"m 501 269 q 433 378 489 378 q 387 334 387 378 q 501 269 387 267 m 594 214 q 525 -25 577 68 q 381 -195 473 -119 q 151 -277 266 -269 q -60 -264 37 -285 q -209 -219 -157 -243 q -261 -161 -260 -195 q -208 -148 -262 -127 q -105 -184 -153 -168 q 23 -209 -58 -199 q 184 -198 104 -218 q 330 -127 265 -178 q 438 -17 394 -77 q 494 93 482 42 q 501 172 505 144 q 327 301 322 175 q 406 458 332 427 q 539 417 479 490 q 594 214 600 345 m 338 687 q 367 643 378 664 q 295 623 357 621 q 233 604 233 624 q 288 579 232 584 q 356 539 344 574 q 348 480 368 503 q 279 446 329 456 q 196 449 230 436 q 171 490 161 463 q 237 515 180 517 q 287 530 294 512 q 225 549 279 548 q 156 591 172 550 q 194 663 140 631 q 338 687 248 694 z "},"إ":{"ha":355,"x_min":79,"x_max":259,"o":"m 122 901 q 133 904 122 901 q 163 899 144 907 q 196 866 182 891 q 208 730 210 840 q 206 353 204 511 q 228 169 208 208 q 237 101 249 130 q 181 77 225 73 q 131 250 127 96 q 135 561 134 405 q 114 750 136 718 q 86 812 92 783 q 90 868 79 842 q 122 901 100 895 m 234 22 q 253 -10 259 5 q 207 -25 246 -26 q 168 -38 168 -24 q 203 -56 168 -53 q 245 -85 238 -60 q 241 -128 253 -111 q 197 -153 229 -145 q 144 -151 166 -160 q 129 -121 123 -141 q 171 -103 135 -101 q 202 -92 207 -105 q 163 -78 197 -79 q 120 -48 130 -77 q 144 5 110 -18 q 234 22 178 28 z "},"ئ":{"ha":938,"x_min":45,"x_max":931,"o":"m 484 637 q 508 594 517 614 q 447 575 500 574 q 394 557 395 576 q 441 534 394 538 q 499 496 489 530 q 492 441 509 463 q 434 409 476 419 q 363 412 392 399 q 342 450 334 424 q 398 473 350 476 q 440 488 447 471 q 388 506 433 505 q 330 546 343 507 q 362 614 317 584 q 484 637 408 644 m 925 431 q 895 382 922 393 q 832 402 868 372 q 765 422 796 432 q 701 377 733 412 q 649 311 669 342 q 629 244 629 281 q 694 210 628 208 q 864 198 811 226 q 900 78 918 170 q 740 -91 882 -14 q 371 -172 583 -177 q 121 -62 197 -151 q 52 135 45 26 q 124 338 60 244 q 238 416 189 433 q 207 307 288 399 q 142 110 127 216 q 393 -56 172 -56 q 682 0 515 -56 q 784 95 778 52 q 701 125 789 138 q 559 161 612 112 q 536 227 536 183 q 561 331 536 271 q 656 461 586 391 q 829 530 726 530 q 905 493 880 521 q 925 431 931 466 z "},"ا":{"ha":350,"x_min":77,"x_max":271,"o":"m 239 190 q 255 174 239 190 q 245 121 271 157 q 177 112 218 85 q 135 193 136 138 q 135 487 134 248 q 129 705 134 658 q 100 782 123 752 q 81 851 77 812 q 120 906 86 890 q 179 877 153 921 q 207 648 205 833 q 207 420 207 503 q 207 279 206 336 q 239 190 208 222 z "},"ب":{"ha":977,"x_min":20,"x_max":994,"o":"m 204 706 l 224 706 q 102 482 102 573 l 102 421 q 573 197 102 197 l 655 197 q 897 267 859 197 q 855 400 936 376 q 775 455 774 424 q 860 523 768 535 q 994 340 983 472 l 991 303 q 634 96 983 96 q 20 421 20 96 q 204 706 20 549 m 532 1 q 580 -11 557 1 q 616 -44 603 -22 q 629 -90 629 -66 q 616 -134 629 -113 q 581 -168 604 -155 q 532 -180 557 -180 q 484 -168 507 -180 q 448 -134 461 -155 q 435 -90 435 -113 q 448 -44 435 -66 q 485 -11 461 -22 q 532 1 508 1 z "},"ة":{"ha":525,"x_min":47,"x_max":500,"o":"m 299 244 q 214 339 296 353 q 153 201 136 335 q 229 129 168 124 q 283 146 266 129 q 299 244 300 163 m 412 873 q 423 876 412 873 q 453 871 434 880 q 486 838 472 863 q 498 702 500 812 q 496 326 494 483 q 452 108 498 180 q 312 25 407 36 q 155 44 217 14 q 70 178 92 75 q 86 351 47 282 q 244 416 126 420 q 391 272 389 406 q 376 150 392 193 q 422 284 420 191 q 426 533 425 377 q 405 722 427 690 q 376 784 382 755 q 380 840 370 814 q 412 873 391 867 m 283 786 q 309 743 317 764 q 248 724 300 723 q 195 707 195 726 q 241 683 194 688 q 299 646 289 679 q 293 590 309 612 q 234 558 276 568 q 163 561 193 549 q 142 599 134 573 q 199 623 151 625 q 240 637 247 620 q 188 655 233 654 q 130 695 143 656 q 162 763 117 733 q 283 786 208 793 z "},"ت":{"ha":1013,"x_min":87,"x_max":1061,"o":"m 271 706 l 292 706 q 169 482 169 573 l 169 421 q 640 197 169 197 l 722 197 q 964 267 926 197 q 922 400 1003 376 q 842 455 841 424 q 927 523 836 535 q 1061 340 1050 472 l 1059 303 q 701 96 1050 96 q 87 421 87 96 q 271 706 87 549 m 456 677 q 494 668 475 677 q 524 642 513 659 q 534 606 534 625 q 524 571 534 588 q 495 545 513 554 q 456 535 476 535 q 417 545 435 535 q 388 571 398 554 q 377 606 377 588 q 388 642 377 625 q 417 668 398 659 q 456 677 436 677 m 712 711 q 750 702 732 711 q 780 675 769 692 q 791 640 791 659 q 780 605 791 622 q 751 578 770 588 q 712 569 732 569 q 673 578 692 569 q 644 605 654 588 q 633 640 633 622 q 644 675 633 659 q 673 702 654 692 q 712 711 692 711 z "},"ث":{"ha":1028,"x_min":87,"x_max":1061,"o":"m 271 706 l 292 706 q 169 482 169 573 l 169 421 q 640 197 169 197 l 722 197 q 964 267 926 197 q 922 400 1003 376 q 842 455 841 424 q 927 523 836 535 q 1061 340 1050 472 l 1059 303 q 701 96 1050 96 q 87 421 87 96 q 271 706 87 549 m 456 677 q 494 668 475 677 q 524 642 513 659 q 534 606 534 625 q 524 571 534 588 q 495 545 513 554 q 456 535 476 535 q 417 545 435 535 q 388 571 398 554 q 377 606 377 588 q 388 642 377 625 q 417 668 398 659 q 456 677 436 677 m 712 711 q 750 702 732 711 q 780 675 769 692 q 791 640 791 659 q 780 605 791 622 q 751 578 770 588 q 712 569 732 569 q 673 578 692 569 q 644 605 654 588 q 633 640 633 622 q 644 675 633 659 q 673 702 654 692 q 712 711 692 711 m 550 888 q 588 879 570 888 q 618 852 607 869 q 629 817 629 836 q 618 782 629 799 q 589 755 608 765 q 550 746 570 746 q 511 755 530 746 q 482 782 492 765 q 471 817 471 799 q 482 852 471 836 q 511 879 492 869 q 550 888 530 888 z "},"ج":{"ha":782,"x_min":28,"x_max":810,"o":"m 712 -384 q 671 -397 712 -384 q 512 -407 631 -410 q 292 -364 393 -405 q 96 -56 96 -286 q 205 228 96 106 q 323 330 258 287 q 531 416 388 373 q 371 546 451 446 q 216 624 292 646 q 124 546 141 601 q 143 479 108 491 q 183 435 179 467 q 152 392 186 402 q 77 410 117 381 q 33 498 37 439 q 67 615 28 557 q 157 695 106 673 q 267 711 208 717 q 373 672 325 705 q 472 573 421 640 q 586 480 524 506 q 695 455 648 455 q 747 417 741 455 q 700 362 753 378 q 374 268 478 326 q 178 -7 198 169 q 319 -289 159 -231 q 576 -327 478 -347 q 709 -284 674 -307 q 777 -267 743 -260 q 802 -315 810 -273 q 712 -384 793 -358 m 515 169 q 552 159 534 169 q 581 131 570 149 q 591 93 591 113 q 581 55 591 73 q 553 27 571 37 q 515 18 534 18 q 477 27 495 18 q 448 55 458 37 q 438 93 438 73 q 448 131 438 113 q 477 159 458 149 q 515 169 495 169 z "},"ح":{"ha":782,"x_min":28,"x_max":810,"o":"m 712 -384 q 671 -397 712 -384 q 512 -407 631 -410 q 292 -364 393 -405 q 96 -56 96 -286 q 205 228 96 106 q 323 330 258 287 q 531 416 388 373 q 371 546 451 446 q 216 624 292 646 q 124 546 141 601 q 143 479 108 491 q 183 435 179 467 q 152 392 186 402 q 77 410 117 381 q 33 498 37 439 q 67 615 28 557 q 157 695 106 673 q 267 711 208 717 q 373 672 325 705 q 472 573 421 640 q 586 480 524 506 q 695 455 648 455 q 747 417 741 455 q 700 362 753 378 q 374 268 478 326 q 178 -7 198 169 q 319 -289 159 -231 q 576 -327 478 -347 q 709 -284 674 -307 q 777 -267 743 -260 q 802 -315 810 -273 q 712 -384 793 -358 z "},"خ":{"ha":782,"x_min":28,"x_max":810,"o":"m 712 -384 q 671 -397 712 -384 q 512 -407 631 -410 q 292 -364 393 -405 q 96 -56 96 -286 q 205 228 96 106 q 323 330 258 287 q 531 416 388 373 q 371 546 451 446 q 216 624 292 646 q 124 546 141 601 q 143 479 108 491 q 183 435 179 467 q 152 392 186 402 q 77 410 117 381 q 33 498 37 439 q 67 615 28 557 q 157 695 106 673 q 267 711 208 717 q 373 672 325 705 q 472 573 421 640 q 586 480 524 506 q 695 455 648 455 q 747 417 741 455 q 700 362 753 378 q 374 268 478 326 q 178 -7 198 169 q 319 -289 159 -231 q 576 -327 478 -347 q 709 -284 674 -307 q 777 -267 743 -260 q 802 -315 810 -273 q 712 -384 793 -358 m 475 884 q 512 874 494 884 q 541 846 530 864 q 551 808 551 828 q 541 770 551 788 q 513 742 531 752 q 475 732 494 732 q 437 742 455 732 q 408 770 418 752 q 398 808 398 788 q 408 846 398 828 q 437 874 418 864 q 475 884 455 884 z "},"د":{"ha":490,"x_min":85,"x_max":541,"o":"m 182 657 l 203 657 q 248 613 245 657 q 218 532 252 569 q 189 462 185 495 q 541 207 203 307 l 541 84 q 257 19 353 66 q 123 10 161 -28 q 97 87 85 47 q 351 153 111 153 q 118 504 118 297 l 118 526 q 182 657 124 627 z "},"ذ":{"ha":469,"x_min":56,"x_max":512,"o":"m 153 668 l 174 668 q 220 624 216 668 q 190 543 223 580 q 160 473 157 506 q 512 218 174 317 l 512 95 q 229 30 325 77 q 95 21 133 -17 q 68 98 56 58 q 322 164 83 163 q 90 515 90 308 l 90 536 q 153 668 96 638 m 352 540 q 381 532 367 540 q 404 509 395 524 q 412 479 412 494 q 404 449 412 463 q 382 426 396 434 q 352 418 368 418 q 322 426 336 418 q 300 449 308 434 q 292 479 292 463 q 300 509 292 494 q 323 532 309 524 q 352 540 337 540 z "},"ر":{"ha":532,"x_min":-315,"x_max":547,"o":"m 535 202 q 470 -38 519 56 q 329 -207 420 -132 q 99 -289 214 -281 q -113 -276 -16 -297 q -261 -232 -210 -256 q -314 -174 -313 -208 q -260 -160 -315 -140 q -158 -196 -205 -180 q -29 -221 -110 -212 q 132 -210 52 -230 q 277 -139 213 -190 q 386 -30 342 -89 q 439 118 430 30 q 415 235 449 207 q 380 307 382 264 q 414 368 378 350 q 499 359 450 387 q 535 202 547 332 z "},"ز":{"ha":528,"x_min":-366,"x_max":496,"o":"m 484 240 q 418 0 468 94 q 277 -169 369 -94 q 47 -251 162 -243 q -164 -238 -67 -259 q -313 -194 -261 -218 q -365 -136 -364 -170 q -312 -122 -366 -102 q -209 -158 -257 -142 q -81 -183 -161 -174 q 81 -172 0 -192 q 226 -101 161 -152 q 334 8 290 -51 q 388 156 378 68 q 364 273 397 245 q 329 345 330 302 q 363 406 327 388 q 447 397 399 425 q 484 240 496 370 m 292 622 q 327 613 310 622 q 354 589 344 605 q 363 557 363 574 q 354 524 363 540 q 328 500 345 509 q 292 492 311 492 q 256 500 273 492 q 230 524 239 509 q 220 557 220 540 q 230 589 220 574 q 257 613 239 605 q 292 622 274 622 z "},"س":{"ha":1331,"x_min":24,"x_max":1367,"o":"m 1361 240 q 1359 197 1361 240 q 1313 112 1356 153 q 1206 69 1269 71 q 1117 90 1144 67 q 1061 90 1090 113 q 943 62 1032 67 q 857 92 887 67 q 837 70 827 117 q 844 -50 846 22 q 796 -192 842 -121 q 662 -308 751 -263 q 445 -353 572 -352 q 225 -308 317 -355 q 79 -171 134 -260 q 36 42 24 -81 q 127 231 48 166 q 145 193 205 295 q 90 9 85 92 q 149 -145 95 -73 q 282 -239 203 -217 q 444 -259 361 -262 q 618 -222 528 -256 q 743 -104 709 -189 q 747 84 776 -19 q 727 214 719 186 q 762 256 734 242 q 815 261 789 269 q 856 216 840 253 q 915 167 872 179 q 991 169 958 155 q 1029 215 1023 184 q 1047 256 1034 246 q 1088 263 1059 267 q 1130 222 1118 260 q 1198 187 1142 184 q 1252 228 1238 187 q 1250 297 1265 269 q 1198 333 1234 324 q 1148 366 1162 342 q 1144 423 1134 390 q 1190 471 1154 456 q 1266 468 1225 486 q 1337 389 1307 450 q 1361 240 1367 328 z "},"ش":{"ha":1320,"x_min":11,"x_max":1353,"o":"m 1348 242 q 1345 199 1348 242 q 1299 114 1343 155 q 1193 71 1255 73 q 1104 92 1131 69 q 1048 92 1077 115 q 929 64 1019 69 q 844 94 873 69 q 823 72 814 119 q 830 -47 832 24 q 783 -190 828 -119 q 648 -306 737 -261 q 431 -351 559 -350 q 212 -306 303 -353 q 65 -169 120 -258 q 23 44 11 -79 q 113 233 35 168 q 132 195 192 297 q 76 11 71 94 q 135 -143 81 -71 q 268 -237 189 -215 q 431 -257 347 -260 q 605 -220 514 -254 q 729 -102 696 -187 q 734 86 762 -17 q 713 216 705 189 q 748 258 721 244 q 801 263 776 271 q 843 218 827 255 q 902 169 859 181 q 977 171 945 157 q 1015 217 1010 186 q 1033 258 1021 248 q 1075 266 1046 269 q 1116 224 1104 262 q 1184 189 1128 186 q 1238 230 1225 189 q 1236 299 1251 271 q 1185 335 1221 326 q 1135 368 1149 344 q 1130 425 1120 392 q 1176 473 1140 458 q 1253 470 1212 488 q 1323 391 1293 452 q 1348 242 1353 330 m 1044 592 q 1078 583 1061 592 q 1104 558 1095 574 q 1114 524 1114 542 q 1104 490 1114 507 q 1079 465 1095 474 q 1044 456 1062 456 q 1009 465 1025 456 q 983 490 992 474 q 974 524 974 507 q 983 558 974 542 q 1009 583 993 574 q 1044 592 1026 592 m 823 532 q 857 524 840 532 q 883 498 873 515 q 892 465 892 482 q 883 431 892 447 q 858 406 874 414 q 823 397 841 397 q 788 406 804 397 q 762 431 771 414 q 753 465 753 447 q 762 498 753 482 q 788 524 772 515 q 823 532 805 532 m 925 761 q 959 752 943 761 q 985 727 976 743 q 995 693 995 711 q 986 659 995 675 q 960 634 977 643 q 925 625 943 625 q 890 634 907 625 q 864 659 873 643 q 855 693 855 675 q 865 727 855 711 q 891 752 874 743 q 925 761 907 761 z "},"ص":{"ha":2163,"x_min":50,"x_max":2202,"o":"m 1799 663 l 1837 663 q 2202 257 2202 616 l 2202 239 q 2087 34 2202 90 q 2016 108 2018 34 l 1204 102 q 1118 100 1133 15 l 1099 103 l 1098 103 q 1056 -202 1128 -64 q 860 -390 983 -340 q 533 -430 736 -439 q 174 -262 330 -420 q 75 89 50 -83 q 169 258 100 261 q 184 140 239 254 q 197 -104 130 26 q 378 -278 264 -235 q 617 -315 492 -321 q 834 -272 743 -309 q 966 -143 926 -235 q 1003 12 1006 -50 q 942 117 1000 74 q 899 205 883 159 q 955 263 915 250 q 1043 236 996 277 q 1103 251 1090 195 q 1127 261 1116 307 q 1145 204 1137 216 q 1799 663 1495 663 m 1248 210 l 2081 210 q 2092 375 2117 271 q 1989 526 2068 479 q 1792 574 1910 573 q 1248 210 1497 558 z "},"ض":{"ha":2150,"x_min":42,"x_max":2195,"o":"m 1791 663 l 1830 663 q 2195 257 2195 616 l 2195 239 q 2079 34 2195 90 q 2009 108 2010 34 l 1197 102 q 1110 100 1126 15 l 1091 103 l 1090 103 q 1048 -202 1120 -64 q 852 -390 976 -340 q 526 -430 729 -439 q 166 -262 323 -420 q 67 89 42 -83 q 162 258 92 261 q 177 140 231 254 q 189 -104 122 26 q 371 -278 256 -235 q 610 -315 485 -321 q 827 -272 735 -309 q 958 -143 918 -235 q 996 12 998 -50 q 934 117 993 74 q 891 205 876 159 q 948 263 907 250 q 1036 236 988 277 q 1096 251 1083 195 q 1119 261 1109 307 q 1138 204 1130 216 q 1791 663 1487 663 m 1240 210 l 2073 210 q 2085 375 2109 271 q 1982 526 2061 479 q 1785 574 1903 573 q 1240 210 1490 558 m 1295 838 q 1337 828 1317 838 q 1369 798 1358 817 q 1381 756 1381 778 q 1370 715 1381 734 q 1338 685 1358 696 q 1295 674 1318 674 q 1253 685 1273 674 q 1221 715 1232 696 q 1210 756 1210 734 q 1221 798 1210 778 q 1253 828 1233 817 q 1295 838 1274 838 z "},"ط":{"ha":1124,"x_min":-42,"x_max":1154,"o":"m 865 985 l 901 985 q 956 880 956 968 q 905 652 949 774 q 1154 267 1154 547 l 1154 249 q 1046 39 1154 100 q 976 109 980 39 l 466 109 q 249 -14 293 -14 l 375 109 l 249 109 l -5 111 q -11 223 -42 165 l 159 222 q 774 670 488 670 l 817 670 q 802 807 838 766 q 775 904 766 847 q 865 985 785 960 m 267 216 l 485 216 q 781 583 732 447 l 755 583 q 267 216 526 583 m 865 565 q 593 216 788 417 l 1046 216 l 1064 302 q 865 565 1064 519 z "},"ظ":{"ha":1107,"x_min":-62,"x_max":1135,"o":"m 349 850 q 391 839 370 850 q 423 808 412 828 q 435 766 435 788 q 424 725 435 745 q 392 694 412 705 q 349 683 372 683 q 307 694 327 683 q 275 725 286 705 q 263 766 263 745 q 275 808 263 788 q 307 839 287 828 q 349 850 327 850 m 845 985 l 882 985 q 936 880 936 968 q 886 652 930 774 q 1135 267 1135 547 l 1135 249 q 1027 39 1135 100 q 956 109 960 39 l 446 109 q 229 -14 273 -14 l 355 109 l 229 109 l -25 111 q -31 223 -62 165 l 139 222 q 755 670 468 670 l 798 670 q 782 807 818 766 q 756 904 747 847 q 845 985 765 960 m 248 216 l 465 216 q 762 583 712 447 l 736 583 q 248 216 507 583 m 845 565 q 573 216 768 417 l 1027 216 l 1044 302 q 845 565 1044 519 z "},"ع":{"ha":755,"x_min":28,"x_max":796,"o":"m 789 -316 q 785 -331 789 -316 q 702 -382 781 -346 q 507 -421 622 -418 q 292 -386 391 -424 q 58 -121 106 -315 q 78 71 39 -16 q 280 241 134 194 q 33 515 37 328 q 184 799 28 702 q 475 858 339 895 q 669 749 612 821 q 722 645 726 677 q 691 604 718 613 q 640 610 664 595 q 599 645 615 625 q 557 705 583 665 q 399 776 498 768 q 203 702 300 784 q 116 509 105 621 q 253 343 127 398 q 494 318 379 288 q 632 311 608 348 q 619 246 655 273 q 467 214 583 219 q 254 154 359 218 q 141 -58 149 91 q 301 -298 159 -241 q 555 -341 443 -355 q 732 -307 667 -328 q 789 -316 796 -286 z "},"غ":{"ha":755,"x_min":28,"x_max":796,"o":"m 789 -316 q 785 -331 789 -316 q 702 -382 781 -346 q 507 -421 622 -418 q 292 -386 391 -424 q 58 -121 106 -315 q 78 71 39 -16 q 280 241 134 194 q 33 515 37 328 q 184 799 28 702 q 475 858 339 895 q 669 749 612 821 q 722 645 726 677 q 691 604 718 613 q 640 610 664 595 q 599 645 615 625 q 557 705 583 665 q 399 776 498 768 q 203 702 300 784 q 116 509 105 621 q 253 343 127 398 q 494 318 379 288 q 632 311 608 348 q 619 246 655 273 q 467 214 583 219 q 254 154 359 218 q 141 -58 149 91 q 301 -298 159 -241 q 555 -341 443 -355 q 732 -307 667 -328 q 789 -316 796 -286 m 541 1129 q 584 1118 564 1129 q 617 1084 605 1106 q 629 1038 629 1062 q 617 994 629 1015 q 585 960 606 972 q 541 948 564 948 q 498 960 519 948 q 466 994 477 972 q 454 1038 454 1015 q 466 1084 454 1062 q 498 1118 477 1106 q 541 1129 519 1129 z "},"ـ":{"ha":838,"x_min":-49,"x_max":878,"o":"m 878 87 l -49 87 l -49 205 l 878 205 l 878 87 z "},"ف":{"ha":821,"x_min":74,"x_max":838,"o":"m 838 193 q 812 -12 838 62 q 709 -143 786 -85 q 401 -206 593 -206 q 148 -103 221 -184 q 76 79 74 -22 q 124 267 77 180 q 185 348 171 354 q 164 258 199 342 q 130 102 130 175 q 408 -85 130 -85 q 637 -57 553 -85 q 744 68 722 -28 q 755 191 766 164 q 671 165 720 165 q 574 192 612 165 q 529 290 529 225 q 559 452 508 367 q 673 515 612 515 q 798 407 752 515 q 838 193 838 314 m 730 313 q 704 366 712 354 q 657 393 685 393 q 594 338 594 393 q 615 304 594 317 q 659 293 634 293 q 730 313 685 293 m 540 706 q 573 696 557 706 q 598 669 589 687 q 608 631 608 651 q 599 595 608 612 q 574 567 590 577 q 540 557 557 557 q 507 567 523 557 q 481 595 490 577 q 473 631 473 612 q 482 669 473 651 q 507 696 491 687 q 540 706 523 706 z "},"ق":{"ha":808,"x_min":95,"x_max":859,"o":"m 859 193 q 833 -12 859 62 q 730 -143 807 -85 q 422 -206 614 -206 q 169 -103 242 -184 q 97 79 95 -22 q 145 267 98 180 q 206 348 192 354 q 185 258 220 342 q 151 102 151 175 q 429 -85 151 -85 q 659 -57 574 -85 q 765 68 743 -28 q 777 191 787 164 q 692 165 741 165 q 595 192 633 165 q 550 290 550 225 q 581 452 529 367 q 694 515 633 515 q 819 407 773 515 q 859 193 859 314 m 751 313 q 725 366 733 354 q 678 393 706 393 q 615 338 615 393 q 636 304 615 317 q 680 293 655 293 q 751 313 706 293 m 354 646 q 389 637 372 646 q 416 610 406 628 q 425 573 425 592 q 416 537 425 554 q 390 510 407 519 q 354 500 372 500 q 318 510 336 500 q 292 537 301 519 q 283 573 283 554 q 293 610 283 592 q 319 637 302 628 q 354 646 336 646 m 557 713 q 592 704 576 713 q 619 677 609 694 q 629 640 629 659 q 620 604 629 621 q 593 576 610 586 q 557 567 576 567 q 522 576 539 567 q 495 604 505 586 q 486 640 486 621 q 496 677 486 659 q 522 704 505 694 q 557 713 539 713 z "},"ك":{"ha":859,"x_min":20,"x_max":961,"o":"m 890 87 l 389 87 q 182 54 213 90 q 111 24 152 18 q 50 76 70 30 q 73 166 30 121 q 214 208 116 212 l 821 205 q 724 328 848 330 q 496 329 601 325 q 354 380 391 332 q 304 573 317 427 q 234 734 292 718 q 134 720 176 750 q 55 711 91 690 q 36 780 20 732 q 147 829 53 828 q 305 784 241 831 q 383 583 370 736 q 435 413 396 430 q 552 396 475 397 q 795 388 630 395 q 890 87 961 381 z "},"ل":{"ha":834,"x_min":54,"x_max":810,"o":"m 810 162 q 701 -108 810 3 q 455 -195 629 -178 q 59 80 94 -172 q 75 240 54 192 q 111 295 97 288 q 132 283 125 301 q 127 234 140 266 q 115 159 115 203 q 130 74 114 116 q 208 -26 145 31 q 433 -92 271 -72 q 604 -57 555 -83 q 684 8 654 -32 q 728 149 715 48 q 718 788 728 277 q 674 872 703 845 q 643 942 646 900 q 664 1010 639 983 q 735 1030 688 1036 q 794 986 781 1023 q 804 805 808 949 q 808 566 802 695 q 810 162 804 268 z "},"ﻝ":{"ha":834,"x_min":54,"x_max":810,"o":"m 810 162 q 701 -108 810 3 q 455 -195 629 -178 q 59 80 94 -172 q 75 240 54 192 q 111 295 97 288 q 132 283 125 301 q 127 234 140 266 q 115 159 115 203 q 130 74 114 116 q 208 -26 145 31 q 433 -92 271 -72 q 604 -57 555 -83 q 684 8 654 -32 q 728 149 715 48 q 718 788 728 277 q 674 872 703 845 q 643 942 646 900 q 664 1010 639 983 q 735 1030 688 1036 q 794 986 781 1023 q 804 805 808 949 q 808 566 802 695 q 810 162 804 268 z "},"م":{"ha":492,"x_min":71,"x_max":546,"o":"m 520 242 q 507 197 520 242 q 397 124 494 153 q 222 192 288 104 q 203 18 204 159 q 183 -414 210 -371 q 120 -455 157 -458 q 78 -420 84 -452 q 99 -350 71 -389 q 113 89 126 -312 q 151 314 129 258 q 188 392 172 369 q 222 438 203 416 q 268 474 242 460 q 335 494 294 489 q 417 481 376 500 q 502 396 457 462 q 520 242 546 331 m 410 244 q 358 391 465 348 q 262 294 291 389 q 410 244 333 182 z "},"ن":{"ha":873,"x_min":19,"x_max":910,"o":"m 870 -49 q 850 -108 870 -49 q 756 -244 829 -167 q 537 -346 682 -321 q 227 -274 392 -370 q 41 61 62 -178 q 294 586 19 300 q 119 91 104 279 q 263 -176 135 -98 q 502 -241 391 -253 q 696 -162 614 -229 q 790 22 778 -96 q 721 211 802 140 q 695 326 639 282 q 804 333 751 369 q 884 183 857 297 q 870 -49 910 68 m 458 396 q 462 396 458 396 q 475 396 467 396 q 500 388 484 396 q 525 364 516 379 q 534 340 534 349 q 534 324 534 332 q 526 300 534 315 q 500 276 517 285 q 475 268 484 268 q 458 268 467 268 q 433 276 449 268 q 408 300 416 285 q 399 324 399 315 q 399 340 399 332 q 408 364 399 349 q 433 388 417 379 q 458 396 449 396 z "},"ه":{"ha":614,"x_min":89,"x_max":542,"o":"m 341 244 q 256 339 338 353 q 195 201 178 335 q 271 129 210 124 q 325 146 308 129 q 341 244 342 163 m 454 873 q 465 876 454 873 q 495 871 476 880 q 528 838 514 863 q 540 702 542 812 q 538 326 536 483 q 494 108 540 180 q 354 25 449 36 q 197 44 259 14 q 112 178 134 75 q 129 351 89 282 q 286 416 168 420 q 433 272 431 406 q 418 150 434 193 q 465 284 463 191 q 468 533 467 377 q 447 722 469 690 q 418 784 425 755 q 422 840 412 814 q 454 873 433 867 z "},"و":{"ha":581,"x_min":-257,"x_max":605,"o":"m 509 218 q 441 328 497 328 q 395 284 395 328 q 509 218 395 217 m 600 186 q 530 -54 583 40 q 387 -223 478 -148 q 157 -306 271 -298 q -55 -293 42 -313 q -203 -248 -152 -272 q -256 -190 -255 -224 q -202 -176 -257 -156 q -100 -212 -148 -197 q 28 -237 -52 -228 q 190 -226 109 -246 q 335 -156 271 -206 q 444 -46 399 -105 q 499 65 488 14 q 507 144 511 116 q 333 273 328 146 q 411 430 338 399 q 545 389 484 461 q 600 186 605 316 z "},"ى":{"ha":921,"x_min":34,"x_max":920,"o":"m 914 431 q 884 382 911 393 q 821 402 857 372 q 754 422 785 432 q 690 377 722 412 q 638 311 658 342 q 618 244 618 281 q 684 210 617 208 q 853 198 800 226 q 889 78 907 170 q 729 -91 871 -14 q 360 -172 572 -177 q 110 -62 186 -151 q 41 135 34 26 q 114 338 49 244 q 228 416 178 433 q 196 307 277 399 q 131 110 116 216 q 382 -56 161 -56 q 671 0 504 -56 q 773 95 767 52 q 690 125 779 138 q 549 161 601 112 q 525 227 526 183 q 550 331 525 271 q 645 461 575 391 q 818 530 715 530 q 895 493 869 521 q 914 431 920 466 z "},"ي":{"ha":921,"x_min":34,"x_max":920,"o":"m 914 431 q 884 382 911 393 q 821 402 857 372 q 754 422 785 432 q 690 377 722 412 q 638 311 658 342 q 618 244 618 281 q 684 210 617 208 q 853 198 800 226 q 889 78 907 170 q 729 -91 871 -14 q 360 -172 572 -177 q 110 -62 186 -151 q 41 135 34 26 q 114 338 49 244 q 228 416 178 433 q 196 307 277 399 q 131 110 116 216 q 382 -56 161 -56 q 671 0 504 -56 q 773 95 767 52 q 690 125 779 138 q 549 161 601 112 q 525 227 526 183 q 550 331 525 271 q 645 461 575 391 q 818 530 715 530 q 895 493 869 521 q 914 431 920 466 z "},"ً":{"ha":279,"x_min":47,"x_max":279,"o":"m 279 972 q 262 926 279 941 q 183 886 245 911 l 47 832 q 75 885 47 867 q 134 912 84 892 l 279 972 m 279 870 q 262 823 279 838 q 183 783 245 808 l 47 729 q 75 782 47 763 q 134 809 84 788 l 279 870 z "},"ٌ":{"ha":328,"x_min":46,"x_max":328,"o":"m 328 948 q 298 856 328 903 q 319 825 319 840 q 315 765 319 793 l 256 810 q 79 729 189 731 q 117 814 117 792 q 90 856 117 856 q 46 809 72 856 q 103 915 56 915 q 152 842 152 915 q 142 783 152 831 q 232 829 189 797 q 192 892 192 869 q 219 956 192 924 q 283 991 248 991 q 328 948 328 991 m 279 908 q 250 949 279 949 q 235 930 235 949 q 271 882 235 915 q 279 908 279 895 z "},"ٍ":{"ha":279,"x_min":47,"x_max":279,"o":"m 279 -50 q 262 -95 279 -81 q 183 -135 245 -110 l 47 -190 q 75 -137 47 -155 q 134 -110 83 -131 l 279 -50 m 279 -150 q 261 -197 279 -182 q 183 -236 245 -210 l 47 -292 q 74 -238 47 -257 q 134 -210 84 -231 l 279 -150 z "},"َ":{"ha":278,"x_min":46,"x_max":278,"o":"m 278 964 q 261 918 278 932 q 182 878 243 903 l 46 823 q 73 877 46 858 q 132 904 83 884 l 278 964 z "},"ُ":{"ha":292,"x_min":50,"x_max":292,"o":"m 292 842 q 290 818 292 833 q 286 793 287 799 l 230 827 q 100 729 141 729 l 50 729 q 134 785 85 745 q 200 845 179 820 q 155 911 155 873 q 181 990 155 956 q 237 1024 208 1024 q 269 1005 255 1024 q 283 959 283 985 q 262 881 283 938 q 286 863 274 872 q 292 842 292 856 m 241 918 q 229 952 241 937 q 203 968 216 968 q 189 954 189 968 q 236 899 189 935 q 241 918 241 911 z "},"ِ":{"ha":279,"x_min":47,"x_max":279,"o":"m 279 -244 q 262 -291 279 -276 q 183 -330 245 -306 l 47 -385 q 75 -332 47 -351 q 134 -305 83 -326 l 279 -244 z "},"ّ":{"ha":294,"x_min":47,"x_max":294,"o":"m 294 890 q 275 807 294 840 q 222 770 256 770 q 176 787 202 770 q 104 729 142 729 q 47 802 47 729 q 66 875 47 830 l 80 881 q 79 863 80 875 q 77 843 77 851 q 102 804 77 804 q 169 911 144 804 l 183 915 q 219 853 194 853 q 272 943 268 853 l 286 947 q 294 890 294 910 z "},"ْ":{"ha":229,"x_min":47,"x_max":229,"o":"m 229 838 q 197 762 229 795 q 121 729 166 729 q 47 806 47 729 q 75 899 47 858 q 142 939 102 939 q 203 908 178 939 q 229 838 229 878 m 188 819 q 161 861 188 838 q 117 884 135 884 q 87 869 99 884 q 75 838 75 853 q 148 797 75 797 q 188 819 188 797 z "},"٠":{"ha":685,"x_min":60,"x_max":628,"o":"m 339 12 q 113 149 184 12 q 60 421 60 253 q 130 669 60 563 q 355 793 213 793 q 564 683 489 793 q 628 452 628 588 q 556 122 628 232 q 339 12 484 12 m 355 699 q 205 606 260 699 q 158 429 158 528 q 203 187 158 268 q 339 106 249 106 q 494 224 447 106 q 526 433 526 307 q 483 632 526 566 q 355 699 440 699 z "},"١":{"ha":604,"x_min":82,"x_max":530,"o":"m 464 -1 l 329 -1 l 195 0 q 128 5 147 0 q 94 44 94 14 q 200 97 94 97 l 233 96 l 260 95 q 261 169 260 120 q 262 243 262 218 q 265 646 262 309 q 149 591 174 591 q 102 607 122 591 q 82 643 82 623 q 140 703 82 667 q 244 766 177 722 q 345 812 304 812 q 390 772 390 812 q 393 736 390 760 q 395 701 395 713 q 395 493 395 684 q 395 243 395 302 q 393 169 395 212 q 393 98 392 126 l 464 100 q 511 85 492 100 q 530 50 530 71 q 511 14 530 28 q 464 -1 492 -1 z "},"٢":{"ha":680,"x_min":106,"x_max":610,"o":"m 560 -1 q 522 6 547 -1 q 485 14 498 14 q 402 11 457 14 q 319 8 348 8 q 258 3 299 8 q 195 -2 216 -2 q 179 0 190 -2 q 161 2 168 2 q 113 37 124 2 q 106 98 106 54 q 175 290 106 217 q 343 413 206 323 q 446 491 420 463 q 492 606 492 541 q 447 665 492 639 q 370 688 408 688 q 276 661 321 688 l 199 603 q 162 586 176 586 q 107 628 107 586 q 127 669 107 652 q 237 751 191 726 q 370 786 302 786 q 526 741 457 786 q 602 611 602 690 q 586 515 602 559 q 539 434 570 471 q 402 332 498 388 q 270 239 302 271 q 211 97 210 181 l 322 106 q 485 113 436 113 q 562 99 526 113 q 610 50 610 81 q 596 14 610 30 q 560 -1 581 -1 z "},"٣":{"ha":708,"x_min":104,"x_max":620,"o":"m 357 -31 q 208 3 273 -31 q 107 113 133 42 q 104 132 104 122 q 121 167 104 153 q 159 181 138 181 q 197 161 182 181 l 222 124 q 276 85 243 98 q 357 72 310 72 q 462 109 416 72 q 510 203 510 147 q 448 332 510 284 q 305 383 395 374 q 244 431 244 389 q 292 479 244 463 l 424 511 q 481 548 462 525 q 501 603 500 570 q 463 680 502 650 q 351 709 423 709 q 278 692 313 709 l 216 654 q 186 642 197 642 q 149 659 164 642 q 133 696 133 675 q 217 778 133 739 q 338 812 290 812 q 526 762 456 812 q 600 606 600 707 q 495 439 600 479 q 474 431 486 435 q 584 353 547 405 q 620 222 620 300 q 543 43 620 117 q 357 -31 467 -31 z "},"٤":{"ha":758,"x_min":130,"x_max":777,"o":"m 649 223 l 649 31 q 597 -18 649 -18 q 538 58 538 -18 q 539 84 538 67 q 540 108 540 102 l 539 226 l 290 231 q 182 236 212 231 q 130 273 130 244 q 161 332 130 296 l 210 385 l 489 759 q 585 807 527 807 q 649 756 649 807 l 649 324 q 672 324 659 324 q 777 273 777 324 q 734 226 777 235 q 649 223 714 221 m 539 663 q 303 331 388 441 l 539 326 l 539 663 z "},"٥":{"ha":693,"x_min":100,"x_max":656,"o":"m 336 -43 q 109 71 182 -43 q 100 102 100 87 q 117 138 100 123 q 155 153 134 153 q 197 130 176 153 q 240 85 225 95 q 336 62 275 62 q 491 133 429 62 q 550 297 550 201 q 524 426 550 376 q 420 488 490 488 q 326 473 363 488 q 267 429 297 460 l 208 365 q 159 340 184 340 q 122 356 138 340 q 107 393 107 372 q 116 490 107 404 q 134 714 134 661 q 125 756 134 733 q 115 789 115 779 q 172 822 115 822 q 205 820 183 822 q 238 819 227 819 q 332 821 269 819 q 426 823 395 823 q 471 822 441 823 q 515 821 500 821 q 545 825 526 821 q 574 829 564 829 q 611 813 595 829 q 627 777 627 798 q 499 716 627 716 q 457 717 482 716 q 426 718 431 718 l 335 716 l 243 713 q 223 533 243 689 q 420 592 297 592 q 603 499 540 592 q 656 297 656 420 q 570 56 656 151 q 336 -43 481 -43 z "},"٦":{"ha":689,"x_min":85,"x_max":625,"o":"m 349 -8 q 140 97 207 -8 q 85 327 85 183 q 302 798 85 598 l 353 850 q 410 886 391 886 q 448 870 431 886 q 464 833 464 854 q 409 757 465 813 l 298 648 q 223 511 255 602 q 306 544 271 533 q 363 555 340 555 q 558 486 490 555 q 625 292 625 417 q 552 78 625 161 q 349 -8 476 -8 m 349 443 q 265 426 302 443 q 194 384 251 420 q 191 327 191 355 q 223 166 191 229 q 351 87 264 87 q 478 146 433 87 q 519 292 519 201 q 477 405 519 368 q 349 443 434 443 z "},"٧":{"ha":620,"x_min":74,"x_max":583,"o":"m 556 652 l 515 597 q 409 411 458 521 l 328 208 q 291 92 320 186 q 248 -20 268 16 q 212 -45 235 -45 q 181 -31 195 -45 q 168 3 168 -16 q 196 102 168 23 l 296 382 q 432 638 362 548 l 440 648 l 217 654 l 117 656 q 74 705 74 661 q 86 741 74 727 q 117 754 99 754 q 286 750 174 754 q 454 746 398 746 l 536 746 q 583 714 583 746 q 556 652 583 690 m 496 320 q 160 313 401 313 q 102 353 102 313 q 160 393 102 393 q 325 397 215 393 q 489 401 434 401 q 551 360 551 401 q 496 320 551 325 z "},"٨":{"ha":652,"x_min":70,"x_max":610,"o":"m 336 -37 q 153 12 222 -37 q 72 176 74 68 q 193 410 70 348 q 98 574 98 468 q 172 742 98 675 q 342 807 242 806 q 567 585 567 809 q 541 487 567 522 q 460 427 520 458 q 572 341 540 387 q 610 191 610 286 q 529 20 610 82 q 336 -37 454 -37 m 340 711 q 235 673 271 711 q 203 574 202 636 q 326 468 203 499 q 418 505 390 487 q 463 585 463 535 q 430 688 463 658 q 340 711 402 711 m 331 374 q 217 305 245 334 q 176 180 173 261 q 237 80 178 113 q 336 57 280 57 q 467 101 430 57 q 497 208 497 136 q 443 321 497 278 q 331 374 406 350 z "},"٩":{"ha":647,"x_min":98,"x_max":562,"o":"m 397 116 q 292 49 364 88 q 182 5 213 5 q 152 20 163 5 q 140 56 140 36 q 170 102 140 87 l 244 132 q 353 206 313 164 q 427 326 393 248 l 446 370 q 381 340 420 354 q 318 326 342 326 q 172 380 234 326 q 98 568 98 446 q 174 783 98 711 q 346 844 239 844 q 492 767 428 844 q 562 570 561 685 q 519 315 562 439 q 397 116 474 183 m 334 756 q 221 711 258 756 q 183 576 184 667 q 229 459 183 501 q 331 422 269 422 q 405 448 366 422 q 469 498 422 458 q 475 570 475 543 q 428 695 474 634 q 334 756 381 756 z "},"٪":{"ha":730,"x_min":90,"x_max":640,"o":"m 336 929 q 311 865 336 892 q 248 839 285 839 q 185 865 211 839 q 159 929 159 892 q 185 990 159 966 q 248 1015 211 1015 q 311 990 285 1015 q 336 929 336 966 m 601 1076 q 620 1076 601 1076 q 402 547 640 1076 q 127 17 164 17 q 326 547 90 17 q 601 1076 562 1076 m 570 163 q 544 101 570 127 q 481 75 518 75 q 419 100 444 75 q 393 163 393 126 q 419 227 393 200 q 481 253 444 253 q 544 226 517 253 q 570 163 570 199 z "},"٭":{"ha":553,"x_min":35,"x_max":519,"o":"m 519 807 l 371 698 l 427 522 l 277 629 l 127 522 l 182 698 l 35 807 l 218 807 l 277 983 l 335 807 l 519 807 z "},"ٰ":{"ha":162,"x_min":45,"x_max":113,"o":"m 113 767 q 81 680 113 730 l 75 682 q 77 719 77 707 q 45 1024 77 803 q 77 1083 58 1050 q 113 767 113 857 z "},"ٱ":{"ha":288,"x_min":10,"x_max":292,"o":"m 229 260 q 165 69 229 182 l 153 76 q 159 156 159 130 q 100 787 159 347 q 163 917 125 844 q 229 260 229 460 m 292 1068 q 260 1002 292 1032 q 176 970 224 970 l 62 970 q 41 939 41 970 q 43 927 41 936 q 43 915 43 919 q 10 983 10 948 q 62 1028 10 1028 l 78 1028 q 237 1136 158 1136 q 292 1068 292 1136 m 231 1069 q 210 1095 231 1095 q 115 1028 172 1095 l 170 1028 q 231 1069 231 1028 z "},"ٴ":{"ha":288,"x_min":27,"x_max":264,"o":"m 264 1034 q 184 972 264 1000 l 27 918 q 112 987 27 957 q 54 1046 54 1016 q 100 1121 54 1072 q 187 1173 149 1173 q 229 1131 229 1173 q 210 1080 229 1114 q 153 1103 184 1103 q 116 1096 134 1103 q 98 1078 98 1088 q 136 1043 98 1065 q 204 1021 175 1021 q 264 1034 233 1021 z "},"پ":{"ha":991,"x_min":68,"x_max":1042,"o":"m 253 706 l 331 764 q 151 482 151 573 l 151 421 q 622 197 151 197 l 704 197 q 946 267 907 197 q 924 400 985 376 q 865 455 863 424 q 958 511 861 524 q 1042 340 1031 472 l 1040 303 q 683 96 1031 96 q 68 421 68 96 q 253 706 68 549 m 500 -136 q 465 -128 482 -136 q 437 -104 447 -119 q 428 -71 428 -88 q 437 -39 428 -54 q 464 -15 447 -24 q 500 -6 481 -6 q 536 -15 519 -6 q 563 -39 553 -24 q 572 -71 572 -54 q 563 -104 572 -88 q 535 -128 553 -119 q 500 -136 518 -136 m 708 -133 q 672 -125 690 -133 q 645 -101 654 -117 q 635 -70 635 -86 q 645 -38 635 -54 q 672 -15 654 -23 q 708 -6 689 -6 q 744 -15 726 -6 q 770 -38 761 -23 q 780 -70 780 -54 q 770 -101 780 -86 q 743 -125 760 -117 q 708 -133 726 -133 m 607 -307 q 571 -299 589 -307 q 544 -275 553 -290 q 534 -242 534 -259 q 544 -210 534 -225 q 571 -186 553 -195 q 607 -177 588 -177 q 643 -186 625 -177 q 669 -210 660 -195 q 679 -242 679 -225 q 669 -275 679 -259 q 642 -299 659 -290 q 607 -307 625 -307 z "},"چ":{"ha":744,"x_min":26,"x_max":808,"o":"m 709 -357 q 669 -370 709 -357 q 509 -380 628 -382 q 289 -337 391 -378 q 94 -28 94 -259 q 203 255 94 134 q 320 357 255 314 q 528 444 385 400 q 369 573 448 473 q 214 651 289 673 q 122 573 138 628 q 141 506 105 518 q 180 462 176 494 q 149 419 184 429 q 75 437 115 408 q 30 525 35 467 q 64 642 26 584 q 154 722 103 700 q 264 738 205 744 q 370 700 322 732 q 470 600 418 667 q 583 508 521 533 q 692 482 646 482 q 744 444 739 482 q 697 389 750 406 q 372 295 475 353 q 175 20 195 196 q 316 -261 157 -203 q 573 -300 475 -319 q 706 -257 671 -280 q 774 -239 741 -233 q 799 -288 808 -245 q 709 -357 790 -331 m 406 -7 q 370 2 387 -7 q 342 26 352 10 q 333 58 333 41 q 342 91 333 75 q 369 115 352 106 q 406 123 387 123 q 441 115 424 123 q 468 91 458 106 q 477 58 477 75 q 468 26 477 41 q 440 2 458 10 q 406 -7 423 -7 m 613 -3 q 577 5 595 -3 q 550 28 559 13 q 541 60 541 43 q 550 91 541 76 q 577 115 559 106 q 613 123 594 123 q 649 115 631 123 q 675 91 666 106 q 685 60 685 76 q 675 28 685 43 q 648 5 665 13 q 613 -3 631 -3 m 512 -178 q 476 -169 494 -178 q 449 -145 458 -161 q 439 -113 439 -130 q 449 -80 439 -96 q 476 -56 458 -65 q 512 -47 493 -47 q 548 -56 530 -47 q 574 -80 565 -65 q 584 -113 584 -96 q 574 -145 584 -130 q 547 -169 564 -161 q 512 -178 530 -178 z "},"ژ":{"ha":547,"x_min":-289,"x_max":573,"o":"m 561 179 q 496 -61 545 33 q 355 -230 446 -155 q 125 -312 239 -304 q -87 -299 10 -320 q -235 -255 -184 -279 q -288 -197 -287 -231 q -234 -183 -289 -163 q -132 -219 -180 -203 q -3 -244 -84 -235 q 158 -233 77 -253 q 303 -162 239 -213 q 412 -53 368 -112 q 465 95 456 7 q 441 212 475 184 q 406 284 408 241 q 440 345 404 327 q 525 336 476 363 q 561 179 573 309 m 249 649 q 284 641 267 649 q 311 616 301 632 q 321 584 321 601 q 311 552 321 567 q 284 528 302 536 q 249 519 267 519 q 213 528 230 519 q 186 552 195 536 q 176 584 176 567 q 186 616 176 601 q 213 641 195 632 q 249 649 231 649 m 456 646 q 491 637 474 646 q 518 614 509 629 q 528 583 528 599 q 519 551 528 566 q 492 527 509 536 q 456 519 475 519 q 420 527 437 519 q 393 551 403 536 q 384 583 384 566 q 393 614 384 599 q 420 637 403 629 q 456 646 438 646 m 355 820 q 390 811 373 820 q 417 787 408 803 q 427 755 427 772 q 418 723 427 738 q 391 699 408 707 q 355 690 374 690 q 319 699 336 690 q 292 723 302 707 q 283 755 283 738 q 292 787 283 772 q 319 811 302 803 q 355 820 337 820 z "},"ڤ":{"ha":825,"x_min":74,"x_max":838,"o":"m 838 193 q 812 -12 838 62 q 709 -143 786 -85 q 401 -206 593 -206 q 148 -103 221 -184 q 76 79 74 -22 q 124 267 77 180 q 185 348 171 354 q 164 258 199 342 q 130 102 130 175 q 408 -85 130 -85 q 637 -57 553 -85 q 744 68 722 -28 q 755 191 766 164 q 671 165 720 165 q 574 192 612 165 q 529 290 529 225 q 559 452 508 367 q 673 515 612 515 q 798 407 752 515 q 838 193 838 314 m 730 313 q 704 366 712 354 q 657 393 685 393 q 594 338 594 393 q 615 304 594 317 q 659 293 634 293 q 730 313 685 293 m 484 699 q 518 690 501 699 q 546 666 536 682 q 555 633 555 650 q 546 601 555 616 q 519 577 536 586 q 484 568 502 568 q 447 577 465 568 q 420 601 430 586 q 411 633 411 616 q 420 666 411 650 q 448 690 430 682 q 484 699 465 699 m 691 695 q 726 687 709 695 q 753 664 743 679 q 763 632 763 648 q 753 601 763 616 q 727 577 744 585 q 691 568 709 568 q 655 577 672 568 q 628 601 637 585 q 618 632 618 616 q 628 664 618 648 q 655 687 637 679 q 691 695 673 695 m 590 869 q 625 861 608 869 q 652 837 642 852 q 662 804 662 821 q 652 772 662 787 q 626 748 643 757 q 590 739 608 739 q 554 748 571 739 q 527 772 536 757 q 517 804 517 787 q 527 837 517 821 q 554 861 536 852 q 590 869 572 869 z "},"ک":{"ha":1171,"x_min":7,"x_max":1339,"o":"m 1105 205 q 1013 343 1187 355 q 563 333 838 331 q 297 439 287 334 q 425 650 307 544 q 586 710 543 757 q 536 626 629 663 q 393 497 443 590 q 521 399 342 404 q 1019 418 699 395 q 1183 87 1339 441 l 309 88 l 231 88 q 171 109 197 96 q 50 269 98 159 l 42 290 q 49 435 7 385 l 68 444 q 127 421 106 460 q 135 336 147 382 q 138 262 122 290 q 247 205 168 213 l 1105 205 z "},"گ":{"ha":1171,"x_min":7,"x_max":1339,"o":"m 1105 205 q 1013 343 1187 355 q 563 333 838 331 q 297 439 287 334 q 425 650 307 544 q 586 710 543 757 q 536 626 629 663 q 393 497 443 590 q 521 399 342 404 q 1019 418 699 395 q 1183 87 1339 441 l 309 88 l 231 88 q 171 109 197 96 q 50 269 98 159 l 42 290 q 49 435 7 385 l 68 444 q 127 421 106 460 q 135 336 147 382 q 138 262 122 290 q 247 205 168 213 l 1105 205 m 277 533 q 269 536 277 533 q 264 564 262 538 q 371 698 267 590 q 504 781 475 806 q 454 709 532 756 q 334 594 376 662 q 277 533 292 527 z "},"ی":{"ha":886,"x_min":51,"x_max":937,"o":"m 931 431 q 901 382 928 393 q 838 402 874 372 q 771 422 802 432 q 707 377 739 412 q 655 311 675 342 q 635 244 635 281 q 701 210 634 208 q 870 198 817 226 q 906 78 924 170 q 746 -91 888 -14 q 377 -172 589 -177 q 127 -62 203 -151 q 58 135 51 26 q 131 338 66 244 q 244 416 195 433 q 213 307 294 399 q 148 110 133 216 q 399 -56 178 -56 q 688 0 521 -56 q 790 95 784 52 q 707 125 795 138 q 566 161 618 112 q 542 227 543 183 q 567 331 542 271 q 662 461 592 391 q 835 530 732 530 q 911 493 886 521 q 931 431 937 466 z "},"ە":{"ha":510,"x_min":22,"x_max":475,"o":"m 287 244 q 189 339 290 356 q 129 201 111 335 q 205 122 144 124 q 263 138 241 122 q 287 244 285 155 m 388 873 q 399 876 388 873 q 429 871 410 880 q 461 838 448 863 q 473 702 475 812 q 472 326 470 483 q 428 108 473 180 q 288 25 382 36 q 130 44 193 14 q 45 178 68 75 q 62 351 22 282 q 220 416 102 420 q 367 272 364 406 q 351 150 368 193 q 398 284 396 191 q 401 533 400 377 q 380 722 402 690 q 352 784 358 755 q 356 840 345 814 q 388 873 366 867 z "},"ۤ":{"ha":345,"x_min":0,"x_max":345,"o":"m 345 1056 q 222 994 291 994 q 120 1015 170 994 q 52 1035 71 1035 q 9 1023 37 1035 l 0 1034 q 31 1072 20 1063 q 82 1088 50 1088 q 153 1068 97 1088 q 245 1048 209 1048 q 334 1067 287 1048 l 345 1056 z "},"۰":{"ha":730,"x_min":258,"x_max":478,"o":"m 478 393 q 427 193 447 295 q 258 310 348 237 q 319 516 281 410 q 478 393 380 463 z "},"۱":{"ha":730,"x_min":205,"x_max":454,"o":"m 454 376 q 426 93 454 301 l 403 93 q 404 140 403 109 q 406 187 406 172 q 205 743 406 498 l 270 884 q 395 691 354 783 q 454 376 454 554 z "},"۲":{"ha":730,"x_min":124,"x_max":543,"o":"m 543 781 q 508 661 543 706 q 399 612 469 612 q 376 614 390 612 q 352 618 357 617 q 404 479 391 535 q 426 214 426 382 q 425 154 426 193 q 423 93 423 114 l 403 93 q 300 473 334 383 q 124 761 248 606 l 169 898 q 386 745 277 745 q 492 796 462 745 q 516 897 507 823 l 538 898 q 543 781 543 846 z "},"۳":{"ha":730,"x_min":87,"x_max":654,"o":"m 654 829 q 522 655 654 655 q 413 705 439 655 q 270 628 370 632 q 347 319 347 477 q 323 93 347 245 l 296 93 q 242 433 279 319 q 87 723 203 553 l 137 884 q 314 762 210 762 q 443 898 420 762 l 465 898 q 543 785 475 785 q 628 898 614 785 l 650 898 q 652 864 650 887 q 654 829 654 841 z "},"۴":{"ha":730,"x_min":107,"x_max":632,"o":"m 632 733 q 425 529 593 529 q 311 563 358 529 q 348 453 340 498 q 354 347 354 419 q 319 93 354 253 l 296 93 q 107 721 292 469 l 158 884 q 244 742 218 776 q 317 680 271 709 q 453 889 336 889 q 591 810 526 889 l 586 802 q 549 813 568 808 q 496 821 524 821 q 336 671 374 821 q 441 650 402 650 q 616 739 543 650 l 632 733 z "},"۵":{"ha":730,"x_min":103,"x_max":612,"o":"m 612 363 q 568 211 612 282 q 446 130 518 130 q 375 155 406 130 q 253 110 320 110 q 147 145 189 110 q 103 247 103 182 q 158 420 103 323 q 346 671 213 517 l 292 724 l 336 872 q 612 363 612 597 m 571 318 q 362 651 571 418 q 265 521 313 600 q 199 340 199 412 q 286 247 199 247 q 400 294 339 247 q 494 257 435 257 q 549 274 527 257 q 571 318 571 292 z "},"۶":{"ha":730,"x_min":138,"x_max":604,"o":"m 604 688 l 574 558 q 381 406 467 521 q 261 93 281 273 l 233 93 q 336 504 247 355 q 138 589 138 506 q 241 779 138 652 q 392 885 328 885 q 557 762 460 885 l 550 755 q 415 783 467 783 q 280 761 330 783 q 229 704 229 738 q 367 627 229 627 q 604 688 470 627 z "},"۷":{"ha":730,"x_min":87,"x_max":637,"o":"m 637 881 l 632 686 q 386 93 439 489 l 376 93 q 264 435 333 302 q 87 663 198 564 l 112 878 q 395 297 312 645 l 401 297 q 637 881 454 667 z "},"۸":{"ha":730,"x_min":104,"x_max":655,"o":"m 655 321 l 631 107 q 347 692 416 329 l 342 692 q 260 367 299 471 q 104 103 210 233 l 104 297 q 355 891 289 467 l 368 891 q 490 526 417 660 q 655 321 549 418 z "},"۹":{"ha":730,"x_min":149,"x_max":573,"o":"m 573 231 l 532 86 q 433 277 453 134 q 425 509 425 332 q 310 484 350 484 q 149 602 149 484 q 197 771 149 680 q 369 894 261 894 q 451 835 425 894 q 479 693 472 789 l 490 521 q 527 302 503 365 q 573 231 537 274 m 419 628 q 328 765 419 765 q 250 734 288 765 q 212 677 212 703 q 326 618 212 618 q 419 628 343 618 z "},"‌":{"ha":31,"x_min":0,"x_max":31,"o":"m 31 0 l 0 0 l 0 1104 l 31 1104 l 31 0 z "},"‍":{"ha":31,"x_min":-77,"x_max":109,"o":"m 109 1015 l 88 994 l 31 1052 l 31 0 l 0 0 l 0 1051 l -57 994 l -77 1015 l -5 1087 l -77 1160 l -57 1180 l 16 1107 l 88 1180 l 109 1160 l 36 1087 l 109 1015 z "},"‎":{"ha":31,"x_min":0,"x_max":205,"o":"m 205 1088 l 113 994 l 92 1015 l 150 1074 l 31 1074 l 31 0 l 0 0 l 0 1104 l 147 1104 l 92 1160 l 113 1181 l 205 1088 z "},"‏":{"ha":31,"x_min":-175,"x_max":31,"o":"m 31 0 l 0 0 l 0 1074 l -119 1074 l -61 1015 l -82 994 l -175 1088 l -82 1181 l -61 1160 l -117 1104 l 31 1104 l 31 0 z "},"–":{"ha":695,"x_min":-3,"x_max":687,"o":"m -3 473 l 24 558 l 687 349 l 661 264 l -3 473 z "},"—":{"ha":951,"x_min":0,"x_max":961,"o":"m 0 338 l 0 456 l 961 456 l 961 338 l 0 338 z "},"‘":{"ha":469,"x_min":161,"x_max":357,"o":"m 357 690 q 330 628 357 650 q 276 610 307 610 q 207 633 237 610 q 161 744 161 668 q 224 880 161 811 q 320 951 277 938 l 333 925 q 216 775 216 852 q 236 755 216 755 q 270 761 257 761 q 357 690 357 761 z "},"’":{"ha":469,"x_min":111,"x_max":307,"o":"m 307 817 q 244 680 307 749 q 149 610 191 623 l 136 635 q 252 785 252 709 q 233 805 252 805 q 199 800 212 800 q 111 870 111 800 q 139 933 111 911 q 193 951 161 951 q 262 927 232 951 q 307 817 307 892 z "},"‚":{"ha":277,"x_min":66,"x_max":193,"o":"m 76 87 l 76 215 l 193 215 l 193 115 q 174 -3 193 33 q 93 -78 149 -53 l 66 -35 q 133 87 130 -9 l 76 87 z "},"“":{"ha":416,"x_min":51,"x_max":368,"o":"m 168 832 l 168 705 l 51 705 l 51 805 q 70 924 51 887 q 151 998 96 972 l 178 955 q 111 832 115 928 l 168 832 m 357 832 l 357 705 l 240 705 l 240 805 q 259 924 240 887 q 340 998 286 972 l 368 955 q 300 832 304 928 l 357 832 z "},"”":{"ha":416,"x_min":43,"x_max":360,"o":"m 53 864 l 53 991 l 171 991 l 171 890 q 152 773 171 808 q 70 699 126 724 l 43 742 q 111 864 107 768 l 53 864 m 242 864 l 242 991 l 360 991 l 360 890 q 341 773 360 808 q 259 699 315 724 l 233 742 q 300 864 296 768 l 242 864 z "},"„":{"ha":416,"x_min":43,"x_max":360,"o":"m 53 87 l 53 215 l 171 215 l 171 115 q 152 -3 171 33 q 70 -78 126 -53 l 43 -35 q 111 87 107 -9 l 53 87 m 242 87 l 242 215 l 360 215 l 360 115 q 341 -3 360 33 q 259 -78 315 -53 l 233 -35 q 300 87 296 -9 l 242 87 z "},"†":{"ha":695,"x_min":45,"x_max":400,"o":"m 45 -123 l 45 616 l 45 713 l 45 962 l 155 962 l 155 713 l 400 713 l 400 616 l 155 616 l 155 -123 l 45 -123 z "},"‡":{"ha":695,"x_min":45,"x_max":646,"o":"m 290 102 l 45 102 l 45 200 l 290 200 l 290 643 l 45 643 l 45 741 l 290 741 l 399 741 l 646 741 l 646 643 l 399 643 l 399 200 l 646 200 l 646 102 l 399 102 l 290 102 z "},"•":{"ha":437,"x_min":66,"x_max":376,"o":"m 66 526 q 112 635 66 590 q 221 680 157 680 q 331 635 286 680 q 376 526 376 590 q 331 416 376 461 q 221 371 286 371 q 112 416 157 371 q 66 526 66 461 z "},"…":{"ha":1250,"x_min":146,"x_max":1105,"o":"m 146 87 l 146 212 l 271 212 l 271 87 l 146 87 m 563 87 l 563 212 l 688 212 l 688 87 l 563 87 m 979 87 l 979 212 l 1105 212 l 1105 87 l 979 87 z "},"‰":{"ha":1250,"x_min":22,"x_max":1227,"o":"m 195 54 l 562 998 l 642 998 l 276 54 l 195 54 m 22 758 q 197 990 22 990 q 373 761 373 990 q 198 519 373 519 q 22 758 22 519 m 113 753 q 201 596 113 596 q 283 755 283 596 q 198 914 283 914 q 113 753 113 914 m 466 292 q 640 524 466 524 q 816 295 816 524 q 642 54 816 54 q 466 292 466 54 m 556 288 q 644 130 556 130 q 726 289 726 130 q 642 449 726 449 q 556 288 556 449 m 877 292 q 1052 524 877 524 q 1227 295 1227 524 q 1053 54 1227 54 q 877 292 877 54 m 967 288 q 1055 130 967 130 q 1137 289 1137 130 q 1053 449 1137 449 q 967 288 967 449 z "},"‹":{"ha":416,"x_min":56,"x_max":339,"o":"m 178 409 l 339 132 l 248 132 l 56 409 l 248 688 l 339 688 l 178 409 z "},"›":{"ha":416,"x_min":56,"x_max":332,"o":"m 218 411 l 56 688 l 147 688 l 332 414 l 147 132 l 56 132 l 218 411 z "},"™":{"ha":1250,"x_min":137,"x_max":1088,"o":"m 298 485 l 298 908 l 137 908 l 137 982 l 544 982 l 544 908 l 381 908 l 381 485 l 298 485 m 600 485 l 600 982 l 722 982 l 847 585 l 968 982 l 1088 982 l 1088 485 l 1013 485 l 1013 902 l 884 485 l 809 485 l 675 908 l 675 485 l 600 485 z "},"":{"ha":279,"x_min":47,"x_max":279,"o":"m 279 964 q 262 918 279 932 q 183 878 245 903 l 47 823 q 74 877 47 858 q 134 904 84 884 l 279 964 z "},"":{"ha":291,"x_min":49,"x_max":291,"o":"m 291 842 q 288 818 291 833 q 285 793 286 799 l 229 827 q 98 729 140 729 l 49 729 q 133 785 83 745 q 199 845 178 820 q 153 911 153 873 q 180 990 153 956 q 236 1024 206 1024 q 268 1005 254 1024 q 282 959 282 985 q 261 881 282 938 q 284 863 273 872 q 291 842 291 856 m 240 918 q 227 952 240 937 q 202 968 214 968 q 188 954 188 968 q 235 899 188 935 q 240 918 240 911 z "},"":{"ha":229,"x_min":47,"x_max":229,"o":"m 229 838 q 197 762 229 795 q 121 729 166 729 q 47 806 47 729 q 75 899 47 858 q 142 939 102 939 q 203 908 178 939 q 229 838 229 878 m 188 819 q 161 861 188 838 q 117 884 135 884 q 87 869 99 884 q 75 838 75 853 q 148 797 75 797 q 188 819 188 797 z "},"":{"ha":279,"x_min":47,"x_max":279,"o":"m 279 972 q 262 926 279 941 q 183 886 245 911 l 47 832 q 75 885 47 867 q 134 912 84 892 l 279 972 m 279 870 q 262 823 279 838 q 183 783 245 808 l 47 729 q 75 782 47 763 q 134 809 84 788 l 279 870 z "},"":{"ha":329,"x_min":47,"x_max":329,"o":"m 329 948 q 299 856 329 903 q 321 825 321 840 q 316 765 321 793 l 258 810 q 80 729 191 731 q 118 814 118 792 q 92 856 118 856 q 47 809 73 856 q 104 915 58 915 q 153 842 153 915 q 144 783 153 831 q 233 829 191 797 q 193 892 193 869 q 220 956 193 924 q 285 991 250 991 q 329 948 329 991 m 281 908 q 251 949 281 949 q 236 930 236 949 q 272 882 236 915 q 281 908 281 895 z "},"":{"ha":294,"x_min":47,"x_max":294,"o":"m 294 890 q 275 807 294 840 q 222 770 256 770 q 176 787 202 770 q 104 729 142 729 q 47 802 47 729 q 66 875 47 830 l 80 881 q 79 863 80 875 q 77 843 77 851 q 102 804 77 804 q 169 911 144 804 l 183 915 q 219 853 194 853 q 272 943 268 853 l 286 947 q 294 890 294 910 z "},"":{"ha":279,"x_min":47,"x_max":279,"o":"m 279 0 q 262 -47 279 -32 q 183 -86 245 -62 l 47 -140 q 75 -88 47 -106 q 134 -61 83 -82 l 279 0 z "},"":{"ha":279,"x_min":47,"x_max":279,"o":"m 279 -50 q 262 -95 279 -81 q 183 -135 245 -110 l 47 -190 q 75 -137 47 -155 q 134 -110 83 -131 l 279 -50 m 279 -150 q 261 -197 279 -182 q 183 -236 245 -210 l 47 -292 q 74 -238 47 -257 q 134 -210 84 -231 l 279 -150 z "},"":{"ha":294,"x_min":47,"x_max":294,"o":"m 283 1056 q 266 1009 283 1024 q 188 970 249 994 l 52 916 q 79 968 52 949 q 138 995 87 974 l 283 1056 m 294 890 q 275 806 294 840 q 222 770 256 770 q 176 787 200 770 q 104 729 142 729 q 47 801 47 729 q 66 875 47 828 l 80 880 q 79 863 80 875 q 77 842 77 850 q 102 804 77 804 q 169 910 143 804 l 183 914 q 219 852 194 852 q 272 944 268 852 l 286 948 q 294 890 294 908 z "},"":{"ha":294,"x_min":43,"x_max":294,"o":"m 294 964 q 214 978 257 966 q 81 909 134 909 q 43 921 64 909 q 188 992 83 939 q 153 1048 153 1025 q 177 1106 153 1078 q 232 1135 201 1135 q 268 1121 252 1135 q 283 1088 283 1107 q 261 1029 283 1069 q 291 1005 286 1017 q 294 964 294 998 m 294 891 q 275 808 294 841 q 222 771 256 771 q 176 788 200 771 q 104 730 142 730 q 47 802 47 730 q 66 876 47 829 l 80 882 q 79 864 80 876 q 77 844 77 852 q 102 805 77 805 q 169 911 143 805 l 183 916 q 219 853 194 853 q 272 945 268 853 l 286 949 q 294 891 294 909 m 239 1067 q 229 1095 239 1081 q 203 1108 218 1108 q 195 1093 195 1108 q 232 1046 195 1066 q 239 1067 239 1063 z "},"":{"ha":294,"x_min":47,"x_max":294,"o":"m 279 1163 q 262 1117 279 1132 q 183 1078 245 1102 l 47 1023 q 75 1076 47 1058 q 134 1103 84 1083 l 279 1163 m 279 1061 q 262 1014 279 1029 q 183 975 245 999 l 47 920 q 75 973 47 954 q 134 1000 84 979 l 279 1061 m 294 890 q 275 806 294 840 q 222 770 256 770 q 176 787 200 770 q 104 729 142 729 q 47 801 47 729 q 66 875 47 828 l 80 880 q 79 862 80 874 q 77 842 77 850 q 102 804 77 804 q 169 909 143 804 l 183 914 q 219 852 195 852 q 272 944 268 852 l 286 948 q 294 890 294 908 z "},"":{"ha":314,"x_min":33,"x_max":314,"o":"m 314 1141 q 284 1047 314 1095 q 306 1016 306 1031 q 301 957 306 991 l 243 1002 q 65 921 176 923 q 103 1006 103 987 q 77 1047 103 1047 q 33 1001 59 1047 q 90 1107 43 1107 q 126 1082 113 1107 q 138 1033 138 1061 q 128 975 138 1017 q 218 1020 175 989 q 178 1084 178 1060 q 207 1150 178 1116 q 270 1184 235 1184 q 314 1141 314 1184 m 294 890 q 275 806 294 840 q 222 770 256 770 q 176 787 202 770 q 104 729 142 729 q 47 801 47 729 q 66 875 47 829 l 80 880 q 79 863 80 875 q 77 842 77 850 q 102 804 77 804 q 169 910 143 804 l 183 914 q 219 852 194 852 q 272 944 268 852 l 286 948 q 294 890 294 908 m 266 1100 q 236 1142 266 1142 q 221 1122 221 1142 q 257 1074 221 1107 q 266 1100 266 1086 z "},"":{"ha":294,"x_min":47,"x_max":294,"o":"m 294 1015 q 275 932 294 965 q 222 897 256 897 q 176 913 202 897 q 104 856 142 856 q 47 928 47 856 q 66 1000 47 955 l 80 1006 q 79 988 80 1000 q 77 968 77 976 q 102 930 77 930 q 169 1036 144 930 l 183 1040 q 219 978 194 978 q 272 1069 268 978 l 286 1074 q 294 1015 294 1034 m 283 870 q 266 823 283 838 q 188 783 249 808 l 52 729 q 79 782 52 763 q 138 809 88 788 l 283 870 z "},"":{"ha":1185,"x_min":39,"x_max":1172,"o":"m 538 62 q 466 -138 538 -55 q 304 -202 418 -190 q 43 1 66 -185 q 54 120 39 84 q 77 161 68 156 q 91 152 86 165 q 88 116 96 139 q 80 60 80 92 q 90 -3 79 28 q 140 -77 100 -35 q 289 -126 182 -111 q 402 -100 370 -119 q 455 -52 435 -81 q 484 53 475 -22 q 477 527 484 148 q 448 589 467 569 q 427 641 430 610 q 441 691 425 671 q 488 706 457 711 q 527 673 519 701 q 534 539 536 646 q 536 361 532 458 q 538 62 533 140 m 1121 -64 q 1105 -99 1121 -64 q 1028 -189 1088 -134 q 877 -251 952 -245 q 738 -241 802 -256 q 640 -208 673 -226 q 605 -165 606 -190 q 640 -155 604 -140 q 708 -181 676 -170 q 792 -200 739 -193 q 899 -192 846 -207 q 994 -139 951 -177 q 1066 -58 1037 -102 q 1101 52 1095 -14 q 1085 138 1107 117 q 1062 191 1063 159 q 1084 237 1061 223 q 1140 230 1108 250 q 1164 113 1172 210 q 1121 -64 1154 5 m 940 22 q 962 16 951 22 q 979 -3 972 9 q 985 -30 985 -16 q 979 -56 985 -43 q 962 -76 972 -68 q 940 -83 951 -83 q 918 -76 928 -83 q 901 -56 907 -68 q 895 -30 895 -43 q 901 -3 895 -16 q 918 16 907 9 q 940 22 928 22 m 821 18 q 843 11 833 18 q 860 -9 854 4 q 867 -36 867 -22 q 861 -63 867 -50 q 844 -83 854 -76 q 821 -91 833 -91 q 798 -83 809 -91 q 781 -63 787 -76 q 775 -36 775 -50 q 781 -9 775 -22 q 798 11 787 4 q 821 18 809 18 m 798 88 l 721 88 q 684 81 698 86 q 638 92 652 68 q 636 151 623 115 q 646 363 650 186 q 637 510 641 480 q 610 564 633 540 q 592 625 588 587 q 623 674 596 663 q 666 653 649 686 q 689 484 684 621 q 693 314 693 376 q 694 176 693 252 l 798 176 l 909 176 q 949 199 937 173 q 951 266 960 225 q 917 310 946 296 q 886 354 887 324 q 915 397 884 384 q 963 388 945 410 q 989 338 982 365 q 995 217 1004 285 q 968 122 987 149 q 915 88 950 95 l 798 88 z "},"":{"ha":294,"x_min":47,"x_max":294,"o":"m 294 1087 q 275 1003 294 1036 q 222 967 256 967 q 176 984 200 967 q 104 927 144 927 q 47 998 47 927 q 66 1072 47 1025 l 80 1077 q 79 1059 80 1071 q 77 1039 77 1047 q 102 1001 77 1001 q 169 1107 144 1001 l 183 1111 q 219 1048 195 1048 q 272 1141 268 1048 l 286 1145 q 294 1087 294 1103 m 283 954 q 265 907 283 923 q 188 869 249 895 l 52 814 q 78 867 52 848 q 138 895 88 874 l 283 954 m 283 871 q 266 824 283 839 q 188 784 249 808 l 52 729 q 79 782 52 763 q 138 810 88 789 l 283 871 z "},"":{"ha":294,"x_min":47,"x_max":294,"o":"m 279 1163 q 262 1117 279 1132 q 183 1078 245 1102 l 47 1023 q 75 1076 47 1058 q 134 1103 84 1083 l 279 1163 m 279 1061 q 262 1014 279 1029 q 183 975 245 999 l 47 920 q 75 973 47 954 q 134 1000 84 979 l 279 1061 m 294 890 q 275 806 294 840 q 222 770 256 770 q 176 787 200 770 q 104 729 142 729 q 47 801 47 729 q 66 875 47 828 l 80 880 q 79 862 80 874 q 77 842 77 850 q 102 804 77 804 q 169 909 143 804 l 183 914 q 219 852 195 852 q 272 944 268 852 l 286 948 q 294 890 294 908 z "},"":{"ha":288,"x_min":52,"x_max":296,"o":"m 283 1079 q 266 1032 283 1047 q 188 993 249 1017 l 52 939 q 79 991 52 972 q 138 1018 87 997 l 283 1079 m 296 814 q 216 753 296 781 l 59 699 q 144 768 59 738 q 86 827 86 797 q 132 902 86 853 q 219 954 181 954 q 261 912 261 954 q 241 861 261 895 q 184 884 216 884 q 148 877 165 884 q 130 859 130 869 q 168 824 130 846 q 236 802 207 802 q 296 814 265 802 z "},"":{"ha":288,"x_min":47,"x_max":296,"o":"m 281 1173 q 263 1127 281 1142 q 184 1088 246 1112 l 49 1034 q 76 1086 49 1068 q 135 1114 85 1093 l 281 1173 m 279 1073 q 262 1026 279 1041 q 183 986 245 1010 l 47 932 q 75 985 47 966 q 134 1012 84 991 l 279 1073 m 296 814 q 216 753 296 781 l 59 699 q 144 768 59 738 q 86 827 86 797 q 132 902 86 853 q 219 954 181 954 q 261 912 261 954 q 241 861 261 895 q 184 884 216 884 q 148 877 165 884 q 130 859 130 869 q 168 824 130 846 q 236 802 207 802 q 296 814 265 802 z "},"":{"ha":288,"x_min":59,"x_max":296,"o":"m 244 1078 q 213 1003 244 1036 q 136 970 182 970 q 63 1047 63 970 q 91 1139 63 1099 q 157 1180 118 1180 q 219 1149 194 1180 q 244 1078 244 1118 m 296 814 q 216 753 296 781 l 59 699 q 144 768 59 738 q 86 827 86 797 q 132 902 86 853 q 219 954 181 954 q 261 912 261 954 q 241 861 261 895 q 184 884 216 884 q 148 877 165 884 q 130 859 130 869 q 168 824 130 846 q 236 802 207 802 q 296 814 265 802 m 203 1060 q 177 1102 203 1079 q 132 1125 151 1125 q 102 1109 115 1125 q 90 1078 90 1094 q 163 1038 90 1038 q 203 1060 203 1038 z "},"":{"ha":312,"x_min":58,"x_max":295,"o":"m 295 814 q 215 753 295 781 l 58 699 q 142 768 58 738 q 85 827 85 797 q 130 902 85 853 q 218 954 180 954 q 260 912 260 954 q 240 861 260 895 q 183 884 214 884 q 146 877 164 884 q 128 859 128 869 q 167 824 128 846 q 235 802 205 802 q 295 814 264 802 m 140 1190 q 195 1178 168 1190 q 236 1142 221 1165 q 251 1094 251 1119 q 236 1046 251 1069 q 195 1010 222 1023 q 140 998 169 998 q 89 1029 84 1008 q 124 1042 94 1050 q 173 1042 154 1034 q 202 1070 193 1050 q 199 1115 212 1090 q 166 1145 187 1139 q 116 1144 146 1152 q 85 1160 86 1136 q 140 1190 85 1184 z "},"":{"ha":288,"x_min":-1,"x_max":271,"o":"m 236 781 q 156 719 236 747 l -1 665 q 83 734 -1 704 q 26 793 26 763 q 71 868 26 819 q 159 920 121 920 q 201 878 201 920 q 181 827 201 861 q 124 850 155 850 q 87 843 105 850 q 69 825 69 835 q 108 790 69 812 q 176 768 146 768 q 236 781 205 768 m 134 1187 q 201 1172 169 1187 q 253 1127 234 1156 q 271 1066 271 1098 q 253 1006 271 1035 q 203 961 235 977 q 134 945 170 945 q 71 984 65 958 q 114 1001 77 1010 q 175 1001 151 991 q 211 1037 199 1011 q 207 1092 222 1062 q 166 1131 192 1122 q 104 1129 141 1139 q 66 1149 67 1120 q 134 1187 66 1179 m 105 1122 q 134 1115 120 1122 q 156 1096 148 1108 q 163 1069 163 1083 q 156 1043 163 1056 q 134 1024 148 1031 q 105 1017 121 1017 q 78 1034 75 1023 q 97 1041 81 1046 q 123 1041 113 1037 q 138 1057 133 1046 q 136 1080 142 1067 q 119 1097 130 1093 q 92 1097 108 1101 q 76 1105 77 1093 q 105 1122 76 1118 z "},"ﭐ":{"ha":330,"x_min":32,"x_max":302,"o":"m 106 901 q 117 904 106 901 q 146 899 127 907 q 179 866 165 891 q 191 730 193 840 q 190 353 188 511 q 212 169 191 208 q 221 101 233 130 q 165 77 209 73 q 115 250 111 96 q 119 561 118 405 q 98 750 120 718 q 70 812 76 783 q 74 868 63 842 q 106 901 84 895 m 302 545 q 282 495 302 511 q 190 452 262 479 l 32 392 q 63 450 32 430 q 132 480 75 458 l 302 545 m 161 41 q 186 35 174 41 q 204 16 197 28 q 211 -9 211 4 q 204 -34 211 -22 q 186 -52 198 -45 q 161 -59 174 -59 q 137 -52 149 -59 q 119 -34 125 -45 q 113 -9 113 -22 q 119 16 113 4 q 137 35 125 28 q 161 41 149 41 z "},"ﭑ":{"ha":319,"x_min":10,"x_max":362,"o":"m 362 87 q 191 78 239 94 q 120 93 142 61 q 118 173 98 125 q 132 459 138 220 q 119 656 125 616 q 79 729 113 696 q 51 812 45 761 q 97 878 56 863 q 163 849 137 893 q 197 621 189 806 q 204 392 204 475 q 205 207 203 309 l 362 205 l 362 87 m 281 545 q 261 495 281 511 q 168 452 241 479 l 10 392 q 41 450 10 430 q 111 480 53 458 l 281 545 m 140 41 q 164 35 153 41 q 182 16 176 28 q 189 -9 189 4 q 183 -34 189 -22 q 164 -52 176 -45 q 140 -59 153 -59 q 116 -52 127 -59 q 97 -34 104 -45 q 91 -9 91 -22 q 97 16 91 4 q 116 35 104 28 q 140 41 127 41 z "},"ﭖ":{"ha":991,"x_min":68,"x_max":1042,"o":"m 253 706 l 331 764 q 151 482 151 573 l 151 421 q 622 197 151 197 l 704 197 q 946 267 907 197 q 924 400 985 376 q 865 455 863 424 q 958 511 861 524 q 1042 340 1031 472 l 1040 303 q 683 96 1031 96 q 68 421 68 96 q 253 706 68 549 m 500 -136 q 465 -128 482 -136 q 437 -104 447 -119 q 428 -71 428 -88 q 437 -39 428 -54 q 464 -15 447 -24 q 500 -6 481 -6 q 536 -15 519 -6 q 563 -39 553 -24 q 572 -71 572 -54 q 563 -104 572 -88 q 535 -128 553 -119 q 500 -136 518 -136 m 708 -133 q 672 -125 690 -133 q 645 -101 654 -117 q 635 -70 635 -86 q 645 -38 635 -54 q 672 -15 654 -23 q 708 -6 689 -6 q 744 -15 726 -6 q 770 -38 761 -23 q 780 -70 780 -54 q 770 -101 780 -86 q 743 -125 760 -117 q 708 -133 726 -133 m 607 -307 q 571 -299 589 -307 q 544 -275 553 -290 q 534 -242 534 -259 q 544 -210 534 -225 q 571 -186 553 -195 q 607 -177 588 -177 q 643 -186 625 -177 q 669 -210 660 -195 q 679 -242 679 -225 q 669 -275 679 -259 q 642 -299 659 -290 q 607 -307 625 -307 z "},"ﭙ":{"ha":441,"x_min":-23,"x_max":475,"o":"m 422 134 q 408 115 422 134 q 341 88 394 97 l -23 87 l -23 205 l 331 205 q 392 237 374 202 q 397 328 410 273 q 343 388 388 369 q 296 446 298 406 q 340 504 294 486 q 414 491 386 522 q 454 425 442 460 q 463 261 475 353 q 422 134 450 170 m 131 -136 q 95 -128 113 -136 q 68 -104 77 -119 q 58 -71 58 -88 q 68 -39 58 -54 q 95 -15 77 -24 q 131 -6 112 -6 q 166 -15 149 -6 q 193 -39 184 -24 q 203 -71 203 -54 q 193 -104 203 -88 q 166 -128 183 -119 q 131 -136 149 -136 m 338 -133 q 302 -125 320 -133 q 275 -101 285 -117 q 266 -70 266 -86 q 275 -38 266 -54 q 302 -15 285 -23 q 338 -6 319 -6 q 374 -15 357 -6 q 401 -38 391 -23 q 410 -70 410 -54 q 400 -101 410 -86 q 373 -125 391 -117 q 338 -133 356 -133 m 237 -307 q 201 -299 219 -307 q 174 -275 184 -290 q 165 -242 165 -259 q 174 -210 165 -225 q 201 -186 184 -195 q 237 -177 218 -177 q 273 -186 256 -177 q 300 -210 290 -195 q 309 -242 309 -225 q 299 -275 309 -259 q 272 -299 290 -290 q 237 -307 255 -307 z "},"ﭪ":{"ha":825,"x_min":74,"x_max":838,"o":"m 838 193 q 812 -12 838 62 q 709 -143 786 -85 q 401 -206 593 -206 q 148 -103 221 -184 q 76 79 74 -22 q 124 267 77 180 q 185 348 171 354 q 164 258 199 342 q 130 102 130 175 q 408 -85 130 -85 q 637 -57 553 -85 q 744 68 722 -28 q 755 191 766 164 q 671 165 720 165 q 574 192 612 165 q 529 290 529 225 q 559 452 508 367 q 673 515 612 515 q 798 407 752 515 q 838 193 838 314 m 730 313 q 704 366 712 354 q 657 393 685 393 q 594 338 594 393 q 615 304 594 317 q 659 293 634 293 q 730 313 685 293 m 484 699 q 518 690 501 699 q 546 666 536 682 q 555 633 555 650 q 546 601 555 616 q 519 577 536 586 q 484 568 502 568 q 447 577 465 568 q 420 601 430 586 q 411 633 411 616 q 420 666 411 650 q 448 690 430 682 q 484 699 465 699 m 691 695 q 726 687 709 695 q 753 664 743 679 q 763 632 763 648 q 753 601 763 616 q 727 577 744 585 q 691 568 709 568 q 655 577 672 568 q 628 601 637 585 q 618 632 618 616 q 628 664 618 648 q 655 687 637 679 q 691 695 673 695 m 590 869 q 625 861 608 869 q 652 837 642 852 q 662 804 662 821 q 652 772 662 787 q 626 748 643 757 q 590 739 608 739 q 554 748 571 739 q 527 772 536 757 q 517 804 517 787 q 527 837 517 821 q 554 861 536 852 q 590 869 572 869 z "},"ﭭ":{"ha":412,"x_min":-41,"x_max":473,"o":"m 456 233 q 448 197 456 233 q 373 113 439 161 q -41 87 307 64 l -41 205 l 226 205 q 361 264 353 205 q 258 254 315 239 q 180 369 180 288 q 217 504 180 440 q 319 574 259 574 q 435 503 389 574 q 469 373 465 439 q 456 233 473 306 m 367 353 q 295 456 355 456 q 262 440 276 456 q 249 406 249 425 q 302 336 249 354 q 367 353 342 331 m 132 785 q 167 777 150 785 q 194 753 184 768 q 204 720 204 737 q 195 688 204 703 q 168 664 185 673 q 132 655 151 655 q 96 664 113 655 q 69 688 79 673 q 60 720 60 703 q 69 753 60 737 q 96 777 79 768 q 132 785 114 785 m 340 782 q 375 774 357 782 q 402 750 392 766 q 412 719 412 735 q 402 687 412 703 q 375 664 393 672 q 340 655 358 655 q 303 664 321 655 q 277 687 286 672 q 267 719 267 703 q 277 750 267 735 q 304 774 286 766 q 340 782 321 782 m 239 956 q 274 948 256 956 q 301 924 291 939 q 311 891 311 908 q 301 859 311 874 q 274 835 292 844 q 239 826 257 826 q 202 835 220 826 q 176 859 185 844 q 166 891 166 874 q 176 924 166 908 q 203 948 185 939 q 239 956 220 956 z "},"ﭺ":{"ha":744,"x_min":26,"x_max":808,"o":"m 709 -357 q 669 -370 709 -357 q 509 -380 628 -382 q 289 -337 391 -378 q 94 -28 94 -259 q 203 255 94 134 q 320 357 255 314 q 528 444 385 400 q 369 573 448 473 q 214 651 289 673 q 122 573 138 628 q 141 506 105 518 q 180 462 176 494 q 149 419 184 429 q 75 437 115 408 q 30 525 35 467 q 64 642 26 584 q 154 722 103 700 q 264 738 205 744 q 370 700 322 732 q 470 600 418 667 q 583 508 521 533 q 692 482 646 482 q 744 444 739 482 q 697 389 750 406 q 372 295 475 353 q 175 20 195 196 q 316 -261 157 -203 q 573 -300 475 -319 q 706 -257 671 -280 q 774 -239 741 -233 q 799 -288 808 -245 q 709 -357 790 -331 m 406 -7 q 370 2 387 -7 q 342 26 352 10 q 333 58 333 41 q 342 91 333 75 q 369 115 352 106 q 406 123 387 123 q 441 115 424 123 q 468 91 458 106 q 477 58 477 75 q 468 26 477 41 q 440 2 458 10 q 406 -7 423 -7 m 613 -3 q 577 5 595 -3 q 550 28 559 13 q 541 60 541 43 q 550 91 541 76 q 577 115 559 106 q 613 123 594 123 q 649 115 631 123 q 675 91 666 106 q 685 60 685 76 q 675 28 685 43 q 648 5 665 13 q 613 -3 631 -3 m 512 -178 q 476 -169 494 -178 q 449 -145 458 -161 q 439 -113 439 -130 q 449 -80 439 -96 q 476 -56 458 -65 q 512 -47 493 -47 q 548 -56 530 -47 q 574 -80 565 -65 q 584 -113 584 -96 q 574 -145 584 -130 q 547 -169 564 -161 q 512 -178 530 -178 z "},"ﭻ":{"ha":764,"x_min":24,"x_max":815,"o":"m 708 -408 q 667 -421 708 -408 q 508 -432 627 -434 q 288 -389 389 -429 q 92 -114 92 -311 q 201 136 92 14 q 319 238 254 195 q 527 324 384 281 q 367 454 447 353 q 212 531 288 554 q 120 454 137 509 q 139 387 104 399 q 179 342 175 375 q 148 299 182 310 q 73 318 113 289 q 29 406 33 347 q 63 523 24 465 q 153 603 102 581 q 262 618 204 625 q 369 580 321 612 q 468 481 417 548 q 582 388 519 414 q 691 363 644 363 q 743 325 737 363 q 696 270 749 286 q 567 244 573 273 q 609 209 562 215 q 815 201 657 203 l 814 86 l 640 90 q 501 244 502 96 q 370 188 442 231 q 174 -66 194 77 q 315 -313 155 -255 q 572 -351 474 -371 q 705 -308 670 -332 q 773 -291 739 -285 q 798 -340 806 -297 q 708 -408 789 -382 m 387 -92 q 351 -84 368 -92 q 323 -60 333 -75 q 314 -27 314 -44 q 323 5 314 -10 q 350 29 333 20 q 387 38 368 38 q 422 29 405 38 q 449 5 439 20 q 458 -27 458 -10 q 449 -60 458 -44 q 421 -84 439 -75 q 387 -92 404 -92 m 594 -89 q 558 -81 576 -89 q 531 -57 541 -73 q 522 -26 522 -42 q 531 6 522 -9 q 558 30 541 21 q 594 38 575 38 q 630 30 612 38 q 656 6 647 21 q 666 -26 666 -9 q 656 -57 666 -42 q 629 -81 646 -73 q 594 -89 612 -89 m 493 -263 q 457 -255 475 -263 q 430 -231 439 -246 q 420 -198 420 -215 q 430 -166 420 -181 q 457 -142 439 -151 q 493 -133 474 -133 q 529 -142 511 -133 q 555 -166 546 -151 q 565 -198 565 -181 q 555 -231 565 -215 q 528 -255 545 -246 q 493 -263 511 -263 z "},"ﭽ":{"ha":890,"x_min":-71,"x_max":989,"o":"m 387 584 q 660 441 600 612 q 890 207 720 270 q 981 157 972 191 q 972 94 989 123 q 913 85 944 79 q -16 90 882 92 q -16 206 -71 148 l 762 206 q 606 396 650 275 q 433 520 561 517 q 302 457 351 519 q 285 349 253 396 q 278 261 317 302 l 239 261 q 188 356 188 283 q 387 584 188 510 m 353 -170 q 317 -162 334 -170 q 290 -138 299 -153 q 280 -105 280 -122 q 290 -73 280 -88 q 316 -49 299 -58 q 353 -40 334 -40 q 388 -49 371 -40 q 415 -73 406 -58 q 425 -105 425 -88 q 415 -138 425 -122 q 388 -162 405 -153 q 353 -170 370 -170 m 560 -167 q 524 -159 542 -167 q 497 -135 507 -151 q 488 -104 488 -120 q 497 -72 488 -87 q 524 -48 507 -57 q 560 -40 541 -40 q 596 -48 578 -40 q 623 -72 613 -57 q 632 -104 632 -87 q 622 -135 632 -120 q 595 -159 612 -151 q 560 -167 578 -167 m 459 -341 q 423 -333 441 -341 q 396 -309 406 -324 q 387 -276 387 -293 q 396 -244 387 -259 q 423 -220 406 -229 q 459 -211 440 -211 q 495 -220 477 -211 q 522 -244 512 -229 q 531 -276 531 -259 q 521 -309 531 -293 q 494 -333 511 -324 q 459 -341 477 -341 z "},"ﮊ":{"ha":547,"x_min":-289,"x_max":573,"o":"m 561 179 q 496 -61 545 33 q 355 -230 446 -155 q 125 -312 239 -304 q -87 -299 10 -320 q -235 -255 -184 -279 q -288 -197 -287 -231 q -234 -183 -289 -163 q -132 -219 -180 -203 q -3 -244 -84 -235 q 158 -233 77 -253 q 303 -162 239 -213 q 412 -53 368 -112 q 465 95 456 7 q 441 212 475 184 q 406 284 408 241 q 440 345 404 327 q 525 336 476 363 q 561 179 573 309 m 249 649 q 284 641 267 649 q 311 616 301 632 q 321 584 321 601 q 311 552 321 567 q 284 528 302 536 q 249 519 267 519 q 213 528 230 519 q 186 552 195 536 q 176 584 176 567 q 186 616 176 601 q 213 641 195 632 q 249 649 231 649 m 456 646 q 491 637 474 646 q 518 614 509 629 q 528 583 528 599 q 519 551 528 566 q 492 527 509 536 q 456 519 475 519 q 420 527 437 519 q 393 551 403 536 q 384 583 384 566 q 393 614 384 599 q 420 637 403 629 q 456 646 438 646 m 355 820 q 390 811 373 820 q 417 787 408 803 q 427 755 427 772 q 418 723 427 738 q 391 699 408 707 q 355 690 374 690 q 319 699 336 690 q 292 723 302 707 q 283 755 283 738 q 292 787 283 772 q 319 811 302 803 q 355 820 337 820 z "},"ﮎ":{"ha":1337,"x_min":7,"x_max":1489,"o":"m 1254 205 q 1162 343 1336 355 q 712 333 987 331 q 446 439 436 334 q 574 650 456 544 q 735 710 692 757 q 685 626 779 663 q 542 497 592 590 q 670 399 492 404 q 1168 418 848 395 q 1333 87 1489 441 l 309 88 l 231 88 q 171 109 197 96 q 50 269 98 159 l 42 290 q 49 435 7 385 l 68 444 q 127 421 106 460 q 135 336 147 382 q 138 262 122 290 q 247 205 168 213 l 1254 205 z "},"ﮏ":{"ha":1356,"x_min":-118,"x_max":1402,"o":"m 196 195 q 1168 205 802 189 q 1076 343 1250 355 q 626 333 901 331 q 360 439 350 334 q 488 650 370 544 q 649 710 606 757 q 599 626 692 663 q 456 497 506 590 q 584 399 406 404 q 1055 418 762 395 q 1287 205 1348 441 l 1364 205 q 1363 85 1402 143 l 1247 84 q 1189 39 1229 39 q 1133 86 1149 39 q 193 85 793 81 l 139 87 q 45 109 71 95 q -75 269 -28 158 l -83 289 q -77 435 -118 385 l -58 443 q 1 420 -19 459 q 9 335 22 381 q 13 261 -3 290 q 128 200 41 213 l 196 195 z "},"ﮐ":{"ha":1220,"x_min":-48,"x_max":1388,"o":"m 1232 87 l -5 88 q -4 205 -48 144 l 1154 205 q 949 343 1236 355 q 388 333 663 331 q 122 439 112 334 q 250 650 132 544 q 411 710 368 757 q 361 626 454 663 q 218 497 268 590 q 346 399 168 404 q 956 418 524 395 q 1232 87 1388 441 z "},"ﮑ":{"ha":1253,"x_min":-47,"x_max":1295,"o":"m 1186 212 l 1256 212 q 1255 92 1295 150 l 1146 91 q 1088 46 1128 46 q 1031 93 1048 46 q -4 88 673 88 q -3 205 -47 144 q 1067 212 671 195 q 924 353 1149 362 q 423 346 699 345 q 157 453 147 348 q 285 664 167 557 q 447 723 404 770 q 396 640 490 676 q 253 510 303 604 q 381 413 203 417 q 903 428 559 409 q 1186 212 1247 448 z "},"ﮒ":{"ha":1171,"x_min":7,"x_max":1353,"o":"m 1105 205 q 1026 438 1200 450 q 576 428 852 426 q 310 534 300 429 q 438 745 320 639 q 600 805 557 852 q 550 721 643 758 q 406 592 456 685 q 534 494 356 498 q 1033 513 713 490 q 1183 87 1353 536 l 309 88 l 231 88 q 171 109 197 96 q 50 269 98 159 l 42 290 q 49 435 7 385 l 68 444 q 127 421 106 460 q 135 336 147 382 q 138 262 122 290 q 247 205 168 213 l 1105 205 m 263 628 q 256 631 263 628 q 251 659 248 633 q 357 793 253 685 q 490 876 462 901 q 440 804 518 851 q 321 689 363 757 q 263 628 279 622 z "},"ﮓ":{"ha":1214,"x_min":-118,"x_max":1260,"o":"m 196 195 q 1025 205 659 189 q 926 438 1101 450 q 476 428 752 426 q 211 534 201 429 q 339 745 220 639 q 500 805 457 852 q 450 721 543 758 q 307 592 357 685 q 435 494 256 498 q 906 513 613 490 q 1145 205 1199 536 l 1221 205 q 1221 85 1260 143 l 1105 84 q 1047 39 1086 39 q 990 86 1007 39 q 193 85 650 81 l 139 87 q 45 109 71 95 q -75 269 -28 158 l -83 289 q -77 435 -118 385 l -58 443 q 1 420 -19 459 q 9 335 22 381 q 13 261 -3 290 q 128 200 41 213 l 196 195 m 162 628 q 154 631 162 628 q 149 659 146 633 q 256 793 151 685 q 388 876 360 901 q 339 804 416 851 q 219 689 261 757 q 162 628 177 622 z "},"ﮔ":{"ha":1047,"x_min":-45,"x_max":1195,"o":"m 1059 87 l -2 88 q -1 205 -45 144 l 981 205 q 868 445 1042 457 q 418 434 694 433 q 152 541 142 436 q 280 752 162 646 q 442 811 399 859 q 392 728 485 764 q 248 598 298 692 q 376 501 198 505 q 875 520 555 497 q 1059 87 1195 543 m 107 634 q 99 637 107 634 q 94 666 92 640 q 201 800 96 692 q 333 883 305 907 q 284 811 361 858 q 164 696 206 764 q 107 634 122 629 z "},"ﮕ":{"ha":1152,"x_min":-52,"x_max":1194,"o":"m 137 648 q 129 651 137 648 q 124 680 121 654 q 231 813 126 705 q 363 896 335 921 q 314 824 391 871 q 194 710 236 777 q 137 648 152 642 m 1086 205 l 1156 205 q 1155 85 1194 143 l 1046 84 q 988 39 1027 39 q 931 86 948 39 q -9 88 572 81 q -8 205 -52 144 q 966 205 571 188 q 895 458 1069 471 q 445 448 720 446 q 179 554 169 450 q 307 766 189 659 q 468 825 425 872 q 418 742 511 778 q 275 612 325 705 q 403 515 224 519 q 874 533 581 511 q 1086 205 1167 556 z "},"ﯼ":{"ha":886,"x_min":51,"x_max":937,"o":"m 931 431 q 901 382 928 393 q 838 402 874 372 q 771 422 802 432 q 707 377 739 412 q 655 311 675 342 q 635 244 635 281 q 701 210 634 208 q 870 198 817 226 q 906 78 924 170 q 746 -91 888 -14 q 377 -172 589 -177 q 127 -62 203 -151 q 58 135 51 26 q 131 338 66 244 q 244 416 195 433 q 213 307 294 399 q 148 110 133 216 q 399 -56 178 -56 q 688 0 521 -56 q 790 95 784 52 q 707 125 795 138 q 566 161 618 112 q 542 227 543 183 q 567 331 542 271 q 662 461 592 391 q 835 530 732 530 q 911 493 886 521 q 931 431 937 466 z "},"ﯽ":{"ha":1043,"x_min":-115,"x_max":1069,"o":"m 1069 92 q 908 100 939 88 q 853 130 876 111 q 803 182 829 149 q 746 224 777 216 q 689 220 714 233 q 668 174 663 208 q 715 115 673 141 q 803 56 757 90 q 867 -30 850 22 q 861 -144 885 -81 q 766 -269 838 -206 q 584 -358 694 -331 q 325 -365 473 -385 q 57 -248 176 -345 q -88 -61 -62 -151 q -101 102 -115 28 q -56 212 -87 176 q 8 232 -24 248 q 11 169 39 217 q -22 57 -17 121 q 7 -76 -28 -8 q 156 -212 41 -144 q 364 -282 271 -280 q 544 -265 457 -285 q 690 -202 631 -245 q 768 -115 750 -158 q 758 -30 787 -72 q 684 30 729 12 q 610 80 638 49 q 574 150 582 112 q 582 235 566 189 q 647 310 599 282 q 745 334 694 338 q 840 294 795 330 q 914 223 884 257 q 1066 204 945 189 l 1069 92 z "},"ﱞ":{"ha":314,"x_min":33,"x_max":314,"o":"m 314 1141 q 284 1047 314 1095 q 306 1016 306 1031 q 301 957 306 991 l 243 1002 q 65 921 176 923 q 103 1006 103 987 q 77 1047 103 1047 q 33 1001 59 1047 q 90 1107 43 1107 q 126 1082 113 1107 q 138 1033 138 1061 q 128 975 138 1017 q 218 1020 175 989 q 178 1084 178 1060 q 207 1150 178 1116 q 270 1184 235 1184 q 314 1141 314 1184 m 294 890 q 275 806 294 840 q 222 770 256 770 q 176 787 202 770 q 104 729 142 729 q 47 801 47 729 q 66 875 47 829 l 80 880 q 79 863 80 875 q 77 842 77 850 q 102 804 77 804 q 169 910 143 804 l 183 914 q 219 852 194 852 q 272 944 268 852 l 286 948 q 294 890 294 908 m 266 1100 q 236 1142 266 1142 q 221 1122 221 1142 q 257 1074 221 1107 q 266 1100 266 1086 z "},"ﱟ":{"ha":294,"x_min":47,"x_max":294,"o":"m 294 1087 q 275 1003 294 1036 q 222 967 256 967 q 176 984 200 967 q 104 927 144 927 q 47 998 47 927 q 66 1072 47 1025 l 80 1077 q 79 1059 80 1071 q 77 1039 77 1047 q 102 1001 77 1001 q 169 1107 144 1001 l 183 1111 q 219 1048 195 1048 q 272 1141 268 1048 l 286 1145 q 294 1087 294 1103 m 283 954 q 265 907 283 923 q 188 869 249 895 l 52 814 q 78 867 52 848 q 138 895 88 874 l 283 954 m 283 871 q 266 824 283 839 q 188 784 249 808 l 52 729 q 79 782 52 763 q 138 810 88 789 l 283 871 z "},"ﱠ":{"ha":294,"x_min":47,"x_max":294,"o":"m 283 1056 q 266 1009 283 1024 q 188 970 249 994 l 52 916 q 79 968 52 949 q 138 995 87 974 l 283 1056 m 294 890 q 275 806 294 840 q 222 770 256 770 q 176 787 200 770 q 104 729 142 729 q 47 801 47 729 q 66 875 47 828 l 80 880 q 79 863 80 875 q 77 842 77 850 q 102 804 77 804 q 169 910 143 804 l 183 914 q 219 852 194 852 q 272 944 268 852 l 286 948 q 294 890 294 908 z "},"ﱡ":{"ha":296,"x_min":46,"x_max":296,"o":"m 296 964 q 217 978 260 966 q 84 909 136 909 q 46 921 66 909 q 191 992 86 939 q 156 1048 156 1025 q 180 1106 156 1078 q 235 1135 204 1135 q 270 1121 254 1135 q 286 1088 286 1107 q 264 1029 286 1069 q 294 1005 288 1017 q 296 964 296 998 m 296 891 q 278 808 296 841 q 224 771 258 771 q 179 788 203 771 q 107 730 145 730 q 50 802 50 730 q 68 876 50 829 l 83 882 q 81 864 83 876 q 80 844 80 852 q 104 805 80 805 q 172 911 146 805 l 186 916 q 222 853 197 853 q 275 945 271 853 l 289 949 q 296 891 296 909 m 241 1067 q 231 1095 241 1081 q 206 1108 221 1108 q 197 1093 197 1108 q 235 1046 197 1066 q 241 1067 241 1063 z "},"ﱢ":{"ha":294,"x_min":47,"x_max":294,"o":"m 294 1015 q 275 932 294 965 q 222 897 256 897 q 176 913 202 897 q 104 856 142 856 q 47 928 47 856 q 66 1000 47 955 l 80 1006 q 79 988 80 1000 q 77 968 77 976 q 102 930 77 930 q 169 1036 144 930 l 183 1040 q 219 978 194 978 q 272 1069 268 978 l 286 1074 q 294 1015 294 1034 m 283 870 q 266 823 283 838 q 188 783 249 808 l 52 729 q 79 782 52 763 q 138 809 88 788 l 283 870 z "},"ﳲ":{"ha":886,"x_min":0,"x_max":927,"o":"m 556 1056 q 539 1009 556 1024 q 460 970 522 994 l 324 916 q 351 968 324 949 q 410 995 360 974 l 556 1056 m 566 890 q 548 806 566 840 q 494 770 528 770 q 449 787 473 770 q 377 729 415 729 q 320 801 320 729 q 338 875 320 828 l 353 880 q 351 863 353 875 q 350 842 350 850 q 374 804 350 804 q 441 910 416 804 l 456 914 q 492 852 467 852 q 545 944 541 852 l 559 948 q 566 890 566 908 m 927 87 l 0 87 l 0 205 l 927 205 l 927 87 z "},"ﳳ":{"ha":886,"x_min":0,"x_max":927,"o":"m 534 845 q 516 762 534 795 q 463 725 496 725 q 417 742 441 725 q 345 684 383 684 q 288 756 288 684 q 307 830 288 783 l 321 836 q 319 818 321 829 q 318 798 318 806 q 342 759 318 759 q 410 865 384 759 l 424 869 q 460 807 435 807 q 513 899 509 807 l 527 903 q 534 845 534 863 m 927 87 l 0 87 l 0 205 l 927 205 l 927 87 m 368 1168 q 436 1153 403 1168 q 489 1107 470 1137 q 509 1044 509 1077 q 490 982 509 1012 q 438 937 471 953 q 368 920 404 920 q 302 961 296 934 q 347 977 309 987 q 410 977 385 967 q 447 1014 435 987 q 443 1071 458 1040 q 401 1111 427 1102 q 336 1109 374 1120 q 298 1129 298 1099 q 368 1168 297 1160 z "},"ﳴ":{"ha":886,"x_min":0,"x_max":927,"o":"m 566 1015 q 548 932 566 965 q 494 897 528 897 q 449 913 475 897 q 377 856 415 856 q 320 928 320 856 q 338 1000 320 955 l 353 1006 q 351 988 353 1000 q 350 968 350 976 q 374 930 350 930 q 441 1036 416 930 l 456 1040 q 492 978 467 978 q 545 1069 541 978 l 559 1074 q 566 1015 566 1034 m 556 870 q 539 823 556 838 q 460 783 522 808 l 324 729 q 351 782 324 763 q 410 809 361 788 l 556 870 m 927 87 l 0 87 l 0 205 l 927 205 l 927 87 z "},"ﴼ":{"ha":406,"x_min":94,"x_max":463,"o":"m 326 1165 q 308 1119 326 1134 q 229 1080 291 1104 l 94 1025 q 121 1078 94 1060 q 180 1105 130 1085 l 326 1165 m 326 1063 q 308 1016 326 1031 q 229 977 291 1001 l 94 922 q 121 975 94 956 q 180 1002 130 981 l 326 1063 m 463 87 q 292 78 340 94 q 221 93 243 61 q 219 173 199 125 q 233 459 239 220 q 220 656 226 616 q 180 729 214 696 q 152 812 146 761 q 198 878 157 863 q 264 849 238 893 q 298 621 290 806 q 305 392 305 475 q 306 207 304 309 l 463 205 l 463 87 z "},"ﴽ":{"ha":435,"x_min":155,"x_max":387,"o":"m 387 1165 q 369 1119 387 1134 q 290 1080 352 1104 l 155 1025 q 182 1078 155 1060 q 241 1105 191 1085 l 387 1165 m 387 1063 q 369 1016 387 1031 q 290 977 352 1001 l 155 922 q 182 975 155 956 q 241 1002 191 981 l 387 1063 m 219 901 q 230 904 219 901 q 260 899 241 907 q 293 866 279 891 q 304 730 307 840 q 303 353 301 511 q 325 169 304 208 q 334 101 346 130 q 278 77 322 73 q 228 250 224 96 q 232 561 231 405 q 211 750 233 718 q 183 812 189 783 q 187 868 176 842 q 219 901 197 895 z "},"﴾":{"ha":770,"x_min":37,"x_max":729,"o":"m 729 -415 q 713 -425 729 -425 q 557 -323 661 -425 q 345 16 421 -190 q 203 53 203 18 q 296 204 296 151 q 205 154 254 204 q 150 104 157 104 q 113 215 124 104 q 37 279 37 252 q 109 353 37 311 q 142 458 116 458 q 296 361 245 361 q 243 460 291 413 q 195 513 195 507 q 236 536 195 524 q 340 553 283 551 q 473 816 389 700 q 611 964 537 906 q 694 1011 670 1011 q 708 996 708 1011 q 659 934 708 989 q 559 793 597 865 q 478 546 498 682 q 546 515 546 535 q 450 366 450 419 q 596 465 499 366 q 621 429 608 465 q 636 354 634 393 q 708 286 708 317 q 640 221 708 261 q 603 113 635 113 l 557 157 q 453 208 510 203 q 503 111 453 160 q 553 54 553 62 q 479 24 553 39 q 568 -204 501 -87 q 715 -392 635 -322 q 729 -415 729 -404 m 648 961 q 358 521 460 833 q 262 515 276 517 q 245 504 245 512 l 272 478 q 325 407 304 448 q 375 463 355 463 q 419 407 388 463 q 463 456 426 423 q 496 509 496 486 q 475 519 496 515 l 444 525 q 511 752 484 690 q 648 961 551 846 m 671 290 q 608 329 671 308 q 591 415 601 415 q 555 383 586 415 q 484 334 519 347 q 549 283 549 305 q 486 237 549 261 q 566 190 531 222 l 596 161 q 608 240 608 161 q 671 290 671 275 m 461 283 q 435 345 461 319 q 374 371 410 371 q 312 345 337 371 q 286 283 286 319 q 312 223 286 248 q 374 199 337 199 q 435 223 410 199 q 461 283 461 248 m 262 236 q 199 286 199 264 q 261 332 199 309 q 206 375 243 338 q 150 408 174 408 q 138 329 138 408 q 75 279 75 294 q 138 240 75 262 q 154 154 145 154 q 191 186 159 154 q 262 236 227 222 m 679 -387 q 543 -214 602 -318 q 450 46 471 -88 q 504 61 504 51 l 475 89 q 419 163 440 121 q 374 107 394 107 q 328 163 347 107 q 278 86 309 117 l 253 58 q 315 46 253 53 q 363 49 332 46 q 679 -387 456 -243 z "},"﴿":{"ha":770,"x_min":40,"x_max":732,"o":"m 732 307 q 661 233 732 275 q 628 127 654 127 q 473 225 524 225 q 527 126 479 173 q 575 74 575 80 q 534 50 575 63 q 429 33 487 35 q 297 -230 380 -114 q 159 -378 233 -320 q 75 -425 100 -425 q 61 -411 61 -425 q 111 -349 61 -404 q 211 -208 172 -279 q 292 40 271 -96 q 224 71 224 52 q 319 221 319 168 q 174 121 270 221 q 148 156 161 121 q 134 232 136 192 q 61 300 61 270 q 129 366 61 326 q 167 473 136 473 l 213 429 q 317 378 260 383 q 267 475 317 427 q 216 532 216 524 q 290 562 216 547 q 202 791 269 673 q 54 978 135 908 q 40 1000 40 990 q 57 1011 40 1011 q 212 909 109 1011 q 425 571 349 776 q 567 533 567 569 q 473 382 473 435 q 564 432 515 382 q 619 482 613 482 q 657 371 645 482 q 732 307 732 334 m 517 528 q 454 541 517 534 q 407 538 437 541 q 90 974 312 829 q 227 799 168 903 q 319 541 299 673 q 265 525 265 536 l 294 497 q 350 424 330 466 q 396 479 376 479 q 441 424 423 479 q 491 500 460 469 l 517 528 m 694 307 q 632 346 694 323 q 615 432 625 432 q 578 400 610 432 q 507 350 543 363 q 571 300 571 321 q 509 254 571 277 q 563 211 527 248 q 619 178 595 178 q 632 257 632 178 q 694 307 694 294 m 484 302 q 458 362 484 338 q 396 387 432 387 q 334 362 360 387 q 309 302 309 338 q 334 241 309 267 q 396 215 360 215 q 458 241 432 215 q 484 302 484 267 m 286 253 q 221 302 221 280 q 283 349 221 326 q 203 396 238 363 l 174 425 q 161 346 161 425 q 98 296 98 311 q 161 257 98 278 q 178 171 169 171 q 215 203 183 171 q 286 253 250 239 m 524 82 l 497 109 q 444 179 465 138 q 395 123 415 123 q 350 179 381 123 q 302 109 335 142 l 273 78 q 294 66 273 71 q 325 61 309 64 q 259 -167 286 -104 q 121 -375 219 -259 q 411 65 311 -247 q 508 72 493 69 q 524 82 524 74 z "},"ﷲ":{"ha":952,"x_min":66,"x_max":930,"o":"m 583 833 l 568 828 q 462 955 543 887 q 496 986 469 986 q 538 960 524 986 q 565 909 560 922 q 583 833 578 877 m 716 800 q 696 709 716 747 q 646 668 677 668 q 585 686 617 668 q 510 623 559 623 q 448 696 448 623 q 455 751 448 705 l 477 760 q 522 699 481 699 q 556 730 538 699 q 577 791 572 761 l 594 795 q 607 761 602 766 q 645 747 618 747 q 694 825 678 747 l 712 829 q 716 800 716 814 m 930 180 q 913 116 927 144 q 811 78 884 73 q 673 137 739 82 q 520 62 621 62 q 435 82 472 62 q 391 113 407 100 q 269 61 325 73 q 184 53 214 48 q 124 81 154 57 q 84 145 95 104 q 70 237 74 185 q 169 304 66 290 q 323 366 271 318 q 289 426 312 408 q 269 471 265 444 q 311 504 273 499 q 364 478 349 509 q 418 245 380 448 q 519 144 434 170 q 583 161 562 144 q 619 232 623 182 l 576 433 q 555 513 563 491 q 577 615 537 608 q 627 567 618 622 q 685 286 636 513 q 798 170 709 170 q 848 232 841 170 l 805 433 q 764 515 793 490 q 740 582 734 540 q 787 625 746 625 q 849 572 828 626 q 892 414 869 517 q 930 180 930 233 m 369 186 q 341 298 353 237 q 198 238 266 246 q 158 179 131 230 q 229 129 166 118 q 369 186 292 139 z "},"ﹰ":{"ha":279,"x_min":47,"x_max":279,"o":"m 279 1175 q 262 1129 279 1144 q 183 1090 245 1114 l 47 1036 q 75 1088 47 1070 q 134 1116 84 1095 l 279 1175 m 279 1074 q 262 1026 279 1042 q 183 987 245 1011 l 47 932 q 75 985 47 966 q 134 1013 84 991 l 279 1074 z "},"ﹱ":{"ha":886,"x_min":0,"x_max":927,"o":"m 559 972 q 541 925 559 941 q 463 886 524 911 l 328 832 q 354 885 328 867 q 414 912 363 892 l 559 972 m 559 870 q 541 822 559 838 q 463 783 524 808 l 328 729 q 355 782 328 763 q 414 809 363 788 l 559 870 m 927 87 l 0 87 l 0 205 l 927 205 l 927 87 z "},"ﹲ":{"ha":398,"x_min":130,"x_max":409,"o":"m 224 1049 q 315 1028 271 1049 q 384 968 359 1007 q 409 887 409 930 q 385 807 409 845 q 316 747 360 768 q 224 726 272 726 q 138 778 130 743 q 197 800 146 813 q 279 800 247 787 q 328 847 312 813 q 323 922 344 882 q 268 974 302 962 q 183 972 233 985 q 132 998 133 958 q 224 1049 132 1038 m 182 961 q 226 951 205 961 q 259 923 247 941 q 271 884 271 904 q 259 844 271 863 q 227 816 248 826 q 182 806 205 806 q 142 831 138 814 q 170 841 146 848 q 209 841 194 835 q 232 864 224 848 q 230 900 239 880 q 203 925 220 919 q 163 924 187 930 q 139 937 140 918 q 182 961 139 956 z "},"ﹴ":{"ha":279,"x_min":47,"x_max":279,"o":"m 279 -50 q 262 -95 279 -81 q 183 -135 245 -110 l 47 -190 q 75 -137 47 -155 q 134 -110 83 -131 l 279 -50 m 279 -150 q 261 -197 279 -182 q 183 -236 245 -210 l 47 -292 q 74 -238 47 -257 q 134 -210 84 -231 l 279 -150 z "},"ﹶ":{"ha":278,"x_min":46,"x_max":278,"o":"m 278 964 q 261 918 278 932 q 182 878 243 903 l 46 823 q 73 877 46 858 q 132 904 83 884 l 278 964 z "},"ﹷ":{"ha":886,"x_min":0,"x_max":927,"o":"m 559 964 q 541 917 559 932 q 463 878 524 903 l 328 823 q 354 877 328 858 q 414 904 363 884 l 559 964 m 927 87 l 0 87 l 0 205 l 927 205 l 927 87 z "},"ﹸ":{"ha":292,"x_min":43,"x_max":263,"o":"m 98 1043 q 179 1024 139 1043 q 241 971 218 1006 q 263 898 263 936 q 241 825 263 860 q 180 772 220 791 q 98 753 140 753 q 54 784 50 759 q 89 808 59 808 q 147 820 118 808 q 191 862 176 831 q 186 929 205 892 q 137 975 168 965 q 74 987 106 985 q 46 1014 43 988 q 98 1043 49 1040 z "},"ﹹ":{"ha":886,"x_min":-282,"x_max":645,"o":"m 645 87 l -282 87 l -282 205 l 645 205 l 645 87 m 195 1034 q 277 1016 237 1034 q 339 962 316 997 q 361 889 361 927 q 339 817 361 851 q 278 763 317 782 q 195 744 239 744 q 119 791 112 760 q 171 811 126 823 q 245 811 216 799 q 288 853 274 823 q 284 920 302 884 q 234 966 265 956 q 159 965 203 977 q 113 989 114 953 q 195 1034 113 1025 z "},"ﹺ":{"ha":279,"x_min":47,"x_max":279,"o":"m 279 0 q 262 -47 279 -32 q 183 -86 245 -62 l 47 -140 q 75 -88 47 -106 q 134 -61 83 -82 l 279 0 z "},"ﹻ":{"ha":886,"x_min":0,"x_max":927,"o":"m 927 87 l 0 87 l 0 205 l 927 205 l 927 87 m 559 0 q 541 -47 559 -32 q 463 -86 524 -62 l 328 -140 q 355 -88 328 -106 q 414 -61 363 -82 l 559 0 z "},"ﹼ":{"ha":294,"x_min":47,"x_max":294,"o":"m 294 890 q 275 807 294 840 q 222 770 256 770 q 176 787 202 770 q 104 729 142 729 q 47 802 47 729 q 66 875 47 830 l 80 881 q 79 863 80 875 q 77 843 77 851 q 102 804 77 804 q 169 911 144 804 l 183 915 q 219 853 194 853 q 272 943 268 853 l 286 947 q 294 890 294 910 z "},"ﹽ":{"ha":886,"x_min":0,"x_max":927,"o":"m 566 890 q 548 807 566 840 q 494 770 528 770 q 449 787 475 770 q 377 729 415 729 q 320 802 320 729 q 338 875 320 830 l 353 881 q 351 863 353 875 q 350 843 350 851 q 374 804 350 804 q 441 911 416 804 l 456 915 q 492 853 467 853 q 545 943 541 853 l 559 947 q 566 890 566 910 m 927 87 l 0 87 l 0 205 l 927 205 l 927 87 z "},"ﹾ":{"ha":229,"x_min":11,"x_max":213,"o":"m 112 928 q 183 900 154 928 q 213 833 213 872 q 183 766 213 794 q 112 739 154 739 q 40 766 70 739 q 11 833 11 794 q 40 900 11 872 q 112 928 70 928 m 112 894 q 67 876 85 894 q 48 833 48 859 q 67 791 48 808 q 112 774 85 774 q 157 791 138 774 q 176 833 176 808 q 158 876 176 859 q 112 894 139 894 z "},"ﹿ":{"ha":886,"x_min":0,"x_max":927,"o":"m 927 87 l 0 87 l 0 205 l 927 205 l 927 87 m 441 945 q 513 918 484 945 q 543 850 543 890 q 513 784 543 812 q 441 756 484 756 q 370 784 399 756 q 340 850 340 812 q 370 918 340 890 q 441 945 399 945 m 441 911 q 396 894 415 911 q 378 851 378 876 q 396 809 378 826 q 441 791 415 791 q 487 809 468 791 q 506 851 506 826 q 487 894 506 876 q 441 911 469 911 z "},"ﺀ":{"ha":454,"x_min":82,"x_max":388,"o":"m 336 415 q 374 352 388 382 q 281 323 361 321 q 201 297 202 326 q 272 262 200 269 q 360 205 345 256 q 350 122 376 155 q 261 75 325 89 q 154 79 198 60 q 121 136 109 97 q 207 171 134 175 q 270 192 281 167 q 191 219 260 218 q 102 278 122 221 q 152 380 82 336 q 336 415 222 425 z "},"ﺁ":{"ha":395,"x_min":77,"x_max":380,"o":"m 380 1027 q 271 976 332 976 q 183 993 227 976 q 123 1010 140 1010 q 85 1000 109 1010 l 77 1009 q 149 1055 111 1055 q 211 1038 162 1055 q 292 1021 260 1021 q 370 1038 331 1021 l 380 1027 m 205 901 q 216 904 205 901 q 245 899 227 907 q 278 866 264 891 q 290 730 292 840 q 289 353 287 511 q 311 169 290 208 q 320 101 332 130 q 264 77 308 73 q 214 250 210 96 q 218 561 217 405 q 197 750 219 718 q 169 812 175 783 q 173 868 162 842 q 205 901 183 895 z "},"ﺂ":{"ha":442,"x_min":88,"x_max":487,"o":"m 410 1008 q 295 961 359 961 q 201 977 248 961 q 137 992 155 992 q 97 983 122 992 l 88 991 q 165 1034 125 1034 q 231 1019 178 1034 q 316 1003 283 1003 q 399 1018 358 1003 l 410 1008 m 487 87 q 316 78 364 94 q 245 93 267 61 q 242 173 222 125 q 257 459 262 220 q 243 656 250 616 q 203 729 237 696 q 175 812 170 761 q 221 878 181 863 q 288 849 262 893 q 322 621 314 806 q 329 392 329 475 q 330 207 328 309 l 487 205 l 487 87 z "},"ﺃ":{"ha":316,"x_min":87,"x_max":283,"o":"m 157 904 q 168 907 157 904 q 197 902 178 910 q 230 868 216 894 q 242 732 244 843 q 241 356 239 513 q 263 171 242 210 q 272 104 283 132 q 216 79 260 76 q 165 253 162 98 q 170 564 169 408 q 149 753 171 720 q 120 815 127 785 q 124 871 114 844 q 157 904 135 897 m 211 1133 q 230 1101 236 1116 q 184 1086 223 1085 q 145 1073 145 1087 q 180 1055 144 1058 q 222 1025 215 1051 q 218 983 230 1000 q 174 958 205 966 q 121 960 143 951 q 106 990 100 970 q 148 1008 112 1010 q 179 1019 184 1006 q 140 1033 174 1032 q 97 1063 106 1034 q 121 1116 87 1093 q 211 1133 155 1139 z "},"ﺄ":{"ha":402,"x_min":117,"x_max":460,"o":"m 460 87 q 289 78 337 94 q 218 93 240 61 q 215 173 195 125 q 230 459 235 220 q 216 656 222 616 q 176 729 210 696 q 148 812 142 761 q 194 878 154 863 q 261 849 235 893 q 295 621 287 806 q 301 392 302 475 q 302 207 301 309 l 460 205 l 460 87 m 241 1141 q 259 1108 266 1124 q 214 1094 253 1093 q 175 1080 175 1095 q 210 1062 174 1065 q 252 1033 245 1059 q 248 990 260 1007 q 204 966 235 973 q 151 968 173 958 q 136 997 130 977 q 178 1015 142 1017 q 209 1026 214 1013 q 170 1040 203 1040 q 126 1070 136 1041 q 151 1123 117 1100 q 241 1141 184 1146 z "},"ﺅ":{"ha":599,"x_min":-237,"x_max":625,"o":"m 561 230 q 480 342 536 342 q 433 298 433 342 q 561 230 433 231 m 378 730 q 408 687 418 708 q 337 667 398 666 q 275 649 275 669 q 330 625 274 629 q 397 586 385 621 q 389 529 408 551 q 321 496 370 506 q 238 498 272 486 q 213 538 203 511 q 279 562 223 565 q 328 577 336 559 q 267 596 320 595 q 199 636 214 597 q 237 707 184 676 q 378 730 290 738 m 620 194 q 551 -46 603 48 q 407 -215 498 -140 q 177 -297 292 -290 q -35 -284 62 -305 q -183 -240 -132 -264 q -236 -182 -235 -216 q -182 -168 -237 -148 q -80 -204 -127 -189 q 49 -229 -32 -220 q 210 -218 130 -238 q 355 -148 291 -198 q 464 -38 420 -97 q 519 73 508 22 q 527 152 531 124 q 353 281 348 155 q 431 438 358 407 q 565 397 505 469 q 620 194 625 324 z "},"ﺇ":{"ha":313,"x_min":74,"x_max":254,"o":"m 117 901 q 127 904 117 901 q 157 899 138 907 q 190 866 176 891 q 202 730 204 840 q 201 353 199 511 q 223 169 202 208 q 232 101 243 130 q 176 77 220 73 q 125 250 122 96 q 130 561 129 405 q 109 750 131 718 q 80 812 87 783 q 84 868 74 842 q 117 901 95 895 m 229 4 q 247 -28 254 -13 q 202 -43 241 -44 q 162 -57 163 -42 q 197 -75 162 -71 q 240 -104 233 -78 q 235 -146 248 -130 q 192 -171 223 -163 q 139 -169 161 -178 q 123 -139 117 -159 q 165 -121 130 -119 q 196 -110 201 -123 q 158 -96 191 -97 q 114 -66 124 -96 q 138 -14 104 -37 q 229 4 172 9 z "},"ﺈ":{"ha":389,"x_min":98,"x_max":415,"o":"m 265 18 q 290 -24 299 -3 q 229 -43 281 -44 q 176 -60 177 -41 q 223 -84 176 -79 q 281 -122 271 -88 q 274 -177 291 -155 q 216 -209 258 -199 q 145 -206 174 -218 q 124 -168 116 -194 q 180 -144 132 -142 q 222 -130 229 -147 q 170 -112 215 -113 q 112 -73 125 -111 q 144 -5 98 -35 q 265 18 190 25 m 415 87 q 244 78 292 94 q 173 93 195 61 q 171 173 151 125 q 185 459 191 220 q 172 656 178 616 q 132 729 165 696 q 103 812 98 761 q 150 878 109 863 q 216 849 190 893 q 250 621 242 806 q 257 392 257 475 q 258 207 256 309 l 415 205 l 415 87 z "},"ﺉ":{"ha":958,"x_min":63,"x_max":949,"o":"m 434 678 q 459 635 468 656 q 398 616 450 615 q 345 599 346 618 q 392 575 345 580 q 450 538 439 571 q 443 483 460 505 q 385 451 427 460 q 314 453 343 441 q 293 491 285 465 q 349 515 301 517 q 391 529 397 512 q 339 548 384 547 q 280 587 294 549 q 313 655 267 625 q 434 678 359 685 m 943 431 q 913 382 940 393 q 850 402 886 372 q 783 422 814 432 q 719 377 751 412 q 667 311 687 342 q 647 244 648 281 q 713 210 646 208 q 883 198 829 226 q 918 78 936 170 q 758 -91 901 -14 q 389 -172 601 -177 q 139 -62 215 -151 q 71 135 63 26 q 143 338 78 244 q 257 416 208 433 q 225 307 306 399 q 160 110 145 216 q 412 -56 191 -56 q 700 0 533 -56 q 802 95 796 52 q 719 125 808 138 q 578 161 630 112 q 554 227 555 183 q 579 331 554 271 q 674 461 604 391 q 847 530 745 530 q 924 493 898 521 q 943 431 949 466 z "},"ﺊ":{"ha":925,"x_min":30,"x_max":916,"o":"m 409 397 q 434 355 443 375 q 373 336 425 335 q 320 318 321 337 q 367 295 319 300 q 425 257 414 291 q 418 202 435 224 q 360 170 401 180 q 289 173 318 161 q 268 211 260 185 q 324 235 276 237 q 366 249 372 232 q 314 267 359 266 q 255 306 269 268 q 288 374 242 345 q 409 397 334 404 m 910 128 q 880 79 907 90 q 817 99 853 68 q 750 119 781 129 q 686 74 718 109 q 634 8 654 39 q 614 -59 614 -22 q 680 -93 613 -95 q 849 -105 796 -77 q 885 -225 903 -133 q 725 -394 867 -317 q 356 -475 568 -480 q 106 -366 182 -454 q 37 -168 30 -277 q 110 35 45 -59 q 223 113 174 130 q 192 4 273 96 q 127 -193 112 -87 q 378 -359 157 -359 q 667 -303 500 -359 q 769 -209 763 -252 q 686 -178 774 -165 q 545 -142 597 -191 q 521 -76 522 -120 q 546 28 521 -33 q 641 158 571 88 q 814 227 711 227 q 890 190 865 218 q 910 128 916 163 z "},"ﺌ":{"ha":373,"x_min":-22,"x_max":427,"o":"m 164 758 q 186 718 194 737 q 133 700 178 699 q 87 683 88 701 q 128 661 87 665 q 178 625 169 656 q 172 572 186 593 q 122 542 158 551 q 60 545 85 533 q 42 581 35 556 q 91 603 49 606 q 127 617 133 601 q 82 634 121 633 q 31 672 43 635 q 59 736 20 708 q 164 758 99 764 m 373 134 q 359 115 373 134 q 292 88 345 97 l -22 87 l -22 205 l 282 205 q 343 237 326 202 q 348 328 361 273 q 294 388 339 369 q 248 446 250 406 q 291 504 245 486 q 365 491 337 522 q 406 425 393 460 q 414 261 427 353 q 373 134 401 170 z "},"ﺍ":{"ha":322,"x_min":77,"x_max":271,"o":"m 239 184 q 255 168 239 184 q 245 115 271 151 q 177 106 218 79 q 135 187 136 132 q 135 481 134 242 q 129 699 134 652 q 100 776 123 746 q 81 845 77 806 q 120 900 86 884 q 179 871 153 915 q 207 642 205 827 q 207 414 207 497 q 207 273 206 330 q 239 184 208 216 z "},"ﺎ":{"ha":408,"x_min":117,"x_max":435,"o":"m 435 87 q 263 78 312 94 q 193 93 215 61 q 190 173 170 125 q 205 459 210 220 q 191 656 197 616 q 151 729 185 696 q 123 812 117 761 q 169 878 129 863 q 236 849 210 893 q 270 621 262 806 q 276 392 277 475 q 277 207 276 309 l 435 205 l 435 87 z "},"ﺏ":{"ha":991,"x_min":68,"x_max":1042,"o":"m 253 706 l 331 764 q 151 482 151 573 l 151 421 q 622 197 151 197 l 704 197 q 946 267 907 197 q 924 400 985 376 q 865 455 863 424 q 958 511 861 524 q 1042 340 1031 472 l 1040 303 q 683 96 1031 96 q 68 421 68 96 q 253 706 68 549 m 629 -10 q 666 -19 648 -10 q 694 -46 684 -28 q 704 -82 704 -63 q 694 -117 704 -100 q 666 -144 684 -134 q 629 -154 648 -154 q 592 -144 610 -154 q 564 -117 574 -134 q 554 -82 554 -100 q 564 -46 554 -63 q 592 -19 574 -28 q 629 -10 610 -10 z "},"ﺒ":{"ha":441,"x_min":-23,"x_max":475,"o":"m 422 134 q 408 115 422 134 q 341 88 394 97 l -23 87 l -23 205 l 331 205 q 392 237 374 202 q 397 328 410 273 q 343 388 388 369 q 296 446 298 406 q 340 504 294 486 q 414 491 386 522 q 454 425 442 460 q 463 261 475 353 q 422 134 450 170 m 293 15 q 328 7 311 15 q 355 -17 345 -1 q 365 -50 365 -33 q 355 -82 365 -66 q 329 -106 346 -98 q 293 -115 311 -115 q 257 -106 274 -115 q 230 -82 239 -98 q 220 -50 220 -66 q 230 -17 220 -33 q 257 7 239 -1 q 293 15 275 15 z "},"ﺓ":{"ha":525,"x_min":47,"x_max":500,"o":"m 299 244 q 214 339 296 353 q 153 201 136 335 q 229 129 168 124 q 283 146 266 129 q 299 244 300 163 m 412 873 q 423 876 412 873 q 453 871 434 880 q 486 838 472 863 q 498 702 500 812 q 496 326 494 483 q 452 108 498 180 q 312 25 407 36 q 155 44 217 14 q 70 178 92 75 q 86 351 47 282 q 244 416 126 420 q 391 272 389 406 q 376 150 392 193 q 422 284 420 191 q 426 533 425 377 q 405 722 427 690 q 376 784 382 755 q 380 840 370 814 q 412 873 391 867 m 283 786 q 309 743 317 764 q 248 724 300 723 q 195 707 195 726 q 241 683 194 688 q 299 646 289 679 q 293 590 309 612 q 234 558 276 568 q 163 561 193 549 q 142 599 134 573 q 199 623 151 625 q 240 637 247 620 q 188 655 233 654 q 130 695 143 656 q 162 763 117 733 q 283 786 208 793 z "},"ﺔ":{"ha":726,"x_min":60,"x_max":783,"o":"m 783 87 l 572 87 q 623 18 602 35 q 623 -14 644 1 q 559 -12 601 -28 q 475 85 517 4 q 295 87 400 80 q 125 138 181 89 q 64 258 69 188 q 94 374 60 328 q 188 435 127 420 q 361 458 248 450 q 319 659 337 589 q 273 755 301 728 q 246 818 244 781 q 271 871 248 854 q 328 881 294 889 q 385 795 362 872 l 427 592 l 453 467 q 582 493 522 472 q 621 453 642 515 q 471 385 600 392 q 527 205 491 304 l 551 205 l 783 205 l 783 87 m 385 374 q 214 354 260 370 q 166 275 168 338 q 291 197 164 212 l 439 200 q 385 374 410 275 m 228 736 q 253 694 262 714 q 192 675 244 673 q 139 657 140 676 q 186 634 138 638 q 243 596 233 629 q 237 541 254 563 q 179 509 220 519 q 108 511 137 499 q 87 550 79 524 q 143 573 95 576 q 184 588 191 570 q 133 606 178 605 q 74 645 87 607 q 107 713 61 684 q 228 736 153 743 z "},"ﺕ":{"ha":1013,"x_min":87,"x_max":1061,"o":"m 271 706 l 349 764 q 169 482 169 573 l 169 421 q 640 197 169 197 l 722 197 q 964 267 926 197 q 942 400 1003 376 q 883 455 882 424 q 976 511 879 524 q 1061 340 1050 472 l 1059 303 q 701 96 1050 96 q 87 421 87 96 q 271 706 87 549 m 514 683 q 549 674 532 683 q 576 650 566 666 q 586 618 586 635 q 576 586 586 601 q 550 562 567 570 q 514 553 532 553 q 478 562 495 553 q 451 586 460 570 q 441 618 441 601 q 451 650 441 635 q 478 674 460 666 q 514 683 496 683 m 722 680 q 756 671 739 680 q 784 648 774 663 q 793 616 793 633 q 784 585 793 600 q 757 561 774 570 q 722 553 740 553 q 685 561 703 553 q 659 585 668 570 q 649 616 649 600 q 659 648 649 633 q 686 671 668 663 q 722 680 703 680 z "},"ﺘ":{"ha":450,"x_min":-38,"x_max":508,"o":"m 454 134 q 440 115 454 134 q 374 88 427 97 l -38 87 l -38 205 l 363 205 q 425 237 407 202 q 429 328 442 273 q 376 388 420 369 q 329 446 331 406 q 373 504 327 486 q 447 491 418 522 q 487 425 475 460 q 495 261 508 353 q 454 134 482 170 m 197 696 q 232 687 215 696 q 259 663 250 679 q 269 631 269 648 q 260 598 269 614 q 233 574 250 583 q 197 566 216 566 q 161 574 178 566 q 134 598 144 583 q 125 631 125 614 q 134 663 125 648 q 161 687 144 679 q 197 696 179 696 m 368 762 q 403 754 386 762 q 430 731 420 746 q 440 699 440 715 q 431 668 440 683 q 404 644 421 652 q 368 635 387 635 q 332 644 349 635 q 305 668 315 652 q 296 699 296 683 q 305 731 296 715 q 332 754 315 746 q 368 762 350 762 z "}}}
